999
dxfrw 0.6.3
  0
SECTION
  2
HEADER
  9
$ACADVER
  1
AC1021
  9
$DWGCODEPAGE
  3
ANSI_936
  9
$INSBASE
 10
0
 20
0
 30
0
  9
$EXTMIN
 10
43.18
 20
50.08315555555556
 30
0
  9
$EXTMAX
 10
278.13
 20
206.8801777482601
 30
0
  9
$LIMMIN
 10
0
 20
0
  9
$LIMMAX
 10
12
 20
9
  9
$ORTHOMODE
 70
    0
  9
$REGENMODE
 70
    1
  9
$FILLMODE
 70
    1
  9
$QTEXTMODE
 70
    0
  9
$MIRRTEXT
 70
    0
  9
$LTSCALE
 40
1
  9
$ATTMODE
 70
    1
  9
$TEXTSIZE
 40
0.2
  9
$TRACEWID
 40
0.05
  9
$TEXTSTYLE
  7
Standard
  9
$CLAYER
  8
0
  9
$CELTYPE
  6
ByLayer
  9
$CECOLOR
 62
  256
  9
$CELTSCALE
 40
1
  9
$DISPSILH
 70
    0
  9
$DIMSCALE
 40
1
  9
$DIMASZ
 40
0.18
  9
$DIMEXO
 40
0.0625
  9
$DIMDLI
 40
0.38
  9
$DIMRND
 40
0
  9
$DIMDLE
 40
0
  9
$DIMEXE
 40
0.18
  9
$DIMTP
 40
0
  9
$DIMTM
 40
0
  9
$DIMTXT
 40
0.18
  9
$DIMCEN
 40
0.09
  9
$DIMTSZ
 40
0
  9
$DIMTOL
 70
    0
  9
$DIMLIM
 70
    0
  9
$DIMTIH
 70
    1
  9
$DIMTOH
 70
    1
  9
$DIMSE1
 70
    0
  9
$DIMSE2
 70
    0
  9
$DIMTAD
 70
    0
  9
$DIMZIN
 70
    0
  9
$DIMBLK
  1

  9
$DIMASO
 70
    1
  9
$DIMSHO
 70
    1
  9
$DIMPOST
  1

  9
$DIMAPOST
  1

  9
$DIMALT
 70
    0
  9
$DIMALTD
 70
    2
  9
$DIMALTF
 40
25.4
  9
$DIMLFAC
 40
1
  9
$DIMTOFL
 70
    0
  9
$DIMTVP
 40
0
  9
$DIMTIX
 70
    0
  9
$DIMSOXD
 70
    0
  9
$DIMSAH
 70
    0
  9
$DIMBLK1
  1

  9
$DIMBLK2
  1

  9
$DIMSTYLE
  2
Standard
  9
$DIMCLRD
 70
    0
  9
$DIMCLRE
 70
    0
  9
$DIMCLRT
 70
    0
  9
$DIMTFAC
 40
1
  9
$DIMGAP
 40
0.09
  9
$DIMJUST
 70
    0
  9
$DIMSD1
 70
    0
  9
$DIMSD2
 70
    0
  9
$DIMTOLJ
 70
    1
  9
$DIMTZIN
 70
    0
  9
$DIMALTZ
 70
    0
  9
$DIMALTTZ
 70
    0
  9
$DIMUPT
 70
    0
  9
$DIMDEC
 70
    4
  9
$DIMTDEC
 70
    4
  9
$DIMALTU
 70
    2
  9
$DIMALTTD
 70
    2
  9
$DIMTXSTY
  7
Standard
  9
$DIMAUNIT
 70
    0
  9
$DIMADEC
 70
    0
  9
$DIMALTRND
 40
0
  9
$DIMAZIN
 70
    0
  9
$DIMDSEP
 70
   46
  9
$DIMATFIT
 70
    3
  9
$DIMFRAC
 70
    0
  9
$DIMLDRBLK
  1

  9
$DIMLUNIT
 70
    2
  9
$DIMLWD
 70
   -2
  9
$DIMLWE
 70
   -2
  9
$DIMTMOVE
 70
    0
  9
$DIMFXL
 40
1
  9
$DIMFXLON
 70
    0
  9
$DIMJOGANG
 40
0.7853981633974483
  9
$DIMTFILL
 70
    0
  9
$DIMTFILLCLR
 70
    0
  9
$DIMARCSYM
 70
    0
  9
$DIMLTYPE
  6

  9
$DIMLTEX1
  6

  9
$DIMLTEX2
  6

  9
$LUNITS
 70
    2
  9
$LUPREC
 70
    4
  9
$SKETCHINC
 40
0.1
  9
$FILLETRAD
 40
0
  9
$AUNITS
 70
    0
  9
$AUPREC
 70
    0
  9
$MENU
  1
.
  9
$ELEVATION
 40
0
  9
$PELEVATION
 40
0
  9
$THICKNESS
 40
0
  9
$LIMCHECK
 70
    0
  9
$CHAMFERA
 40
0
  9
$CHAMFERB
 40
0
  9
$CHAMFERC
 40
0
  9
$CHAMFERD
 40
0
  9
$SKPOLY
 70
    0
  9
$USRTIMER
 70
    1
  9
$ANGBASE
 50
0
  9
$ANGDIR
 70
    0
  9
$PDMODE
 70
    0
  9
$PDSIZE
 40
0
  9
$PLINEWID
 40
0
  9
$SPLFRAME
 70
    0
  9
$SPLINETYPE
 70
    6
  9
$SPLINESEGS
 70
    8
  9
$HANDSEED
  5
20000
  9
$SURFTAB1
 70
    6
  9
$SURFTAB2
 70
    6
  9
$SURFTYPE
 70
    6
  9
$SURFU
 70
    6
  9
$SURFV
 70
    6
  9
$UCSBASE
  2

  9
$UCSNAME
  2

  9
$UCSORG
 10
0
 20
0
 30
0
  9
$UCSXDIR
 10
1
 20
0
 30
0
  9
$UCSYDIR
 10
0
 20
1
 30
0
  9
$UCSORTHOREF
  2

  9
$UCSORTHOVIEW
 70
    0
  9
$UCSORGTOP
 10
0
 20
0
 30
0
  9
$UCSORGBOTTOM
 10
0
 20
0
 30
0
  9
$UCSORGLEFT
 10
0
 20
0
 30
0
  9
$UCSORGRIGHT
 10
0
 20
0
 30
0
  9
$UCSORGFRONT
 10
0
 20
0
 30
0
  9
$UCSORGBACK
 10
0
 20
0
 30
0
  9
$PUCSBASE
  2

  9
$PUCSNAME
  2

  9
$PUCSORG
 10
0
 20
0
 30
0
  9
$PUCSXDIR
 10
1
 20
0
 30
0
  9
$PUCSYDIR
 10
0
 20
1
 30
0
  9
$PUCSORTHOREF
  2

  9
$PUCSORTHOVIEW
 70
    0
  9
$PUCSORGTOP
 10
0
 20
0
 30
0
  9
$PUCSORGBOTTOM
 10
0
 20
0
 30
0
  9
$PUCSORGLEFT
 10
0
 20
0
 30
0
  9
$PUCSORGRIGHT
 10
0
 20
0
 30
0
  9
$PUCSORGFRONT
 10
0
 20
0
 30
0
  9
$PUCSORGBACK
 10
0
 20
0
 30
0
  9
$USERI1
 70
    0
  9
$USERI2
 70
    0
  9
$USERI3
 70
    0
  9
$USERI4
 70
    0
  9
$USERI5
 70
    0
  9
$USERR1
 40
0
  9
$USERR2
 40
0
  9
$USERR3
 40
0
  9
$USERR4
 40
0
  9
$USERR5
 40
0
  9
$WORLDVIEW
 70
    1
  9
$SHADEDGE
 70
    3
  9
$SHADEDIF
 70
   70
  9
$TILEMODE
 70
    1
  9
$MAXACTVP
 70
   64
  9
$PINSBASE
 10
0
 20
0
 30
0
  9
$PLIMCHECK
 70
    0
  9
$PEXTMIN
 10
0
 20
0
 30
0
  9
$PEXTMAX
 10
0
 20
0
 30
0
  9
$GRIDMODE
 70
    1
  9
$SNAPSTYLE
 70
    0
  9
$PLIMMIN
 10
0
 20
0
  9
$PLIMMAX
 10
12
 20
9
  9
$UNITMODE
 70
    0
  9
$VISRETAIN
 70
    1
  9
$PLINEGEN
 70
    0
  9
$PSLTSCALE
 70
    1
  9
$TREEDEPTH
 70
 3020
  9
$CMLSTYLE
  2
Standard
  9
$CMLJUST
 70
    0
  9
$CMLSCALE
 40
1
  9
$PROXYGRAPHICS
 70
    1
  9
$MEASUREMENT
 70
    1
  9
$CELWEIGHT
370
   -1
  9
$ENDCAPS
280
    0
  9
$JOINSTYLE
280
    0
  9
$LWDISPLAY
290
    0
  9
$INSUNITS
 70
    4
  9
$HYPERLINKBASE
  1

  9
$STYLESHEET
  1

  9
$XEDIT
290
    1
  9
$CEPSNTYPE
380
    0
  9
$PSTYLEMODE
290
    0
  9
$EXTNAMES
290
    1
  9
$PSVPSCALE
 40
0
  9
$OLESTARTUP
290
    0
  9
$SORTENTS
280
  127
  9
$INDEXCTL
280
    0
  9
$HIDETEXT
280
    1
  9
$XCLIPFRAME
290
    0
  9
$HALOGAP
280
    0
  9
$OBSCOLOR
 70
  257
  9
$OBSLTYPE
280
    0
  9
$INTERSECTIONDISPLAY
280
    0
  9
$INTERSECTIONCOLOR
 70
  257
  9
$DIMASSOC
280
    2
  9
$PROJECTNAME
  1

  9
$CAMERADISPLAY
290
    0
  9
$LENSLENGTH
 40
50
  9
$CAMERAHEIGHT
 40
60
  9
$STEPSPERSEC
 40
2
  9
$STEPSIZE
 40
6
  9
$3DDWFPREC
 40
2
  9
$PSOLWIDTH
 40
0.25
  9
$PSOLHEIGHT
 40
4
  9
$LOFTANG1
 40
1.570796326794896
  9
$LOFTANG2
 40
1.570796326794896
  9
$LOFTMAG1
 40
0
  9
$LOFTMAG2
 40
0
  9
$LOFTPARAM
 70
    7
  9
$LOFTNORMALS
280
    1
  9
$LATITUDE
 40
37.795
  9
$LONGITUDE
 40
-122.394
  9
$NORTHDIRECTION
 40
0
  9
$TIMEZONE
 70
-8000
  9
$LIGHTGLYPHDISPLAY
280
    1
  9
$TILEMODELIGHTSYNCH
280
    1
  9
$SOLIDHIST
280
    0
  9
$SHOWHIST
280
    1
  9
$DWFFRAME
280
    2
  9
$DGNFRAME
280
    0
  9
$REALWORLDSCALE
290
    1
  9
$INTERFERECOLOR
 62
    1
  9
$CSHADOW
280
    0
  9
$SHADOWPLANELOCATION
 40
0
  0
ENDSEC
  0
SECTION
  2
CLASSES
  0
ENDSEC
  0
SECTION
  2
TABLES
  0
TABLE
  2
VPORT
  5
8
330
0
100
AcDbSymbolTable
 70
    1
  0
VPORT
  5
31
330
2
100
AcDbSymbolTableRecord
100
AcDbViewportTableRecord
  2
*ACTIVE
 70
    0
 10
0
 20
0
 11
1
 21
1
 12
163.1864603202919
 22
122.0305475893936
 13
0
 23
0
 14
10
 24
10
 15
10
 25
10
 16
0
 26
0
 36
1
 17
0
 27
0
 37
0
 40
205.1262951984454
 41
1.619108280254777
 42
50
 43
0
 44
0
 50
0
 51
0
 71
    0
 72
  100
 73
    1
 74
    3
 75
    0
 76
    1
 77
    0
 78
    0
281
    0
 65
    1
110
0
120
0
130
0
111
1
121
0
131
0
112
0
122
1
132
0
 79
    0
146
0
348
10020
 60
    7
 61
    5
292
1
282
    1
141
0
142
0
 63
  250
421
3358443
  0
ENDTAB
  0
TABLE
  2
LTYPE
  5
5
330
0
100
AcDbSymbolTable
 70
    4
  0
LTYPE
  5
14
330
5
100
AcDbSymbolTableRecord
100
AcDbLinetypeTableRecord
  2
ByBlock
 70
    0
  3

 72
   65
 73
    0
 40
0
  0
LTYPE
  5
15
330
5
100
AcDbSymbolTableRecord
100
AcDbLinetypeTableRecord
  2
ByLayer
 70
    0
  3

 72
   65
 73
    0
 40
0
  0
LTYPE
  5
16
330
5
100
AcDbSymbolTableRecord
100
AcDbLinetypeTableRecord
  2
Continuous
 70
    0
  3
Solid line
 72
   65
 73
    0
 40
0
  0
LTYPE
  5
32
330
5
100
AcDbSymbolTableRecord
100
AcDbLinetypeTableRecord
  2
DOT
 70
    0
  3
Dot . . . . . . . . . . . . . . . . . . . . . .
 72
   65
 73
    2
 40
6.35
 49
0
 74
    0
 49
-6.35
 74
    0
  0
LTYPE
  5
33
330
5
100
AcDbSymbolTableRecord
100
AcDbLinetypeTableRecord
  2
DOTTINY
 70
    0
  3
Dot (.15x) .....................................
 72
   65
 73
    2
 40
0.9525
 49
0
 74
    0
 49
-0.9525
 74
    0
  0
LTYPE
  5
34
330
5
100
AcDbSymbolTableRecord
100
AcDbLinetypeTableRecord
  2
DOT2
 70
    0
  3
Dot (.5x) .....................................
 72
   65
 73
    2
 40
3.175
 49
0
 74
    0
 49
-3.175
 74
    0
  0
LTYPE
  5
35
330
5
100
AcDbSymbolTableRecord
100
AcDbLinetypeTableRecord
  2
DOTX2
 70
    0
  3
Dot (2x) .  .  .  .  .  .  .  .  .  .  .  .  .
 72
   65
 73
    2
 40
12.7
 49
0
 74
    0
 49
-12.7
 74
    0
  0
LTYPE
  5
36
330
5
100
AcDbSymbolTableRecord
100
AcDbLinetypeTableRecord
  2
DASHED
 70
    0
  3
Dashed _ _ _ _ _ _ _ _ _ _ _ _ _ _ _ _ _
 72
   65
 73
    2
 40
19.05
 49
12.7
 74
    0
 49
-6.35
 74
    0
  0
LTYPE
  5
37
330
5
100
AcDbSymbolTableRecord
100
AcDbLinetypeTableRecord
  2
DASHEDTINY
 70
    0
  3
Dashed (.15x) _ _ _ _ _ _ _ _ _ _ _ _ _ _ _ _ _
 72
   65
 73
    2
 40
2.8575
 49
1.905
 74
    0
 49
-0.9525
 74
    0
  0
LTYPE
  5
38
330
5
100
AcDbSymbolTableRecord
100
AcDbLinetypeTableRecord
  2
DASHED2
 70
    0
  3
Dashed (.5x) _ _ _ _ _ _ _ _ _ _ _ _ _ _ _ _ _
 72
   65
 73
    2
 40
9.524999999999999
 49
6.35
 74
    0
 49
-3.175
 74
    0
  0
LTYPE
  5
39
330
5
100
AcDbSymbolTableRecord
100
AcDbLinetypeTableRecord
  2
DASHEDX2
 70
    0
  3
Dashed (2x) ____  ____  ____  ____  ____  ___
 72
   65
 73
    2
 40
38.09999999999999
 49
25.4
 74
    0
 49
-12.7
 74
    0
  0
LTYPE
  5
3A
330
5
100
AcDbSymbolTableRecord
100
AcDbLinetypeTableRecord
  2
DASHDOT
 70
    0
  3
Dash dot __ . __ . __ . __ . __ . __ . __ . __
 72
   65
 73
    4
 40
25.4
 49
12.7
 74
    0
 49
-6.35
 74
    0
 49
0
 74
    0
 49
-6.35
 74
    0
  0
LTYPE
  5
3B
330
5
100
AcDbSymbolTableRecord
100
AcDbLinetypeTableRecord
  2
DASHDOTTINY
 70
    0
  3
Dash dot (.15x) _._._._._._._._._._._._._._._.
 72
   65
 73
    4
 40
3.81
 49
1.905
 74
    0
 49
-0.9525
 74
    0
 49
0
 74
    0
 49
-0.9525
 74
    0
  0
LTYPE
  5
3C
330
5
100
AcDbSymbolTableRecord
100
AcDbLinetypeTableRecord
  2
DASHDOT2
 70
    0
  3
Dash dot (.5x) _._._._._._._._._._._._._._._.
 72
   65
 73
    4
 40
12.7
 49
6.35
 74
    0
 49
-3.175
 74
    0
 49
0
 74
    0
 49
-3.175
 74
    0
  0
LTYPE
  5
3D
330
5
100
AcDbSymbolTableRecord
100
AcDbLinetypeTableRecord
  2
DASHDOTX2
 70
    0
  3
Dash dot (2x) ____  .  ____  .  ____  .  ___
 72
   65
 73
    4
 40
50.8
 49
25.4
 74
    0
 49
-12.7
 74
    0
 49
0
 74
    0
 49
-12.7
 74
    0
  0
LTYPE
  5
3E
330
5
100
AcDbSymbolTableRecord
100
AcDbLinetypeTableRecord
  2
DIVIDE
 70
    0
  3
Divide ____ . . ____ . . ____ . . ____ . . ____
 72
   65
 73
    6
 40
31.75
 49
12.7
 74
    0
 49
-6.35
 74
    0
 49
0
 74
    0
 49
-6.35
 74
    0
 49
0
 74
    0
 49
-6.35
 74
    0
  0
LTYPE
  5
3F
330
5
100
AcDbSymbolTableRecord
100
AcDbLinetypeTableRecord
  2
DIVIDETINY
 70
    0
  3
Divide (.15x) __..__..__..__..__..__..__..__.._
 72
   65
 73
    6
 40
4.7625
 49
1.905
 74
    0
 49
-0.9525
 74
    0
 49
0
 74
    0
 49
-0.9525
 74
    0
 49
0
 74
    0
 49
-0.9525
 74
    0
  0
LTYPE
  5
40
330
5
100
AcDbSymbolTableRecord
100
AcDbLinetypeTableRecord
  2
DIVIDE2
 70
    0
  3
Divide (.5x) __..__..__..__..__..__..__..__.._
 72
   65
 73
    6
 40
15.875
 49
6.35
 74
    0
 49
-3.175
 74
    0
 49
0
 74
    0
 49
-3.175
 74
    0
 49
0
 74
    0
 49
-3.175
 74
    0
  0
LTYPE
  5
41
330
5
100
AcDbSymbolTableRecord
100
AcDbLinetypeTableRecord
  2
DIVIDEX2
 70
    0
  3
Divide (2x) ________  .  .  ________  .  .  _
 72
   65
 73
    6
 40
63.5
 49
25.4
 74
    0
 49
-12.7
 74
    0
 49
0
 74
    0
 49
-12.7
 74
    0
 49
0
 74
    0
 49
-12.7
 74
    0
  0
LTYPE
  5
42
330
5
100
AcDbSymbolTableRecord
100
AcDbLinetypeTableRecord
  2
BORDER
 70
    0
  3
Border __ __ . __ __ . __ __ . __ __ . __ __ .
 72
   65
 73
    6
 40
44.45
 49
12.7
 74
    0
 49
-6.35
 74
    0
 49
12.7
 74
    0
 49
-6.35
 74
    0
 49
0
 74
    0
 49
-6.35
 74
    0
  0
LTYPE
  5
43
330
5
100
AcDbSymbolTableRecord
100
AcDbLinetypeTableRecord
  2
BORDERTINY
 70
    0
  3
Border (.15x) __.__.__.__.__.__.__.__.__.__.__.
 72
   65
 73
    6
 40
6.6675
 49
1.905
 74
    0
 49
-0.9525
 74
    0
 49
1.905
 74
    0
 49
-0.9525
 74
    0
 49
0
 74
    0
 49
-0.9525
 74
    0
  0
LTYPE
  5
44
330
5
100
AcDbSymbolTableRecord
100
AcDbLinetypeTableRecord
  2
BORDER2
 70
    0
  3
Border (.5x) __.__.__.__.__.__.__.__.__.__.__.
 72
   65
 73
    6
 40
22.225
 49
6.35
 74
    0
 49
-3.175
 74
    0
 49
6.35
 74
    0
 49
-3.175
 74
    0
 49
0
 74
    0
 49
-3.175
 74
    0
  0
LTYPE
  5
45
330
5
100
AcDbSymbolTableRecord
100
AcDbLinetypeTableRecord
  2
BORDERX2
 70
    0
  3
Border (2x) ____  ____  .  ____  ____  .  ___
 72
   65
 73
    6
 40
88.89999999999999
 49
25.4
 74
    0
 49
-12.7
 74
    0
 49
25.4
 74
    0
 49
-12.7
 74
    0
 49
0
 74
    0
 49
-12.7
 74
    0
  0
LTYPE
  5
46
330
5
100
AcDbSymbolTableRecord
100
AcDbLinetypeTableRecord
  2
CENTER
 70
    0
  3
Center ____ _ ____ _ ____ _ ____ _ ____ _ ____
 72
   65
 73
    4
 40
50.8
 49
31.75
 74
    0
 49
-6.35
 74
    0
 49
6.35
 74
    0
 49
-6.35
 74
    0
  0
LTYPE
  5
47
330
5
100
AcDbSymbolTableRecord
100
AcDbLinetypeTableRecord
  2
CENTERTINY
 70
    0
  3
Center (.15x) ___ _ ___ _ ___ _ ___ _ ___ _ ___
 72
   65
 73
    4
 40
7.619999999999999
 49
4.7625
 74
    0
 49
-0.9525
 74
    0
 49
0.9525
 74
    0
 49
-0.9525
 74
    0
  0
LTYPE
  5
48
330
5
100
AcDbSymbolTableRecord
100
AcDbLinetypeTableRecord
  2
CENTER2
 70
    0
  3
Center (.5x) ___ _ ___ _ ___ _ ___ _ ___ _ ___
 72
   65
 73
    4
 40
28.575
 49
19.05
 74
    0
 49
-3.175
 74
    0
 49
3.175
 74
    0
 49
-3.175
 74
    0
  0
LTYPE
  5
49
330
5
100
AcDbSymbolTableRecord
100
AcDbLinetypeTableRecord
  2
CENTERX2
 70
    0
  3
Center (2x) ________  __  ________  __  _____
 72
   65
 73
    4
 40
101.6
 49
63.5
 74
    0
 49
-12.7
 74
    0
 49
12.7
 74
    0
 49
-12.7
 74
    0
  0
ENDTAB
  0
TABLE
  2
LAYER
  5
2
330
0
100
AcDbSymbolTable
 70
    1
  0
LAYER
  5
10
330
2
100
AcDbSymbolTableRecord
100
AcDbLayerTableRecord
  2
0
 70
    0
 62
    7
  6
CONTINUOUS
370
   -3
390
F
  0
ENDTAB
  0
TABLE
  2
STYLE
  5
3
330
0
100
AcDbSymbolTable
 70
    3
  0
STYLE
  5
4A
330
2
100
AcDbSymbolTableRecord
100
AcDbTextStyleTableRecord
  2
宋体
 70
    0
 40
0
 41
1
 50
0
 71
    0
 42
1
  3
宋体
  4

  0
STYLE
  5
4B
330
2
100
AcDbSymbolTableRecord
100
AcDbTextStyleTableRecord
  2
Standard
 70
    0
 40
0
 41
1
 50
0
 71
    0
 42
1
  3
txt
  4

  0
ENDTAB
  0
TABLE
  2
VIEW
  5
6
330
0
100
AcDbSymbolTable
 70
    0
  0
ENDTAB
  0
TABLE
  2
UCS
  5
7
330
0
100
AcDbSymbolTable
 70
    0
  0
ENDTAB
  0
TABLE
  2
APPID
  5
9
330
0
100
AcDbSymbolTable
 70
    1
  0
APPID
  5
12
330
9
100
AcDbSymbolTableRecord
100
AcDbRegAppTableRecord
  2
ACAD
 70
    0
  0
APPID
  5
4C
330
9
100
AcDbSymbolTableRecord
100
AcDbRegAppTableRecord
  2
LibreCad
 70
    0
  0
ENDTAB
  0
TABLE
  2
DIMSTYLE
  5
A
330
0
100
AcDbSymbolTable
 70
    1
100
AcDbDimStyleTable
 71
    1
  0
DIMSTYLE
105
4D
330
A
100
AcDbSymbolTableRecord
100
AcDbDimStyleTableRecord
  2
Standard
 70
    0
 40
1
 41
0.18
 42
0.0625
 43
0.38
 44
0.18
 45
0
 46
0
 47
0
 48
0
 49
1
140
0.18
141
0.09
142
0
143
25.4
144
1
145
0
146
1
147
0.09
148
0
 71
    0
 72
    0
 73
    1
 74
    1
 75
    0
 76
    0
 77
    0
 78
    0
 79
    0
170
    0
171
    2
172
    0
173
    0
174
    0
175
    0
176
    0
177
    0
178
    0
179
    0
271
    4
272
    4
273
    2
274
    2
275
    0
276
    0
277
    2
278
   46
279
    0
280
    0
281
    0
282
    0
283
    1
284
    0
285
    0
286
    0
288
    0
289
    3
340
4B
  0
ENDTAB
  0
TABLE
  2
BLOCK_RECORD
  5
1
330
0
100
AcDbSymbolTable
 70
    2
  0
BLOCK_RECORD
  5
1F
330
1
100
AcDbSymbolTableRecord
100
AcDbBlockTableRecord
  2
*Model_Space
 70
    0
280
    1
281
    0
  0
BLOCK_RECORD
  5
1E
330
1
100
AcDbSymbolTableRecord
100
AcDbBlockTableRecord
  2
*Paper_Space
 70
    0
280
    1
281
    0
  0
ENDTAB
  0
ENDSEC
  0
SECTION
  2
BLOCKS
  0
BLOCK
  5
20
330
1F
100
AcDbEntity
  8
0
100
AcDbBlockBegin
  2
*Model_Space
 70
    0
 10
0
 20
0
 30
0
  3
*Model_Space
  1

  0
ENDBLK
  5
21
330
1F
100
AcDbEntity
  8
0
100
AcDbBlockEnd
  0
BLOCK
  5
1C
330
1B
100
AcDbEntity
  8
0
100
AcDbBlockBegin
  2
*Paper_Space
 70
    0
 10
0
 20
0
 30
0
  3
*Paper_Space
  1

  0
ENDBLK
  5
1D
330
1F
100
AcDbEntity
  8
0
100
AcDbBlockEnd
  0
ENDSEC
  0
SECTION
  2
ENTITIES
  0
TEXT
  5
4E
100
AcDbEntity
  8
0
  6
ByLayer
 62
    5
370
   -1
100
AcDbText
 10
134.62
 20
135.89
 30
0
 40
1.778
  1
2.4GHz
 50
0
 41
1.1
 51
0
  7
宋体
 71
    0
 11
134.62
 21
135.89
 31
0
210
0
220
0
230
1
100
AcDbText
 73
    1
  0
TEXT
  5
4F
100
AcDbEntity
  8
0
  6
ByLayer
 62
  176
420
  128
370
   -1
100
AcDbText
 10
134.62
 20
191.77
 30
0
 40
1.778
  1
ESP32
 50
0
 41
1.1
 51
0
  7
宋体
 71
    0
 11
134.62
 21
191.77
 31
0
210
0
220
0
230
1
100
AcDbText
 73
    1
  0
TEXT
  5
50
100
AcDbEntity
  8
0
  6
ByLayer
 62
    7
370
   -1
100
AcDbText
 10
159.0802
 20
187.72759508
 30
0
 40
1.778
  1
GND
 50
0
 41
1.1
 51
0
  7
宋体
 71
    0
 72
    2
 11
159.0802
 21
187.72759508
 31
0
210
0
220
0
230
1
100
AcDbText
 73
    1
  0
TEXT
  5
51
100
AcDbEntity
  8
0
  6
ByLayer
 62
    7
370
   -1
100
AcDbText
 10
160.147
 20
188.99759508
 30
0
 40
1.778
  1
39
 50
0
 41
1.1
 51
0
  7
宋体
 71
    0
 11
160.147
 21
188.99759508
 31
0
210
0
220
0
230
1
100
AcDbText
 73
    1
  0
LWPOLYLINE
  5
52
100
AcDbEntity
  8
0
  6
ByLayer
 62
   16
420
8912896
370
   -1
100
AcDbPolyline
 90
    2
 70
    0
 43
0
 10
162.56
 20
189.23
 10
160.02
 20
189.23
  0
TEXT
  5
53
100
AcDbEntity
  8
0
  6
ByLayer
 62
    7
370
   -1
100
AcDbText
 10
159.0802
 20
185.18759508
 30
0
 40
1.778
  1
GND
 50
0
 41
1.1
 51
0
  7
宋体
 71
    0
 72
    2
 11
159.0802
 21
185.18759508
 31
0
210
0
220
0
230
1
100
AcDbText
 73
    1
  0
TEXT
  5
54
100
AcDbEntity
  8
0
  6
ByLayer
 62
    7
370
   -1
100
AcDbText
 10
160.147
 20
186.45759508
 30
0
 40
1.778
  1
38
 50
0
 41
1.1
 51
0
  7
宋体
 71
    0
 11
160.147
 21
186.45759508
 31
0
210
0
220
0
230
1
100
AcDbText
 73
    1
  0
LWPOLYLINE
  5
55
100
AcDbEntity
  8
0
  6
ByLayer
 62
   16
420
8912896
370
   -1
100
AcDbPolyline
 90
    2
 70
    0
 43
0
 10
162.56
 20
186.69
 10
160.02
 20
186.69
  0
TEXT
  5
56
100
AcDbEntity
  8
0
  6
ByLayer
 62
    7
370
   -1
100
AcDbText
 10
159.0802
 20
182.64759508
 30
0
 40
1.778
  1
IO23
 50
0
 41
1.1
 51
0
  7
宋体
 71
    0
 72
    2
 11
159.0802
 21
182.64759508
 31
0
210
0
220
0
230
1
100
AcDbText
 73
    1
  0
TEXT
  5
57
100
AcDbEntity
  8
0
  6
ByLayer
 62
    7
370
   -1
100
AcDbText
 10
160.147
 20
183.91759508
 30
0
 40
1.778
  1
37
 50
0
 41
1.1
 51
0
  7
宋体
 71
    0
 11
160.147
 21
183.91759508
 31
0
210
0
220
0
230
1
100
AcDbText
 73
    1
  0
LWPOLYLINE
  5
58
100
AcDbEntity
  8
0
  6
ByLayer
 62
   16
420
8912896
370
   -1
100
AcDbPolyline
 90
    2
 70
    0
 43
0
 10
162.56
 20
184.15
 10
160.02
 20
184.15
  0
TEXT
  5
59
100
AcDbEntity
  8
0
  6
ByLayer
 62
    7
370
   -1
100
AcDbText
 10
159.0802
 20
180.10759508
 30
0
 40
1.778
  1
IO22
 50
0
 41
1.1
 51
0
  7
宋体
 71
    0
 72
    2
 11
159.0802
 21
180.10759508
 31
0
210
0
220
0
230
1
100
AcDbText
 73
    1
  0
TEXT
  5
5A
100
AcDbEntity
  8
0
  6
ByLayer
 62
    7
370
   -1
100
AcDbText
 10
160.147
 20
181.37759508
 30
0
 40
1.778
  1
36
 50
0
 41
1.1
 51
0
  7
宋体
 71
    0
 11
160.147
 21
181.37759508
 31
0
210
0
220
0
230
1
100
AcDbText
 73
    1
  0
LWPOLYLINE
  5
5B
100
AcDbEntity
  8
0
  6
ByLayer
 62
   16
420
8912896
370
   -1
100
AcDbPolyline
 90
    2
 70
    0
 43
0
 10
162.56
 20
181.61
 10
160.02
 20
181.61
  0
TEXT
  5
5C
100
AcDbEntity
  8
0
  6
ByLayer
 62
    7
370
   -1
100
AcDbText
 10
159.0802
 20
177.56759508
 30
0
 40
1.778
  1
TXD0
 50
0
 41
1.1
 51
0
  7
宋体
 71
    0
 72
    2
 11
159.0802
 21
177.56759508
 31
0
210
0
220
0
230
1
100
AcDbText
 73
    1
  0
TEXT
  5
5D
100
AcDbEntity
  8
0
  6
ByLayer
 62
    7
370
   -1
100
AcDbText
 10
160.147
 20
178.83759508
 30
0
 40
1.778
  1
35
 50
0
 41
1.1
 51
0
  7
宋体
 71
    0
 11
160.147
 21
178.83759508
 31
0
210
0
220
0
230
1
100
AcDbText
 73
    1
  0
LWPOLYLINE
  5
5E
100
AcDbEntity
  8
0
  6
ByLayer
 62
   16
420
8912896
370
   -1
100
AcDbPolyline
 90
    2
 70
    0
 43
0
 10
162.56
 20
179.07
 10
160.02
 20
179.07
  0
TEXT
  5
5F
100
AcDbEntity
  8
0
  6
ByLayer
 62
    7
370
   -1
100
AcDbText
 10
159.0802
 20
175.02759508
 30
0
 40
1.778
  1
RXD0
 50
0
 41
1.1
 51
0
  7
宋体
 71
    0
 72
    2
 11
159.0802
 21
175.02759508
 31
0
210
0
220
0
230
1
100
AcDbText
 73
    1
  0
TEXT
  5
60
100
AcDbEntity
  8
0
  6
ByLayer
 62
    7
370
   -1
100
AcDbText
 10
160.147
 20
176.29759508
 30
0
 40
1.778
  1
34
 50
0
 41
1.1
 51
0
  7
宋体
 71
    0
 11
160.147
 21
176.29759508
 31
0
210
0
220
0
230
1
100
AcDbText
 73
    1
  0
LWPOLYLINE
  5
61
100
AcDbEntity
  8
0
  6
ByLayer
 62
   16
420
8912896
370
   -1
100
AcDbPolyline
 90
    2
 70
    0
 43
0
 10
162.56
 20
176.53
 10
160.02
 20
176.53
  0
TEXT
  5
62
100
AcDbEntity
  8
0
  6
ByLayer
 62
    7
370
   -1
100
AcDbText
 10
159.0802
 20
172.48759508
 30
0
 40
1.778
  1
IO21
 50
0
 41
1.1
 51
0
  7
宋体
 71
    0
 72
    2
 11
159.0802
 21
172.48759508
 31
0
210
0
220
0
230
1
100
AcDbText
 73
    1
  0
TEXT
  5
63
100
AcDbEntity
  8
0
  6
ByLayer
 62
    7
370
   -1
100
AcDbText
 10
160.147
 20
173.75759508
 30
0
 40
1.778
  1
33
 50
0
 41
1.1
 51
0
  7
宋体
 71
    0
 11
160.147
 21
173.75759508
 31
0
210
0
220
0
230
1
100
AcDbText
 73
    1
  0
LWPOLYLINE
  5
64
100
AcDbEntity
  8
0
  6
ByLayer
 62
   16
420
8912896
370
   -1
100
AcDbPolyline
 90
    2
 70
    0
 43
0
 10
162.56
 20
173.99
 10
160.02
 20
173.99
  0
TEXT
  5
65
100
AcDbEntity
  8
0
  6
ByLayer
 62
    7
370
   -1
100
AcDbText
 10
159.0802
 20
169.94759508
 30
0
 40
1.778
  1
NC
 50
0
 41
1.1
 51
0
  7
宋体
 71
    0
 72
    2
 11
159.0802
 21
169.94759508
 31
0
210
0
220
0
230
1
100
AcDbText
 73
    1
  0
TEXT
  5
66
100
AcDbEntity
  8
0
  6
ByLayer
 62
    7
370
   -1
100
AcDbText
 10
160.147
 20
171.21759508
 30
0
 40
1.778
  1
32
 50
0
 41
1.1
 51
0
  7
宋体
 71
    0
 11
160.147
 21
171.21759508
 31
0
210
0
220
0
230
1
100
AcDbText
 73
    1
  0
LWPOLYLINE
  5
67
100
AcDbEntity
  8
0
  6
ByLayer
 62
   16
420
8912896
370
   -1
100
AcDbPolyline
 90
    2
 70
    0
 43
0
 10
162.56
 20
171.45
 10
160.02
 20
171.45
  0
TEXT
  5
68
100
AcDbEntity
  8
0
  6
ByLayer
 62
    7
370
   -1
100
AcDbText
 10
159.0802
 20
167.40759508
 30
0
 40
1.778
  1
IO19
 50
0
 41
1.1
 51
0
  7
宋体
 71
    0
 72
    2
 11
159.0802
 21
167.40759508
 31
0
210
0
220
0
230
1
100
AcDbText
 73
    1
  0
TEXT
  5
69
100
AcDbEntity
  8
0
  6
ByLayer
 62
    7
370
   -1
100
AcDbText
 10
160.147
 20
168.67759508
 30
0
 40
1.778
  1
31
 50
0
 41
1.1
 51
0
  7
宋体
 71
    0
 11
160.147
 21
168.67759508
 31
0
210
0
220
0
230
1
100
AcDbText
 73
    1
  0
LWPOLYLINE
  5
6A
100
AcDbEntity
  8
0
  6
ByLayer
 62
   16
420
8912896
370
   -1
100
AcDbPolyline
 90
    2
 70
    0
 43
0
 10
162.56
 20
168.91
 10
160.02
 20
168.91
  0
TEXT
  5
6B
100
AcDbEntity
  8
0
  6
ByLayer
 62
    7
370
   -1
100
AcDbText
 10
159.0802
 20
164.86759508
 30
0
 40
1.778
  1
IO18
 50
0
 41
1.1
 51
0
  7
宋体
 71
    0
 72
    2
 11
159.0802
 21
164.86759508
 31
0
210
0
220
0
230
1
100
AcDbText
 73
    1
  0
TEXT
  5
6C
100
AcDbEntity
  8
0
  6
ByLayer
 62
    7
370
   -1
100
AcDbText
 10
160.147
 20
166.13759508
 30
0
 40
1.778
  1
30
 50
0
 41
1.1
 51
0
  7
宋体
 71
    0
 11
160.147
 21
166.13759508
 31
0
210
0
220
0
230
1
100
AcDbText
 73
    1
  0
LWPOLYLINE
  5
6D
100
AcDbEntity
  8
0
  6
ByLayer
 62
   16
420
8912896
370
   -1
100
AcDbPolyline
 90
    2
 70
    0
 43
0
 10
162.56
 20
166.37
 10
160.02
 20
166.37
  0
TEXT
  5
6E
100
AcDbEntity
  8
0
  6
ByLayer
 62
    7
370
   -1
100
AcDbText
 10
159.0802
 20
162.32759508
 30
0
 40
1.778
  1
IO5
 50
0
 41
1.1
 51
0
  7
宋体
 71
    0
 72
    2
 11
159.0802
 21
162.32759508
 31
0
210
0
220
0
230
1
100
AcDbText
 73
    1
  0
TEXT
  5
6F
100
AcDbEntity
  8
0
  6
ByLayer
 62
    7
370
   -1
100
AcDbText
 10
160.147
 20
163.59759508
 30
0
 40
1.778
  1
29
 50
0
 41
1.1
 51
0
  7
宋体
 71
    0
 11
160.147
 21
163.59759508
 31
0
210
0
220
0
230
1
100
AcDbText
 73
    1
  0
LWPOLYLINE
  5
70
100
AcDbEntity
  8
0
  6
ByLayer
 62
   16
420
8912896
370
   -1
100
AcDbPolyline
 90
    2
 70
    0
 43
0
 10
162.56
 20
163.83
 10
160.02
 20
163.83
  0
TEXT
  5
71
100
AcDbEntity
  8
0
  6
ByLayer
 62
    7
370
   -1
100
AcDbText
 10
159.0802
 20
159.78759508
 30
0
 40
1.778
  1
IO17
 50
0
 41
1.1
 51
0
  7
宋体
 71
    0
 72
    2
 11
159.0802
 21
159.78759508
 31
0
210
0
220
0
230
1
100
AcDbText
 73
    1
  0
TEXT
  5
72
100
AcDbEntity
  8
0
  6
ByLayer
 62
    7
370
   -1
100
AcDbText
 10
160.147
 20
161.05759508
 30
0
 40
1.778
  1
28
 50
0
 41
1.1
 51
0
  7
宋体
 71
    0
 11
160.147
 21
161.05759508
 31
0
210
0
220
0
230
1
100
AcDbText
 73
    1
  0
LWPOLYLINE
  5
73
100
AcDbEntity
  8
0
  6
ByLayer
 62
   16
420
8912896
370
   -1
100
AcDbPolyline
 90
    2
 70
    0
 43
0
 10
162.56
 20
161.29
 10
160.02
 20
161.29
  0
TEXT
  5
74
100
AcDbEntity
  8
0
  6
ByLayer
 62
    7
370
   -1
100
AcDbText
 10
159.0802
 20
157.24759508
 30
0
 40
1.778
  1
IO16
 50
0
 41
1.1
 51
0
  7
宋体
 71
    0
 72
    2
 11
159.0802
 21
157.24759508
 31
0
210
0
220
0
230
1
100
AcDbText
 73
    1
  0
TEXT
  5
75
100
AcDbEntity
  8
0
  6
ByLayer
 62
    7
370
   -1
100
AcDbText
 10
160.147
 20
158.51759508
 30
0
 40
1.778
  1
27
 50
0
 41
1.1
 51
0
  7
宋体
 71
    0
 11
160.147
 21
158.51759508
 31
0
210
0
220
0
230
1
100
AcDbText
 73
    1
  0
LWPOLYLINE
  5
76
100
AcDbEntity
  8
0
  6
ByLayer
 62
   16
420
8912896
370
   -1
100
AcDbPolyline
 90
    2
 70
    0
 43
0
 10
162.56
 20
158.75
 10
160.02
 20
158.75
  0
TEXT
  5
77
100
AcDbEntity
  8
0
  6
ByLayer
 62
    7
370
   -1
100
AcDbText
 10
159.0802
 20
154.70759508
 30
0
 40
1.778
  1
IO4
 50
0
 41
1.1
 51
0
  7
宋体
 71
    0
 72
    2
 11
159.0802
 21
154.70759508
 31
0
210
0
220
0
230
1
100
AcDbText
 73
    1
  0
TEXT
  5
78
100
AcDbEntity
  8
0
  6
ByLayer
 62
    7
370
   -1
100
AcDbText
 10
160.147
 20
155.97759508
 30
0
 40
1.778
  1
26
 50
0
 41
1.1
 51
0
  7
宋体
 71
    0
 11
160.147
 21
155.97759508
 31
0
210
0
220
0
230
1
100
AcDbText
 73
    1
  0
LWPOLYLINE
  5
79
100
AcDbEntity
  8
0
  6
ByLayer
 62
   16
420
8912896
370
   -1
100
AcDbPolyline
 90
    2
 70
    0
 43
0
 10
162.56
 20
156.21
 10
160.02
 20
156.21
  0
TEXT
  5
7A
100
AcDbEntity
  8
0
  6
ByLayer
 62
    7
370
   -1
100
AcDbText
 10
159.0802
 20
152.16759508
 30
0
 40
1.778
  1
IO0
 50
0
 41
1.1
 51
0
  7
宋体
 71
    0
 72
    2
 11
159.0802
 21
152.16759508
 31
0
210
0
220
0
230
1
100
AcDbText
 73
    1
  0
TEXT
  5
7B
100
AcDbEntity
  8
0
  6
ByLayer
 62
    7
370
   -1
100
AcDbText
 10
160.147
 20
153.43759508
 30
0
 40
1.778
  1
25
 50
0
 41
1.1
 51
0
  7
宋体
 71
    0
 11
160.147
 21
153.43759508
 31
0
210
0
220
0
230
1
100
AcDbText
 73
    1
  0
LWPOLYLINE
  5
7C
100
AcDbEntity
  8
0
  6
ByLayer
 62
   16
420
8912896
370
   -1
100
AcDbPolyline
 90
    2
 70
    0
 43
0
 10
162.56
 20
153.67
 10
160.02
 20
153.67
  0
TEXT
  5
7D
100
AcDbEntity
  8
0
  6
ByLayer
 62
    7
370
   -1
100
AcDbText
 10
159.0802
 20
149.62759508
 30
0
 40
1.778
  1
IO2
 50
0
 41
1.1
 51
0
  7
宋体
 71
    0
 72
    2
 11
159.0802
 21
149.62759508
 31
0
210
0
220
0
230
1
100
AcDbText
 73
    1
  0
TEXT
  5
7E
100
AcDbEntity
  8
0
  6
ByLayer
 62
    7
370
   -1
100
AcDbText
 10
160.147
 20
150.89759508
 30
0
 40
1.778
  1
24
 50
0
 41
1.1
 51
0
  7
宋体
 71
    0
 11
160.147
 21
150.89759508
 31
0
210
0
220
0
230
1
100
AcDbText
 73
    1
  0
LWPOLYLINE
  5
7F
100
AcDbEntity
  8
0
  6
ByLayer
 62
   16
420
8912896
370
   -1
100
AcDbPolyline
 90
    2
 70
    0
 43
0
 10
162.56
 20
151.13
 10
160.02
 20
151.13
  0
TEXT
  5
80
100
AcDbEntity
  8
0
  6
ByLayer
 62
    7
370
   -1
100
AcDbText
 10
159.0802
 20
147.08759508
 30
0
 40
1.778
  1
IO15
 50
0
 41
1.1
 51
0
  7
宋体
 71
    0
 72
    2
 11
159.0802
 21
147.08759508
 31
0
210
0
220
0
230
1
100
AcDbText
 73
    1
  0
TEXT
  5
81
100
AcDbEntity
  8
0
  6
ByLayer
 62
    7
370
   -1
100
AcDbText
 10
160.147
 20
148.35759508
 30
0
 40
1.778
  1
23
 50
0
 41
1.1
 51
0
  7
宋体
 71
    0
 11
160.147
 21
148.35759508
 31
0
210
0
220
0
230
1
100
AcDbText
 73
    1
  0
LWPOLYLINE
  5
82
100
AcDbEntity
  8
0
  6
ByLayer
 62
   16
420
8912896
370
   -1
100
AcDbPolyline
 90
    2
 70
    0
 43
0
 10
162.56
 20
148.59
 10
160.02
 20
148.59
  0
TEXT
  5
83
100
AcDbEntity
  8
0
  6
ByLayer
 62
    7
370
   -1
100
AcDbText
 10
159.0802
 20
144.54759508
 30
0
 40
1.778
  1
SD1
 50
0
 41
1.1
 51
0
  7
宋体
 71
    0
 72
    2
 11
159.0802
 21
144.54759508
 31
0
210
0
220
0
230
1
100
AcDbText
 73
    1
  0
TEXT
  5
84
100
AcDbEntity
  8
0
  6
ByLayer
 62
    7
370
   -1
100
AcDbText
 10
160.147
 20
145.81759508
 30
0
 40
1.778
  1
22
 50
0
 41
1.1
 51
0
  7
宋体
 71
    0
 11
160.147
 21
145.81759508
 31
0
210
0
220
0
230
1
100
AcDbText
 73
    1
  0
LWPOLYLINE
  5
85
100
AcDbEntity
  8
0
  6
ByLayer
 62
   16
420
8912896
370
   -1
100
AcDbPolyline
 90
    2
 70
    0
 43
0
 10
162.56
 20
146.05
 10
160.02
 20
146.05
  0
TEXT
  5
86
100
AcDbEntity
  8
0
  6
ByLayer
 62
    7
370
   -1
100
AcDbText
 10
159.0802
 20
142.00759508
 30
0
 40
1.778
  1
SD0
 50
0
 41
1.1
 51
0
  7
宋体
 71
    0
 72
    2
 11
159.0802
 21
142.00759508
 31
0
210
0
220
0
230
1
100
AcDbText
 73
    1
  0
TEXT
  5
87
100
AcDbEntity
  8
0
  6
ByLayer
 62
    7
370
   -1
100
AcDbText
 10
160.147
 20
143.27759508
 30
0
 40
1.778
  1
21
 50
0
 41
1.1
 51
0
  7
宋体
 71
    0
 11
160.147
 21
143.27759508
 31
0
210
0
220
0
230
1
100
AcDbText
 73
    1
  0
LWPOLYLINE
  5
88
100
AcDbEntity
  8
0
  6
ByLayer
 62
   16
420
8912896
370
   -1
100
AcDbPolyline
 90
    2
 70
    0
 43
0
 10
162.56
 20
143.51
 10
160.02
 20
143.51
  0
TEXT
  5
89
100
AcDbEntity
  8
0
  6
ByLayer
 62
    7
370
   -1
100
AcDbText
 10
159.0802
 20
139.46759508
 30
0
 40
1.778
  1
CLK
 50
0
 41
1.1
 51
0
  7
宋体
 71
    0
 72
    2
 11
159.0802
 21
139.46759508
 31
0
210
0
220
0
230
1
100
AcDbText
 73
    1
  0
TEXT
  5
8A
100
AcDbEntity
  8
0
  6
ByLayer
 62
    7
370
   -1
100
AcDbText
 10
160.147
 20
140.73759508
 30
0
 40
1.778
  1
20
 50
0
 41
1.1
 51
0
  7
宋体
 71
    0
 11
160.147
 21
140.73759508
 31
0
210
0
220
0
230
1
100
AcDbText
 73
    1
  0
LWPOLYLINE
  5
8B
100
AcDbEntity
  8
0
  6
ByLayer
 62
   16
420
8912896
370
   -1
100
AcDbPolyline
 90
    2
 70
    0
 43
0
 10
162.56
 20
140.97
 10
160.02
 20
140.97
  0
TEXT
  5
8C
100
AcDbEntity
  8
0
  6
ByLayer
 62
    7
370
   -1
100
AcDbText
 10
135.5598
 20
139.46759508
 30
0
 40
1.778
  1
CMD
 50
0
 41
1.1
 51
0
  7
宋体
 71
    0
 11
135.5598
 21
139.46759508
 31
0
210
0
220
0
230
1
100
AcDbText
 73
    1
  0
TEXT
  5
8D
100
AcDbEntity
  8
0
  6
ByLayer
 62
    7
370
   -1
100
AcDbText
 10
134.493
 20
140.73759508
 30
0
 40
1.778
  1
19
 50
0
 41
1.1
 51
0
  7
宋体
 71
    0
 72
    2
 11
134.493
 21
140.73759508
 31
0
210
0
220
0
230
1
100
AcDbText
 73
    1
  0
LWPOLYLINE
  5
8E
100
AcDbEntity
  8
0
  6
ByLayer
 62
   16
420
8912896
370
   -1
100
AcDbPolyline
 90
    2
 70
    0
 43
0
 10
132.08
 20
140.97
 10
134.62
 20
140.97
  0
TEXT
  5
8F
100
AcDbEntity
  8
0
  6
ByLayer
 62
    7
370
   -1
100
AcDbText
 10
135.5598
 20
142.00759508
 30
0
 40
1.778
  1
SD3
 50
0
 41
1.1
 51
0
  7
宋体
 71
    0
 11
135.5598
 21
142.00759508
 31
0
210
0
220
0
230
1
100
AcDbText
 73
    1
  0
TEXT
  5
90
100
AcDbEntity
  8
0
  6
ByLayer
 62
    7
370
   -1
100
AcDbText
 10
134.493
 20
143.27759508
 30
0
 40
1.778
  1
18
 50
0
 41
1.1
 51
0
  7
宋体
 71
    0
 72
    2
 11
134.493
 21
143.27759508
 31
0
210
0
220
0
230
1
100
AcDbText
 73
    1
  0
LWPOLYLINE
  5
91
100
AcDbEntity
  8
0
  6
ByLayer
 62
   16
420
8912896
370
   -1
100
AcDbPolyline
 90
    2
 70
    0
 43
0
 10
132.08
 20
143.51
 10
134.62
 20
143.51
  0
TEXT
  5
92
100
AcDbEntity
  8
0
  6
ByLayer
 62
    7
370
   -1
100
AcDbText
 10
135.5598
 20
144.54759508
 30
0
 40
1.778
  1
SD2
 50
0
 41
1.1
 51
0
  7
宋体
 71
    0
 11
135.5598
 21
144.54759508
 31
0
210
0
220
0
230
1
100
AcDbText
 73
    1
  0
TEXT
  5
93
100
AcDbEntity
  8
0
  6
ByLayer
 62
    7
370
   -1
100
AcDbText
 10
134.493
 20
145.81759508
 30
0
 40
1.778
  1
17
 50
0
 41
1.1
 51
0
  7
宋体
 71
    0
 72
    2
 11
134.493
 21
145.81759508
 31
0
210
0
220
0
230
1
100
AcDbText
 73
    1
  0
LWPOLYLINE
  5
94
100
AcDbEntity
  8
0
  6
ByLayer
 62
   16
420
8912896
370
   -1
100
AcDbPolyline
 90
    2
 70
    0
 43
0
 10
132.08
 20
146.05
 10
134.62
 20
146.05
  0
TEXT
  5
95
100
AcDbEntity
  8
0
  6
ByLayer
 62
    7
370
   -1
100
AcDbText
 10
135.5598
 20
147.08759508
 30
0
 40
1.778
  1
IO13
 50
0
 41
1.1
 51
0
  7
宋体
 71
    0
 11
135.5598
 21
147.08759508
 31
0
210
0
220
0
230
1
100
AcDbText
 73
    1
  0
TEXT
  5
96
100
AcDbEntity
  8
0
  6
ByLayer
 62
    7
370
   -1
100
AcDbText
 10
134.493
 20
148.35759508
 30
0
 40
1.778
  1
16
 50
0
 41
1.1
 51
0
  7
宋体
 71
    0
 72
    2
 11
134.493
 21
148.35759508
 31
0
210
0
220
0
230
1
100
AcDbText
 73
    1
  0
LWPOLYLINE
  5
97
100
AcDbEntity
  8
0
  6
ByLayer
 62
   16
420
8912896
370
   -1
100
AcDbPolyline
 90
    2
 70
    0
 43
0
 10
132.08
 20
148.59
 10
134.62
 20
148.59
  0
TEXT
  5
98
100
AcDbEntity
  8
0
  6
ByLayer
 62
    7
370
   -1
100
AcDbText
 10
135.5598
 20
149.62759508
 30
0
 40
1.778
  1
GND
 50
0
 41
1.1
 51
0
  7
宋体
 71
    0
 11
135.5598
 21
149.62759508
 31
0
210
0
220
0
230
1
100
AcDbText
 73
    1
  0
TEXT
  5
99
100
AcDbEntity
  8
0
  6
ByLayer
 62
    7
370
   -1
100
AcDbText
 10
134.493
 20
150.89759508
 30
0
 40
1.778
  1
15
 50
0
 41
1.1
 51
0
  7
宋体
 71
    0
 72
    2
 11
134.493
 21
150.89759508
 31
0
210
0
220
0
230
1
100
AcDbText
 73
    1
  0
LWPOLYLINE
  5
9A
100
AcDbEntity
  8
0
  6
ByLayer
 62
   16
420
8912896
370
   -1
100
AcDbPolyline
 90
    2
 70
    0
 43
0
 10
132.08
 20
151.13
 10
134.62
 20
151.13
  0
TEXT
  5
9B
100
AcDbEntity
  8
0
  6
ByLayer
 62
    7
370
   -1
100
AcDbText
 10
135.5598
 20
152.16759508
 30
0
 40
1.778
  1
IO12
 50
0
 41
1.1
 51
0
  7
宋体
 71
    0
 11
135.5598
 21
152.16759508
 31
0
210
0
220
0
230
1
100
AcDbText
 73
    1
  0
TEXT
  5
9C
100
AcDbEntity
  8
0
  6
ByLayer
 62
    7
370
   -1
100
AcDbText
 10
134.493
 20
153.43759508
 30
0
 40
1.778
  1
14
 50
0
 41
1.1
 51
0
  7
宋体
 71
    0
 72
    2
 11
134.493
 21
153.43759508
 31
0
210
0
220
0
230
1
100
AcDbText
 73
    1
  0
LWPOLYLINE
  5
9D
100
AcDbEntity
  8
0
  6
ByLayer
 62
   16
420
8912896
370
   -1
100
AcDbPolyline
 90
    2
 70
    0
 43
0
 10
132.08
 20
153.67
 10
134.62
 20
153.67
  0
TEXT
  5
9E
100
AcDbEntity
  8
0
  6
ByLayer
 62
    7
370
   -1
100
AcDbText
 10
135.5598
 20
154.70759508
 30
0
 40
1.778
  1
IO14
 50
0
 41
1.1
 51
0
  7
宋体
 71
    0
 11
135.5598
 21
154.70759508
 31
0
210
0
220
0
230
1
100
AcDbText
 73
    1
  0
TEXT
  5
9F
100
AcDbEntity
  8
0
  6
ByLayer
 62
    7
370
   -1
100
AcDbText
 10
134.493
 20
155.97759508
 30
0
 40
1.778
  1
13
 50
0
 41
1.1
 51
0
  7
宋体
 71
    0
 72
    2
 11
134.493
 21
155.97759508
 31
0
210
0
220
0
230
1
100
AcDbText
 73
    1
  0
LWPOLYLINE
  5
A0
100
AcDbEntity
  8
0
  6
ByLayer
 62
   16
420
8912896
370
   -1
100
AcDbPolyline
 90
    2
 70
    0
 43
0
 10
132.08
 20
156.21
 10
134.62
 20
156.21
  0
TEXT
  5
A1
100
AcDbEntity
  8
0
  6
ByLayer
 62
    7
370
   -1
100
AcDbText
 10
135.5598
 20
157.24759508
 30
0
 40
1.778
  1
IO27
 50
0
 41
1.1
 51
0
  7
宋体
 71
    0
 11
135.5598
 21
157.24759508
 31
0
210
0
220
0
230
1
100
AcDbText
 73
    1
  0
TEXT
  5
A2
100
AcDbEntity
  8
0
  6
ByLayer
 62
    7
370
   -1
100
AcDbText
 10
134.493
 20
158.51759508
 30
0
 40
1.778
  1
12
 50
0
 41
1.1
 51
0
  7
宋体
 71
    0
 72
    2
 11
134.493
 21
158.51759508
 31
0
210
0
220
0
230
1
100
AcDbText
 73
    1
  0
LWPOLYLINE
  5
A3
100
AcDbEntity
  8
0
  6
ByLayer
 62
   16
420
8912896
370
   -1
100
AcDbPolyline
 90
    2
 70
    0
 43
0
 10
132.08
 20
158.75
 10
134.62
 20
158.75
  0
TEXT
  5
A4
100
AcDbEntity
  8
0
  6
ByLayer
 62
    7
370
   -1
100
AcDbText
 10
135.5598
 20
159.78759508
 30
0
 40
1.778
  1
IO26
 50
0
 41
1.1
 51
0
  7
宋体
 71
    0
 11
135.5598
 21
159.78759508
 31
0
210
0
220
0
230
1
100
AcDbText
 73
    1
  0
TEXT
  5
A5
100
AcDbEntity
  8
0
  6
ByLayer
 62
    7
370
   -1
100
AcDbText
 10
134.493
 20
161.05759508
 30
0
 40
1.778
  1
11
 50
0
 41
1.1
 51
0
  7
宋体
 71
    0
 72
    2
 11
134.493
 21
161.05759508
 31
0
210
0
220
0
230
1
100
AcDbText
 73
    1
  0
LWPOLYLINE
  5
A6
100
AcDbEntity
  8
0
  6
ByLayer
 62
   16
420
8912896
370
   -1
100
AcDbPolyline
 90
    2
 70
    0
 43
0
 10
132.08
 20
161.29
 10
134.62
 20
161.29
  0
TEXT
  5
A7
100
AcDbEntity
  8
0
  6
ByLayer
 62
    7
370
   -1
100
AcDbText
 10
135.5598
 20
162.32759508
 30
0
 40
1.778
  1
IO25
 50
0
 41
1.1
 51
0
  7
宋体
 71
    0
 11
135.5598
 21
162.32759508
 31
0
210
0
220
0
230
1
100
AcDbText
 73
    1
  0
TEXT
  5
A8
100
AcDbEntity
  8
0
  6
ByLayer
 62
    7
370
   -1
100
AcDbText
 10
134.493
 20
163.59759508
 30
0
 40
1.778
  1
10
 50
0
 41
1.1
 51
0
  7
宋体
 71
    0
 72
    2
 11
134.493
 21
163.59759508
 31
0
210
0
220
0
230
1
100
AcDbText
 73
    1
  0
LWPOLYLINE
  5
A9
100
AcDbEntity
  8
0
  6
ByLayer
 62
   16
420
8912896
370
   -1
100
AcDbPolyline
 90
    2
 70
    0
 43
0
 10
132.08
 20
163.83
 10
134.62
 20
163.83
  0
TEXT
  5
AA
100
AcDbEntity
  8
0
  6
ByLayer
 62
    7
370
   -1
100
AcDbText
 10
135.5598
 20
164.86759508
 30
0
 40
1.778
  1
IO33
 50
0
 41
1.1
 51
0
  7
宋体
 71
    0
 11
135.5598
 21
164.86759508
 31
0
210
0
220
0
230
1
100
AcDbText
 73
    1
  0
TEXT
  5
AB
100
AcDbEntity
  8
0
  6
ByLayer
 62
    7
370
   -1
100
AcDbText
 10
134.493
 20
166.13759508
 30
0
 40
1.778
  1
9
 50
0
 41
1.1
 51
0
  7
宋体
 71
    0
 72
    2
 11
134.493
 21
166.13759508
 31
0
210
0
220
0
230
1
100
AcDbText
 73
    1
  0
LWPOLYLINE
  5
AC
100
AcDbEntity
  8
0
  6
ByLayer
 62
   16
420
8912896
370
   -1
100
AcDbPolyline
 90
    2
 70
    0
 43
0
 10
132.08
 20
166.37
 10
134.62
 20
166.37
  0
TEXT
  5
AD
100
AcDbEntity
  8
0
  6
ByLayer
 62
    7
370
   -1
100
AcDbText
 10
135.5598
 20
167.40759508
 30
0
 40
1.778
  1
IO32
 50
0
 41
1.1
 51
0
  7
宋体
 71
    0
 11
135.5598
 21
167.40759508
 31
0
210
0
220
0
230
1
100
AcDbText
 73
    1
  0
TEXT
  5
AE
100
AcDbEntity
  8
0
  6
ByLayer
 62
    7
370
   -1
100
AcDbText
 10
134.493
 20
168.67759508
 30
0
 40
1.778
  1
8
 50
0
 41
1.1
 51
0
  7
宋体
 71
    0
 72
    2
 11
134.493
 21
168.67759508
 31
0
210
0
220
0
230
1
100
AcDbText
 73
    1
  0
LWPOLYLINE
  5
AF
100
AcDbEntity
  8
0
  6
ByLayer
 62
   16
420
8912896
370
   -1
100
AcDbPolyline
 90
    2
 70
    0
 43
0
 10
132.08
 20
168.91
 10
134.62
 20
168.91
  0
TEXT
  5
B0
100
AcDbEntity
  8
0
  6
ByLayer
 62
    7
370
   -1
100
AcDbText
 10
135.5598
 20
169.94759508
 30
0
 40
1.778
  1
IO35
 50
0
 41
1.1
 51
0
  7
宋体
 71
    0
 11
135.5598
 21
169.94759508
 31
0
210
0
220
0
230
1
100
AcDbText
 73
    1
  0
TEXT
  5
B1
100
AcDbEntity
  8
0
  6
ByLayer
 62
    7
370
   -1
100
AcDbText
 10
134.493
 20
171.21759508
 30
0
 40
1.778
  1
7
 50
0
 41
1.1
 51
0
  7
宋体
 71
    0
 72
    2
 11
134.493
 21
171.21759508
 31
0
210
0
220
0
230
1
100
AcDbText
 73
    1
  0
LWPOLYLINE
  5
B2
100
AcDbEntity
  8
0
  6
ByLayer
 62
   16
420
8912896
370
   -1
100
AcDbPolyline
 90
    2
 70
    0
 43
0
 10
132.08
 20
171.45
 10
134.62
 20
171.45
  0
TEXT
  5
B3
100
AcDbEntity
  8
0
  6
ByLayer
 62
    7
370
   -1
100
AcDbText
 10
135.5598
 20
172.48759508
 30
0
 40
1.778
  1
IO34
 50
0
 41
1.1
 51
0
  7
宋体
 71
    0
 11
135.5598
 21
172.48759508
 31
0
210
0
220
0
230
1
100
AcDbText
 73
    1
  0
TEXT
  5
B4
100
AcDbEntity
  8
0
  6
ByLayer
 62
    7
370
   -1
100
AcDbText
 10
134.493
 20
173.75759508
 30
0
 40
1.778
  1
6
 50
0
 41
1.1
 51
0
  7
宋体
 71
    0
 72
    2
 11
134.493
 21
173.75759508
 31
0
210
0
220
0
230
1
100
AcDbText
 73
    1
  0
LWPOLYLINE
  5
B5
100
AcDbEntity
  8
0
  6
ByLayer
 62
   16
420
8912896
370
   -1
100
AcDbPolyline
 90
    2
 70
    0
 43
0
 10
132.08
 20
173.99
 10
134.62
 20
173.99
  0
TEXT
  5
B6
100
AcDbEntity
  8
0
  6
ByLayer
 62
    7
370
   -1
100
AcDbText
 10
135.5598
 20
175.02759508
 30
0
 40
1.778
  1
SENSOR_VN
 50
0
 41
1.1
 51
0
  7
宋体
 71
    0
 11
135.5598
 21
175.02759508
 31
0
210
0
220
0
230
1
100
AcDbText
 73
    1
  0
TEXT
  5
B7
100
AcDbEntity
  8
0
  6
ByLayer
 62
    7
370
   -1
100
AcDbText
 10
134.493
 20
176.29759508
 30
0
 40
1.778
  1
5
 50
0
 41
1.1
 51
0
  7
宋体
 71
    0
 72
    2
 11
134.493
 21
176.29759508
 31
0
210
0
220
0
230
1
100
AcDbText
 73
    1
  0
LWPOLYLINE
  5
B8
100
AcDbEntity
  8
0
  6
ByLayer
 62
   16
420
8912896
370
   -1
100
AcDbPolyline
 90
    2
 70
    0
 43
0
 10
132.08
 20
176.53
 10
134.62
 20
176.53
  0
TEXT
  5
B9
100
AcDbEntity
  8
0
  6
ByLayer
 62
    7
370
   -1
100
AcDbText
 10
135.5598
 20
177.56759508
 30
0
 40
1.778
  1
SENSOR_VP
 50
0
 41
1.1
 51
0
  7
宋体
 71
    0
 11
135.5598
 21
177.56759508
 31
0
210
0
220
0
230
1
100
AcDbText
 73
    1
  0
TEXT
  5
BA
100
AcDbEntity
  8
0
  6
ByLayer
 62
    7
370
   -1
100
AcDbText
 10
134.493
 20
178.83759508
 30
0
 40
1.778
  1
4
 50
0
 41
1.1
 51
0
  7
宋体
 71
    0
 72
    2
 11
134.493
 21
178.83759508
 31
0
210
0
220
0
230
1
100
AcDbText
 73
    1
  0
LWPOLYLINE
  5
BB
100
AcDbEntity
  8
0
  6
ByLayer
 62
   16
420
8912896
370
   -1
100
AcDbPolyline
 90
    2
 70
    0
 43
0
 10
132.08
 20
179.07
 10
134.62
 20
179.07
  0
TEXT
  5
BC
100
AcDbEntity
  8
0
  6
ByLayer
 62
    7
370
   -1
100
AcDbText
 10
135.5598
 20
180.10759508
 30
0
 40
1.778
  1
EN
 50
0
 41
1.1
 51
0
  7
宋体
 71
    0
 11
135.5598
 21
180.10759508
 31
0
210
0
220
0
230
1
100
AcDbText
 73
    1
  0
TEXT
  5
BD
100
AcDbEntity
  8
0
  6
ByLayer
 62
    7
370
   -1
100
AcDbText
 10
134.493
 20
181.37759508
 30
0
 40
1.778
  1
3
 50
0
 41
1.1
 51
0
  7
宋体
 71
    0
 72
    2
 11
134.493
 21
181.37759508
 31
0
210
0
220
0
230
1
100
AcDbText
 73
    1
  0
LWPOLYLINE
  5
BE
100
AcDbEntity
  8
0
  6
ByLayer
 62
   16
420
8912896
370
   -1
100
AcDbPolyline
 90
    2
 70
    0
 43
0
 10
132.08
 20
181.61
 10
134.62
 20
181.61
  0
TEXT
  5
BF
100
AcDbEntity
  8
0
  6
ByLayer
 62
    7
370
   -1
100
AcDbText
 10
135.5598
 20
182.64759508
 30
0
 40
1.778
  1
VDD33
 50
0
 41
1.1
 51
0
  7
宋体
 71
    0
 11
135.5598
 21
182.64759508
 31
0
210
0
220
0
230
1
100
AcDbText
 73
    1
  0
TEXT
  5
C0
100
AcDbEntity
  8
0
  6
ByLayer
 62
    7
370
   -1
100
AcDbText
 10
134.493
 20
183.91759508
 30
0
 40
1.778
  1
2
 50
0
 41
1.1
 51
0
  7
宋体
 71
    0
 72
    2
 11
134.493
 21
183.91759508
 31
0
210
0
220
0
230
1
100
AcDbText
 73
    1
  0
LWPOLYLINE
  5
C1
100
AcDbEntity
  8
0
  6
ByLayer
 62
   16
420
8912896
370
   -1
100
AcDbPolyline
 90
    2
 70
    0
 43
0
 10
132.08
 20
184.15
 10
134.62
 20
184.15
  0
TEXT
  5
C2
100
AcDbEntity
  8
0
  6
ByLayer
 62
    7
370
   -1
100
AcDbText
 10
135.5598
 20
185.18759508
 30
0
 40
1.778
  1
GND
 50
0
 41
1.1
 51
0
  7
宋体
 71
    0
 11
135.5598
 21
185.18759508
 31
0
210
0
220
0
230
1
100
AcDbText
 73
    1
  0
TEXT
  5
C3
100
AcDbEntity
  8
0
  6
ByLayer
 62
    7
370
   -1
100
AcDbText
 10
134.493
 20
186.45759508
 30
0
 40
1.778
  1
1
 50
0
 41
1.1
 51
0
  7
宋体
 71
    0
 72
    2
 11
134.493
 21
186.45759508
 31
0
210
0
220
0
230
1
100
AcDbText
 73
    1
  0
LWPOLYLINE
  5
C4
100
AcDbEntity
  8
0
  6
ByLayer
 62
   16
420
8912896
370
   -1
100
AcDbPolyline
 90
    2
 70
    0
 43
0
 10
132.08
 20
186.69
 10
134.62
 20
186.69
  0
CIRCLE
  5
C5
100
AcDbEntity
  8
0
  6
ByLayer
 62
   14
420
10485760
370
    0
100
AcDbCircle
 10
135.89
 20
187.96
 40
0.381
  0
LWPOLYLINE
  5
C6
100
AcDbEntity
  8
0
  6
ByLayer
 62
   14
420
10485760
370
   -1
100
AcDbPolyline
 90
    4
 70
    1
 43
0
 10
134.62
 20
190.5
 10
160.02
 20
190.5
 10
160.02
 20
138.43
 10
134.62
 20
138.43
  0
TEXT
  5
C7
100
AcDbEntity
  8
0
  6
ByLayer
 62
    5
370
   -1
100
AcDbText
 10
241.3
 20
187.96
 30
0
 40
1.778
  1
2.3kHz
 50
0
 41
1.1
 51
0
  7
宋体
 71
    0
 11
241.3
 21
187.96
 31
0
210
0
220
0
230
1
100
AcDbText
 73
    1
  0
TEXT
  5
C8
100
AcDbEntity
  8
0
  6
ByLayer
 62
  176
420
  128
370
   -1
100
AcDbText
 10
241.3
 20
198.12
 30
0
 40
1.778
  1
BUZZER1
 50
0
 41
1.1
 51
0
  7
宋体
 71
    0
 11
241.3
 21
198.12
 31
0
210
0
220
0
230
1
100
AcDbText
 73
    1
  0
TEXT
  5
C9
100
AcDbEntity
  8
0
  6
ByLayer
 62
    7
370
   -1
100
AcDbText
 10
242.062
 20
194.33159508
 30
0
 40
1.778
  1
+
 50
0
 41
1.1
 51
0
  7
宋体
 71
    0
 11
242.062
 21
194.33159508
 31
0
210
0
220
0
230
1
100
AcDbText
 73
    1
  0
LWPOLYLINE
  5
CA
100
AcDbEntity
  8
0
  6
ByLayer
 62
   16
420
8912896
370
   -1
100
AcDbPolyline
 90
    2
 70
    0
 43
0
 10
238.76
 20
195.58
 10
241.3
 20
195.58
  0
LWPOLYLINE
  5
CB
100
AcDbEntity
  8
0
  6
ByLayer
 62
   16
420
8912896
370
   -1
100
AcDbPolyline
 90
    2
 70
    0
 43
0
 10
238.76
 20
193.04
 10
241.3
 20
193.04
  0
LWPOLYLINE
  5
CC
100
AcDbEntity
  8
0
  6
ByLayer
 62
   14
420
10485760
370
   -1
100
AcDbPolyline
 90
    2
 70
    0
 43
0
 10
246.126
 20
198.12
 10
243.84
 20
196.088
  0
LWPOLYLINE
  5
CD
100
AcDbEntity
  8
0
  6
ByLayer
 62
   14
420
10485760
370
   -1
100
AcDbPolyline
 90
    2
 70
    0
 43
0
 10
243.84
 20
192.532
 10
246.126
 20
190.5
  0
LWPOLYLINE
  5
CE
100
AcDbEntity
  8
0
  6
ByLayer
 62
   14
420
10485760
370
   -1
100
AcDbPolyline
 90
    2
 70
    0
 43
0
 10
246.126
 20
198.12
 10
246.126
 20
190.5
  0
LWPOLYLINE
  5
CF
100
AcDbEntity
  8
0
  6
ByLayer
 62
   14
420
10485760
370
   -1
100
AcDbPolyline
 90
    2
 70
    0
 43
0
 10
243.84
 20
196.088
 10
243.84
 20
192.532
  0
LWPOLYLINE
  5
D0
100
AcDbEntity
  8
0
  6
ByLayer
 62
   14
420
10485760
370
   -1
100
AcDbPolyline
 90
    2
 70
    0
 43
0
 10
241.3
 20
196.088
 10
241.3
 20
192.532
  0
LWPOLYLINE
  5
D1
100
AcDbEntity
  8
0
  6
ByLayer
 62
   14
420
10485760
370
   -1
100
AcDbPolyline
 90
    2
 70
    0
 43
0
 10
241.3
 20
192.532
 10
243.84
 20
192.532
  0
LWPOLYLINE
  5
D2
100
AcDbEntity
  8
0
  6
ByLayer
 62
   14
420
10485760
370
   -1
100
AcDbPolyline
 90
    2
 70
    0
 43
0
 10
241.3
 20
196.088
 10
243.84
 20
196.088
  0
TEXT
  5
D3
100
AcDbEntity
  8
0
  6
ByLayer
 62
  176
420
  128
370
   -1
100
AcDbText
 10
176.53
 20
203.2
 30
0
 40
1.778
  1
GND
 50
0
 41
1.1
 51
0
  7
宋体
 71
    0
 72
    1
 11
176.53
 21
203.2
 31
0
210
0
220
0
230
1
100
AcDbText
 73
    2
  0
LWPOLYLINE
  5
D4
100
AcDbEntity
  8
0
  6
ByLayer
 62
   16
420
8912896
370
   -1
100
AcDbPolyline
 90
    2
 70
    0
 43
0
 10
176.53
 20
196.85
 10
176.53
 20
199.39
  0
LWPOLYLINE
  5
D5
100
AcDbEntity
  8
0
  6
ByLayer
 62
   14
420
10485760
370
   -1
100
AcDbPolyline
 90
    2
 70
    0
 43
0
 10
173.99
 20
199.39
 10
179.07
 20
199.39
  0
LWPOLYLINE
  5
D6
100
AcDbEntity
  8
0
  6
ByLayer
 62
   14
420
10485760
370
   -1
100
AcDbPolyline
 90
    2
 70
    0
 43
0
 10
176.276
 20
201.676
 10
176.784
 20
201.676
  0
LWPOLYLINE
  5
D7
100
AcDbEntity
  8
0
  6
ByLayer
 62
   14
420
10485760
370
   -1
100
AcDbPolyline
 90
    2
 70
    0
 43
0
 10
175.514
 20
200.914
 10
177.546
 20
200.914
  0
LWPOLYLINE
  5
D8
100
AcDbEntity
  8
0
  6
ByLayer
 62
   14
420
10485760
370
   -1
100
AcDbPolyline
 90
    2
 70
    0
 43
0
 10
174.752
 20
200.152
 10
178.308
 20
200.152
  0
TEXT
  5
D9
100
AcDbEntity
  8
0
  6
ByLayer
 62
    5
370
   -1
100
AcDbText
 10
72.39
 20
78.73999999999999
 30
0
 40
1.778
  1
AMS1117CD-3.3
 50
0
 41
1.1
 51
0
  7
宋体
 71
    0
 11
72.39
 21
78.73999999999999
 31
0
210
0
220
0
230
1
100
AcDbText
 73
    1
  0
TEXT
  5
DA
100
AcDbEntity
  8
0
  6
ByLayer
 62
  176
420
  128
370
   -1
100
AcDbText
 10
72.39
 20
88.90000000000001
 30
0
 40
1.778
  1
U5
 50
0
 41
1.1
 51
0
  7
宋体
 71
    0
 11
72.39
 21
88.90000000000001
 31
0
210
0
220
0
230
1
100
AcDbText
 73
    1
  0
LWPOLYLINE
  5
DB
100
AcDbEntity
  8
0
  6
ByLayer
 62
   14
420
10485760
370
   -1
100
AcDbPolyline
 90
    4
 70
    1
 43
0
 10
72.39
 20
88.90000000000001
 10
87.63000000000001
 20
88.90000000000001
 10
87.63000000000001
 20
81.28
 10
72.39
 20
81.28
  0
ELLIPSE
  5
DC
100
AcDbEntity
  8
0
  6
ByLayer
 62
    7
370
   -1
100
AcDbEllipse
 10
73.66000000000001
 20
87.63000000000001
 30
0
 11
0
 21
0.381
 31
0
 40
1
 41
0
 42
6.283185307179586
  0
TEXT
  5
DD
100
AcDbEntity
  8
0
  6
ByLayer
 62
    7
370
   -1
100
AcDbText
 10
73.32980000000001
 20
84.85759508000001
 30
0
 40
1.778
  1
GND
 50
0
 41
1.1
 51
0
  7
宋体
 71
    0
 11
73.32980000000001
 21
84.85759508000001
 31
0
210
0
220
0
230
1
100
AcDbText
 73
    1
  0
TEXT
  5
DE
100
AcDbEntity
  8
0
  6
ByLayer
 62
    7
370
   -1
100
AcDbText
 10
72.26300000000001
 20
86.12759508000001
 30
0
 40
1.778
  1
1
 50
0
 41
1.1
 51
0
  7
宋体
 71
    0
 72
    2
 11
72.26300000000001
 21
86.12759508000001
 31
0
210
0
220
0
230
1
100
AcDbText
 73
    1
  0
LWPOLYLINE
  5
DF
100
AcDbEntity
  8
0
  6
ByLayer
 62
   16
420
8912896
370
   -1
100
AcDbPolyline
 90
    2
 70
    0
 43
0
 10
69.85000000000001
 20
86.36
 10
72.39000000000001
 20
86.36
  0
TEXT
  5
E0
100
AcDbEntity
  8
0
  6
ByLayer
 62
    7
370
   -1
100
AcDbText
 10
73.32980000000001
 20
82.31759508
 30
0
 40
1.778
  1
VOUT
 50
0
 41
1.1
 51
0
  7
宋体
 71
    0
 11
73.32980000000001
 21
82.31759508
 31
0
210
0
220
0
230
1
100
AcDbText
 73
    1
  0
TEXT
  5
E1
100
AcDbEntity
  8
0
  6
ByLayer
 62
    7
370
   -1
100
AcDbText
 10
72.26300000000001
 20
83.58759508
 30
0
 40
1.778
  1
2
 50
0
 41
1.1
 51
0
  7
宋体
 71
    0
 72
    2
 11
72.26300000000001
 21
83.58759508
 31
0
210
0
220
0
230
1
100
AcDbText
 73
    1
  0
LWPOLYLINE
  5
E2
100
AcDbEntity
  8
0
  6
ByLayer
 62
   16
420
8912896
370
   -1
100
AcDbPolyline
 90
    2
 70
    0
 43
0
 10
69.85000000000001
 20
83.82000000000001
 10
72.39000000000001
 20
83.82000000000001
  0
TEXT
  5
E3
100
AcDbEntity
  8
0
  6
ByLayer
 62
    7
370
   -1
100
AcDbText
 10
86.6902
 20
82.31759508
 30
0
 40
1.778
  1
VIN
 50
0
 41
1.1
 51
0
  7
宋体
 71
    0
 72
    2
 11
86.6902
 21
82.31759508
 31
0
210
0
220
0
230
1
100
AcDbText
 73
    1
  0
TEXT
  5
E4
100
AcDbEntity
  8
0
  6
ByLayer
 62
    7
370
   -1
100
AcDbText
 10
87.75700000000001
 20
83.58759508
 30
0
 40
1.778
  1
3
 50
0
 41
1.1
 51
0
  7
宋体
 71
    0
 11
87.75700000000001
 21
83.58759508
 31
0
210
0
220
0
230
1
100
AcDbText
 73
    1
  0
LWPOLYLINE
  5
E5
100
AcDbEntity
  8
0
  6
ByLayer
 62
   16
420
8912896
370
   -1
100
AcDbPolyline
 90
    2
 70
    0
 43
0
 10
90.17
 20
83.82000000000001
 10
87.63
 20
83.82000000000001
  0
TEXT
  5
E6
100
AcDbEntity
  8
0
  6
ByLayer
 62
    5
370
   -1
100
AcDbText
 10
97.79000000000001
 20
157.48
 30
0
 40
1.778
  1
TS-1088-AR02016
 50
0
 41
1.1
 51
0
  7
宋体
 71
    0
 11
97.79000000000001
 21
157.48
 31
0
210
0
220
0
230
1
100
AcDbText
 73
    1
  0
TEXT
  5
E7
100
AcDbEntity
  8
0
  6
ByLayer
 62
  176
420
  128
370
   -1
100
AcDbText
 10
100.33
 20
163.83
 30
0
 40
1.778
  1
reset1
 50
0
 41
1.1
 51
0
  7
宋体
 71
    0
 11
100.33
 21
163.83
 31
0
210
0
220
0
230
1
100
AcDbText
 73
    1
  0
TEXT
  5
E8
100
AcDbEntity
  8
0
  6
ByLayer
 62
    7
370
   -1
100
AcDbText
 10
100.33
 20
161.05759508
 30
0
 40
1.778
  1
2
 50
0
 41
1.1
 51
0
  7
宋体
 71
    0
 11
100.33
 21
161.05759508
 31
0
210
0
220
0
230
1
100
AcDbText
 73
    1
  0
LWPOLYLINE
  5
E9
100
AcDbEntity
  8
0
  6
ByLayer
 62
   16
420
8912896
370
   -1
100
AcDbPolyline
 90
    2
 70
    0
 43
0
 10
97.78999999999999
 20
161.29
 10
100.33
 20
161.29
  0
TEXT
  5
EA
100
AcDbEntity
  8
0
  6
ByLayer
 62
    7
370
   -1
100
AcDbText
 10
110.49
 20
161.05759508
 30
0
 40
1.778
  1
1
 50
0
 41
1.1
 51
0
  7
宋体
 71
    0
 72
    2
 11
110.49
 21
161.05759508
 31
0
210
0
220
0
230
1
100
AcDbText
 73
    1
  0
LWPOLYLINE
  5
EB
100
AcDbEntity
  8
0
  6
ByLayer
 62
   16
420
8912896
370
   -1
100
AcDbPolyline
 90
    2
 70
    0
 43
0
 10
113.03
 20
161.29
 10
110.49
 20
161.29
  0
LWPOLYLINE
  5
EC
100
AcDbEntity
  8
0
  6
ByLayer
 62
   14
420
10485760
370
   -1
100
AcDbPolyline
 90
    2
 70
    0
 43
0
 10
107.696
 20
161.798
 10
103.378
 20
163.068
  0
LWPOLYLINE
  5
ED
100
AcDbEntity
  8
0
  6
ByLayer
 62
   14
420
10485760
370
   -1
100
AcDbPolyline
 90
    2
 70
    0
 43
0
 10
100.33
 20
161.29
 10
102.87
 20
161.29
  0
LWPOLYLINE
  5
EE
100
AcDbEntity
  8
0
  6
ByLayer
 62
   14
420
10485760
370
   -1
100
AcDbPolyline
 90
    2
 70
    0
 43
0
 10
110.49
 20
161.29
 10
107.95
 20
161.29
  0
ELLIPSE
  5
EF
100
AcDbEntity
  8
0
  6
ByLayer
 62
    7
370
   -1
100
AcDbEllipse
 10
103.378
 20
161.29
 30
0
 11
0
 21
0.508
 31
0
 40
1
 41
0
 42
6.283185307179586
  0
ELLIPSE
  5
F0
100
AcDbEntity
  8
0
  6
ByLayer
 62
    7
370
   -1
100
AcDbEllipse
 10
107.442
 20
161.29
 30
0
 11
0
 21
0.508
 31
0
 40
1
 41
0
 42
6.283185307179586
  0
TEXT
  5
F1
100
AcDbEntity
  8
0
  6
ByLayer
 62
    5
370
   -1
100
AcDbText
 10
196.85
 20
149.86
 30
0
 40
1.778
  1
TS-1088-AR02016
 50
0
 41
1.1
 51
0
  7
宋体
 71
    0
 11
196.85
 21
149.86
 31
0
210
0
220
0
230
1
100
AcDbText
 73
    1
  0
TEXT
  5
F2
100
AcDbEntity
  8
0
  6
ByLayer
 62
  176
420
  128
370
   -1
100
AcDbText
 10
196.85
 20
156.21
 30
0
 40
1.778
  1
Boot1
 50
0
 41
1.1
 51
0
  7
宋体
 71
    0
 11
196.85
 21
156.21
 31
0
210
0
220
0
230
1
100
AcDbText
 73
    1
  0
TEXT
  5
F3
100
AcDbEntity
  8
0
  6
ByLayer
 62
    7
370
   -1
100
AcDbText
 10
207.01
 20
153.43759508
 30
0
 40
1.778
  1
2
 50
0
 41
1.1
 51
0
  7
宋体
 71
    0
 11
207.01
 21
153.43759508
 31
0
210
0
220
0
230
1
100
AcDbText
 73
    1
  0
LWPOLYLINE
  5
F4
100
AcDbEntity
  8
0
  6
ByLayer
 62
   16
420
8912896
370
   -1
100
AcDbPolyline
 90
    2
 70
    0
 43
0
 10
209.55
 20
153.67
 10
207.01
 20
153.67
  0
TEXT
  5
F5
100
AcDbEntity
  8
0
  6
ByLayer
 62
    7
370
   -1
100
AcDbText
 10
196.85
 20
153.43759508
 30
0
 40
1.778
  1
1
 50
0
 41
1.1
 51
0
  7
宋体
 71
    0
 72
    2
 11
196.85
 21
153.43759508
 31
0
210
0
220
0
230
1
100
AcDbText
 73
    1
  0
LWPOLYLINE
  5
F6
100
AcDbEntity
  8
0
  6
ByLayer
 62
   16
420
8912896
370
   -1
100
AcDbPolyline
 90
    2
 70
    0
 43
0
 10
194.31
 20
153.67
 10
196.85
 20
153.67
  0
LWPOLYLINE
  5
F7
100
AcDbEntity
  8
0
  6
ByLayer
 62
   14
420
10485760
370
   -1
100
AcDbPolyline
 90
    2
 70
    0
 43
0
 10
199.644
 20
154.178
 10
203.962
 20
155.448
  0
LWPOLYLINE
  5
F8
100
AcDbEntity
  8
0
  6
ByLayer
 62
   14
420
10485760
370
   -1
100
AcDbPolyline
 90
    2
 70
    0
 43
0
 10
207.01
 20
153.67
 10
204.47
 20
153.67
  0
LWPOLYLINE
  5
F9
100
AcDbEntity
  8
0
  6
ByLayer
 62
   14
420
10485760
370
   -1
100
AcDbPolyline
 90
    2
 70
    0
 43
0
 10
196.85
 20
153.67
 10
199.39
 20
153.67
  0
ELLIPSE
  5
FA
100
AcDbEntity
  8
0
  6
ByLayer
 62
    7
370
   -1
100
AcDbEllipse
 10
203.962
 20
153.67
 30
0
 11
0
 21
0.508
 31
0
 40
1
 41
0
 42
6.283185307179586
  0
ELLIPSE
  5
FB
100
AcDbEntity
  8
0
  6
ByLayer
 62
    7
370
   -1
100
AcDbEllipse
 10
199.898
 20
153.67
 30
0
 11
0
 21
0.508
 31
0
 40
1
 41
0
 42
6.283185307179586
  0
TEXT
  5
FC
100
AcDbEntity
  8
0
  6
ByLayer
 62
    5
370
   -1
100
AcDbText
 10
234.95
 20
171.45
 30
0
 40
1.778
  1
TS-1088-AR02016
 50
0
 41
1.1
 51
0
  7
宋体
 71
    0
 11
234.95
 21
171.45
 31
0
210
0
220
0
230
1
100
AcDbText
 73
    1
  0
TEXT
  5
FD
100
AcDbEntity
  8
0
  6
ByLayer
 62
  176
420
  128
370
   -1
100
AcDbText
 10
234.95
 20
177.8
 30
0
 40
1.778
  1
SW6
 50
0
 41
1.1
 51
0
  7
宋体
 71
    0
 11
234.95
 21
177.8
 31
0
210
0
220
0
230
1
100
AcDbText
 73
    1
  0
TEXT
  5
FE
100
AcDbEntity
  8
0
  6
ByLayer
 62
    7
370
   -1
100
AcDbText
 10
245.11
 20
175.02759508
 30
0
 40
1.778
  1
2
 50
0
 41
1.1
 51
0
  7
宋体
 71
    0
 11
245.11
 21
175.02759508
 31
0
210
0
220
0
230
1
100
AcDbText
 73
    1
  0
LWPOLYLINE
  5
FF
100
AcDbEntity
  8
0
  6
ByLayer
 62
   16
420
8912896
370
   -1
100
AcDbPolyline
 90
    2
 70
    0
 43
0
 10
247.65
 20
175.26
 10
245.11
 20
175.26
  0
TEXT
  5
100
100
AcDbEntity
  8
0
  6
ByLayer
 62
    7
370
   -1
100
AcDbText
 10
234.95
 20
175.02759508
 30
0
 40
1.778
  1
1
 50
0
 41
1.1
 51
0
  7
宋体
 71
    0
 72
    2
 11
234.95
 21
175.02759508
 31
0
210
0
220
0
230
1
100
AcDbText
 73
    1
  0
LWPOLYLINE
  5
101
100
AcDbEntity
  8
0
  6
ByLayer
 62
   16
420
8912896
370
   -1
100
AcDbPolyline
 90
    2
 70
    0
 43
0
 10
232.41
 20
175.26
 10
234.95
 20
175.26
  0
LWPOLYLINE
  5
102
100
AcDbEntity
  8
0
  6
ByLayer
 62
   14
420
10485760
370
   -1
100
AcDbPolyline
 90
    2
 70
    0
 43
0
 10
237.744
 20
175.768
 10
242.062
 20
177.038
  0
LWPOLYLINE
  5
103
100
AcDbEntity
  8
0
  6
ByLayer
 62
   14
420
10485760
370
   -1
100
AcDbPolyline
 90
    2
 70
    0
 43
0
 10
245.11
 20
175.26
 10
242.57
 20
175.26
  0
LWPOLYLINE
  5
104
100
AcDbEntity
  8
0
  6
ByLayer
 62
   14
420
10485760
370
   -1
100
AcDbPolyline
 90
    2
 70
    0
 43
0
 10
234.95
 20
175.26
 10
237.49
 20
175.26
  0
ELLIPSE
  5
105
100
AcDbEntity
  8
0
  6
ByLayer
 62
    7
370
   -1
100
AcDbEllipse
 10
242.062
 20
175.26
 30
0
 11
0
 21
0.508
 31
0
 40
1
 41
0
 42
6.283185307179586
  0
ELLIPSE
  5
106
100
AcDbEntity
  8
0
  6
ByLayer
 62
    7
370
   -1
100
AcDbEllipse
 10
237.998
 20
175.26
 30
0
 11
0
 21
0.508
 31
0
 40
1
 41
0
 42
6.283185307179586
  0
TEXT
  5
107
100
AcDbEntity
  8
0
  6
ByLayer
 62
    5
370
   -1
100
AcDbText
 10
234.95
 20
161.29
 30
0
 40
1.778
  1
TS-1088-AR02016
 50
0
 41
1.1
 51
0
  7
宋体
 71
    0
 11
234.95
 21
161.29
 31
0
210
0
220
0
230
1
100
AcDbText
 73
    1
  0
TEXT
  5
108
100
AcDbEntity
  8
0
  6
ByLayer
 62
  176
420
  128
370
   -1
100
AcDbText
 10
234.95
 20
167.64
 30
0
 40
1.778
  1
SW7
 50
0
 41
1.1
 51
0
  7
宋体
 71
    0
 11
234.95
 21
167.64
 31
0
210
0
220
0
230
1
100
AcDbText
 73
    1
  0
TEXT
  5
109
100
AcDbEntity
  8
0
  6
ByLayer
 62
    7
370
   -1
100
AcDbText
 10
245.11
 20
164.86759508
 30
0
 40
1.778
  1
2
 50
0
 41
1.1
 51
0
  7
宋体
 71
    0
 11
245.11
 21
164.86759508
 31
0
210
0
220
0
230
1
100
AcDbText
 73
    1
  0
LWPOLYLINE
  5
10A
100
AcDbEntity
  8
0
  6
ByLayer
 62
   16
420
8912896
370
   -1
100
AcDbPolyline
 90
    2
 70
    0
 43
0
 10
247.65
 20
165.1
 10
245.11
 20
165.1
  0
TEXT
  5
10B
100
AcDbEntity
  8
0
  6
ByLayer
 62
    7
370
   -1
100
AcDbText
 10
234.95
 20
164.86759508
 30
0
 40
1.778
  1
1
 50
0
 41
1.1
 51
0
  7
宋体
 71
    0
 72
    2
 11
234.95
 21
164.86759508
 31
0
210
0
220
0
230
1
100
AcDbText
 73
    1
  0
LWPOLYLINE
  5
10C
100
AcDbEntity
  8
0
  6
ByLayer
 62
   16
420
8912896
370
   -1
100
AcDbPolyline
 90
    2
 70
    0
 43
0
 10
232.41
 20
165.1
 10
234.95
 20
165.1
  0
LWPOLYLINE
  5
10D
100
AcDbEntity
  8
0
  6
ByLayer
 62
   14
420
10485760
370
   -1
100
AcDbPolyline
 90
    2
 70
    0
 43
0
 10
237.744
 20
165.608
 10
242.062
 20
166.878
  0
LWPOLYLINE
  5
10E
100
AcDbEntity
  8
0
  6
ByLayer
 62
   14
420
10485760
370
   -1
100
AcDbPolyline
 90
    2
 70
    0
 43
0
 10
245.11
 20
165.1
 10
242.57
 20
165.1
  0
LWPOLYLINE
  5
10F
100
AcDbEntity
  8
0
  6
ByLayer
 62
   14
420
10485760
370
   -1
100
AcDbPolyline
 90
    2
 70
    0
 43
0
 10
234.95
 20
165.1
 10
237.49
 20
165.1
  0
ELLIPSE
  5
110
100
AcDbEntity
  8
0
  6
ByLayer
 62
    7
370
   -1
100
AcDbEllipse
 10
242.062
 20
165.1
 30
0
 11
0
 21
0.508
 31
0
 40
1
 41
0
 42
6.283185307179586
  0
ELLIPSE
  5
111
100
AcDbEntity
  8
0
  6
ByLayer
 62
    7
370
   -1
100
AcDbEllipse
 10
237.998
 20
165.1
 30
0
 11
0
 21
0.508
 31
0
 40
1
 41
0
 42
6.283185307179586
  0
TEXT
  5
112
100
AcDbEntity
  8
0
  6
ByLayer
 62
    5
370
   -1
100
AcDbText
 10
50.8
 20
82.55
 30
0
 40
1.778
  1
YLED0603Y
 50
90
 41
1.1
 51
0
  7
宋体
 71
    0
 11
50.8
 21
82.55
 31
0
210
0
220
0
230
1
100
AcDbText
 73
    1
  0
TEXT
  5
113
100
AcDbEntity
  8
0
  6
ByLayer
 62
  176
420
  128
370
   -1
100
AcDbText
 10
58.42
 20
90.17
 30
0
 40
1.778
  1
LED1
 50
0
 41
1.1
 51
0
  7
宋体
 71
    0
 11
58.42
 21
90.17
 31
0
210
0
220
0
230
1
100
AcDbText
 73
    1
  0
LWPOLYLINE
  5
114
100
AcDbEntity
  8
0
  6
ByLayer
 62
   14
420
10485760
370
   -1
100
AcDbPolyline
 90
    3
 70
    1
 43
0
 10
56.642
 20
92.964
 10
56.134
 20
91.94800000000001
 10
55.626
 20
92.456
  0
LWPOLYLINE
  5
115
100
AcDbEntity
  8
0
  6
ByLayer
 62
   14
420
10485760
370
   -1
100
AcDbPolyline
 90
    3
 70
    1
 43
0
 10
57.658
 20
91.94800000000001
 10
57.15000000000001
 20
90.932
 10
56.642
 20
91.44000000000001
  0
LWPOLYLINE
  5
116
100
AcDbEntity
  8
0
  6
ByLayer
 62
   14
420
10485760
370
   -1
100
AcDbPolyline
 90
    2
 70
    0
 43
0
 10
54.864
 20
91.18600000000001
 10
55.88
 20
92.202
  0
LWPOLYLINE
  5
117
100
AcDbEntity
  8
0
  6
ByLayer
 62
   14
420
10485760
370
   -1
100
AcDbPolyline
 90
    2
 70
    0
 43
0
 10
55.88
 20
90.17
 10
56.896
 20
91.18600000000001
  0
LWPOLYLINE
  5
118
100
AcDbEntity
  8
0
  6
ByLayer
 62
   14
420
10485760
370
   -1
100
AcDbPolyline
 90
    2
 70
    0
 43
0
 10
53.34
 20
90.17
 10
53.34
 20
91.44000000000001
  0
LWPOLYLINE
  5
119
100
AcDbEntity
  8
0
  6
ByLayer
 62
   14
420
10485760
370
   -1
100
AcDbPolyline
 90
    2
 70
    0
 43
0
 10
53.34
 20
86.36
 10
53.34
 20
87.63000000000001
  0
LWPOLYLINE
  5
11A
100
AcDbEntity
  8
0
  6
ByLayer
 62
   14
420
10485760
370
   -1
100
AcDbPolyline
 90
    2
 70
    0
 43
0
 10
55.118
 20
90.17
 10
51.562
 20
90.17
  0
LWPOLYLINE
  5
11B
100
AcDbEntity
  8
0
  6
ByLayer
 62
   14
420
10485760
370
   -1
100
AcDbPolyline
 90
    3
 70
    1
 43
0
 10
55.118
 20
87.63000000000001
 10
53.34
 20
90.17
 10
51.562
 20
87.63000000000001
  0
LWPOLYLINE
  5
11C
100
AcDbEntity
  8
0
  6
ByLayer
 62
   16
420
8912896
370
   -1
100
AcDbPolyline
 90
    2
 70
    0
 43
0
 10
53.34
 20
93.98
 10
53.34
 20
91.44
  0
LWPOLYLINE
  5
11D
100
AcDbEntity
  8
0
  6
ByLayer
 62
   16
420
8912896
370
   -1
100
AcDbPolyline
 90
    2
 70
    0
 43
0
 10
53.34
 20
83.82000000000001
 10
53.34
 20
86.36000000000001
  0
TEXT
  5
11E
100
AcDbEntity
  8
0
  6
ByLayer
 62
    5
370
   -1
100
AcDbText
 10
118.11
 20
199.39
 30
0
 40
1.778
  1
10uF
 50
0
 41
1.1
 51
0
  7
宋体
 71
    0
 11
118.11
 21
199.39
 31
0
210
0
220
0
230
1
100
AcDbText
 73
    1
  0
TEXT
  5
11F
100
AcDbEntity
  8
0
  6
ByLayer
 62
  176
420
  128
370
   -1
100
AcDbText
 10
116.84
 20
204.47
 30
0
 40
1.778
  1
C1
 50
0
 41
1.1
 51
0
  7
宋体
 71
    0
 11
116.84
 21
204.47
 31
0
210
0
220
0
230
1
100
AcDbText
 73
    1
  0
LWPOLYLINE
  5
120
100
AcDbEntity
  8
0
  6
ByLayer
 62
   14
420
10485760
370
   -1
100
AcDbPolyline
 90
    2
 70
    0
 43
0
 10
120.142
 20
202.438
 10
120.142
 20
206.502
  0
LWPOLYLINE
  5
121
100
AcDbEntity
  8
0
  6
ByLayer
 62
   14
420
10485760
370
   -1
100
AcDbPolyline
 90
    2
 70
    0
 43
0
 10
123.19
 20
204.47
 10
121.158
 20
204.47
  0
LWPOLYLINE
  5
122
100
AcDbEntity
  8
0
  6
ByLayer
 62
   14
420
10485760
370
   -1
100
AcDbPolyline
 90
    2
 70
    0
 43
0
 10
121.158
 20
206.502
 10
121.158
 20
202.438
  0
LWPOLYLINE
  5
123
100
AcDbEntity
  8
0
  6
ByLayer
 62
   14
420
10485760
370
   -1
100
AcDbPolyline
 90
    2
 70
    0
 43
0
 10
120.142
 20
204.47
 10
118.11
 20
204.47
  0
LWPOLYLINE
  5
124
100
AcDbEntity
  8
0
  6
ByLayer
 62
   16
420
8912896
370
   -1
100
AcDbPolyline
 90
    2
 70
    0
 43
0
 10
115.57
 20
204.47
 10
118.11
 20
204.47
  0
LWPOLYLINE
  5
125
100
AcDbEntity
  8
0
  6
ByLayer
 62
   16
420
8912896
370
   -1
100
AcDbPolyline
 90
    2
 70
    0
 43
0
 10
125.73
 20
204.47
 10
123.19
 20
204.47
  0
TEXT
  5
126
100
AcDbEntity
  8
0
  6
ByLayer
 62
    5
370
   -1
100
AcDbText
 10
116.84
 20
191.77
 30
0
 40
1.778
  1
100nF
 50
0
 41
1.1
 51
0
  7
宋体
 71
    0
 11
116.84
 21
191.77
 31
0
210
0
220
0
230
1
100
AcDbText
 73
    1
  0
TEXT
  5
127
100
AcDbEntity
  8
0
  6
ByLayer
 62
  176
420
  128
370
   -1
100
AcDbText
 10
116.84
 20
199.39
 30
0
 40
1.778
  1
C3
 50
0
 41
1.1
 51
0
  7
宋体
 71
    0
 11
116.84
 21
199.39
 31
0
210
0
220
0
230
1
100
AcDbText
 73
    1
  0
LWPOLYLINE
  5
128
100
AcDbEntity
  8
0
  6
ByLayer
 62
   14
420
10485760
370
   -1
100
AcDbPolyline
 90
    2
 70
    0
 43
0
 10
118.872
 20
194.818
 10
118.872
 20
198.882
  0
LWPOLYLINE
  5
129
100
AcDbEntity
  8
0
  6
ByLayer
 62
   14
420
10485760
370
   -1
100
AcDbPolyline
 90
    2
 70
    0
 43
0
 10
121.92
 20
196.85
 10
119.888
 20
196.85
  0
LWPOLYLINE
  5
12A
100
AcDbEntity
  8
0
  6
ByLayer
 62
   14
420
10485760
370
   -1
100
AcDbPolyline
 90
    2
 70
    0
 43
0
 10
119.888
 20
198.882
 10
119.888
 20
194.818
  0
LWPOLYLINE
  5
12B
100
AcDbEntity
  8
0
  6
ByLayer
 62
   14
420
10485760
370
   -1
100
AcDbPolyline
 90
    2
 70
    0
 43
0
 10
118.872
 20
196.85
 10
116.84
 20
196.85
  0
LWPOLYLINE
  5
12C
100
AcDbEntity
  8
0
  6
ByLayer
 62
   16
420
8912896
370
   -1
100
AcDbPolyline
 90
    2
 70
    0
 43
0
 10
114.3
 20
196.85
 10
116.84
 20
196.85
  0
LWPOLYLINE
  5
12D
100
AcDbEntity
  8
0
  6
ByLayer
 62
   16
420
8912896
370
   -1
100
AcDbPolyline
 90
    2
 70
    0
 43
0
 10
124.46
 20
196.85
 10
121.92
 20
196.85
  0
TEXT
  5
12E
100
AcDbEntity
  8
0
  6
ByLayer
 62
    5
370
   -1
100
AcDbText
 10
204.47
 20
95.25
 30
0
 40
1.778
  1
100nF
 50
0
 41
1.1
 51
0
  7
宋体
 71
    0
 11
204.47
 21
95.25
 31
0
210
0
220
0
230
1
100
AcDbText
 73
    1
  0
TEXT
  5
12F
100
AcDbEntity
  8
0
  6
ByLayer
 62
  176
420
  128
370
   -1
100
AcDbText
 10
204.47
 20
97.79000000000001
 30
0
 40
1.778
  1
C4
 50
0
 41
1.1
 51
0
  7
宋体
 71
    0
 11
204.47
 21
97.79000000000001
 31
0
210
0
220
0
230
1
100
AcDbText
 73
    1
  0
LWPOLYLINE
  5
130
100
AcDbEntity
  8
0
  6
ByLayer
 62
   14
420
10485760
370
   -1
100
AcDbPolyline
 90
    2
 70
    0
 43
0
 10
215.392
 20
96.012
 10
211.328
 20
96.012
  0
LWPOLYLINE
  5
131
100
AcDbEntity
  8
0
  6
ByLayer
 62
   14
420
10485760
370
   -1
100
AcDbPolyline
 90
    2
 70
    0
 43
0
 10
213.36
 20
99.06
 10
213.36
 20
97.02799999999999
  0
LWPOLYLINE
  5
132
100
AcDbEntity
  8
0
  6
ByLayer
 62
   14
420
10485760
370
   -1
100
AcDbPolyline
 90
    2
 70
    0
 43
0
 10
211.328
 20
97.02799999999999
 10
215.392
 20
97.02799999999999
  0
LWPOLYLINE
  5
133
100
AcDbEntity
  8
0
  6
ByLayer
 62
   14
420
10485760
370
   -1
100
AcDbPolyline
 90
    2
 70
    0
 43
0
 10
213.36
 20
96.012
 10
213.36
 20
93.97999999999999
  0
LWPOLYLINE
  5
134
100
AcDbEntity
  8
0
  6
ByLayer
 62
   16
420
8912896
370
   -1
100
AcDbPolyline
 90
    2
 70
    0
 43
0
 10
213.36
 20
91.44
 10
213.36
 20
93.98
  0
LWPOLYLINE
  5
135
100
AcDbEntity
  8
0
  6
ByLayer
 62
   16
420
8912896
370
   -1
100
AcDbPolyline
 90
    2
 70
    0
 43
0
 10
213.36
 20
101.6
 10
213.36
 20
99.05999999999999
  0
TEXT
  5
136
100
AcDbEntity
  8
0
  6
ByLayer
 62
    5
370
   -1
100
AcDbText
 10
80.01000000000001
 20
161.29
 30
0
 40
1.778
  1
100nF
 50
0
 41
1.1
 51
0
  7
宋体
 71
    0
 11
80.01000000000001
 21
161.29
 31
0
210
0
220
0
230
1
100
AcDbText
 73
    1
  0
TEXT
  5
137
100
AcDbEntity
  8
0
  6
ByLayer
 62
  176
420
  128
370
   -1
100
AcDbText
 10
80.01000000000001
 20
168.91
 30
0
 40
1.778
  1
C5
 50
0
 41
1.1
 51
0
  7
宋体
 71
    0
 11
80.01000000000001
 21
168.91
 31
0
210
0
220
0
230
1
100
AcDbText
 73
    1
  0
LWPOLYLINE
  5
138
100
AcDbEntity
  8
0
  6
ByLayer
 62
   14
420
10485760
370
   -1
100
AcDbPolyline
 90
    2
 70
    0
 43
0
 10
82.042
 20
164.338
 10
82.042
 20
168.402
  0
LWPOLYLINE
  5
139
100
AcDbEntity
  8
0
  6
ByLayer
 62
   14
420
10485760
370
   -1
100
AcDbPolyline
 90
    2
 70
    0
 43
0
 10
85.09
 20
166.37
 10
83.05799999999999
 20
166.37
  0
LWPOLYLINE
  5
13A
100
AcDbEntity
  8
0
  6
ByLayer
 62
   14
420
10485760
370
   -1
100
AcDbPolyline
 90
    2
 70
    0
 43
0
 10
83.05799999999999
 20
168.402
 10
83.05799999999999
 20
164.338
  0
LWPOLYLINE
  5
13B
100
AcDbEntity
  8
0
  6
ByLayer
 62
   14
420
10485760
370
   -1
100
AcDbPolyline
 90
    2
 70
    0
 43
0
 10
82.042
 20
166.37
 10
80.00999999999999
 20
166.37
  0
LWPOLYLINE
  5
13C
100
AcDbEntity
  8
0
  6
ByLayer
 62
   16
420
8912896
370
   -1
100
AcDbPolyline
 90
    2
 70
    0
 43
0
 10
77.47
 20
166.37
 10
80.01000000000001
 20
166.37
  0
LWPOLYLINE
  5
13D
100
AcDbEntity
  8
0
  6
ByLayer
 62
   16
420
8912896
370
   -1
100
AcDbPolyline
 90
    2
 70
    0
 43
0
 10
87.63
 20
166.37
 10
85.08999999999999
 20
166.37
  0
TEXT
  5
13E
100
AcDbEntity
  8
0
  6
ByLayer
 62
    5
370
   -1
100
AcDbText
 10
90.17
 20
175.26
 30
0
 40
1.778
  1
10K
 50
0
 41
1.1
 51
0
  7
宋体
 71
    0
 11
90.17
 21
175.26
 31
0
210
0
220
0
230
1
100
AcDbText
 73
    1
  0
TEXT
  5
13F
100
AcDbEntity
  8
0
  6
ByLayer
 62
    5
370
   -1
100
AcDbText
 10
90.17
 20
177.8
 30
0
 40
1.778
  1
R1
 50
0
 41
1.1
 51
0
  7
宋体
 71
    0
 11
90.17
 21
177.8
 31
0
210
0
220
0
230
1
100
AcDbText
 73
    1
  0
LWPOLYLINE
  5
140
100
AcDbEntity
  8
0
  6
ByLayer
 62
   14
420
10485760
370
   -1
100
AcDbPolyline
 90
    4
 70
    1
 43
0
 10
86.61399999999998
 20
175.26
 10
86.61399999999998
 20
180.34
 10
88.64599999999999
 20
180.34
 10
88.64599999999999
 20
175.26
  0
LWPOLYLINE
  5
141
100
AcDbEntity
  8
0
  6
ByLayer
 62
   16
420
8912896
370
   -1
100
AcDbPolyline
 90
    2
 70
    0
 43
0
 10
87.63
 20
182.88
 10
87.63
 20
180.34
  0
LWPOLYLINE
  5
142
100
AcDbEntity
  8
0
  6
ByLayer
 62
   16
420
8912896
370
   -1
100
AcDbPolyline
 90
    2
 70
    0
 43
0
 10
87.63
 20
172.72
 10
87.63
 20
175.26
  0
TEXT
  5
143
100
AcDbEntity
  8
0
  6
ByLayer
 62
    5
370
   -1
100
AcDbText
 10
66.04000000000001
 20
78.73999999999999
 30
0
 40
1.778
  1
22uf
 50
0
 41
1.1
 51
0
  7
宋体
 71
    0
 11
66.04000000000001
 21
78.73999999999999
 31
0
210
0
220
0
230
1
100
AcDbText
 73
    1
  0
TEXT
  5
144
100
AcDbEntity
  8
0
  6
ByLayer
 62
  176
420
  128
370
   -1
100
AcDbText
 10
66.04000000000001
 20
81.28
 30
0
 40
1.778
  1
C6
 50
0
 41
1.1
 51
0
  7
宋体
 71
    0
 11
66.04000000000001
 21
81.28
 31
0
210
0
220
0
230
1
100
AcDbText
 73
    1
  0
LWPOLYLINE
  5
145
100
AcDbEntity
  8
0
  6
ByLayer
 62
   14
420
10485760
370
   -1
100
AcDbPolyline
 90
    2
 70
    0
 43
0
 10
60.19800000000001
 20
80.77200000000001
 10
64.262
 20
80.77200000000001
  0
LWPOLYLINE
  5
146
100
AcDbEntity
  8
0
  6
ByLayer
 62
   14
420
10485760
370
   -1
100
AcDbPolyline
 90
    2
 70
    0
 43
0
 10
62.23
 20
83.82000000000001
 10
62.23
 20
81.788
  0
LWPOLYLINE
  5
147
100
AcDbEntity
  8
0
  6
ByLayer
 62
   14
420
10485760
370
   -1
100
AcDbPolyline
 90
    2
 70
    0
 43
0
 10
64.262
 20
81.788
 10
60.19800000000001
 20
81.788
  0
LWPOLYLINE
  5
148
100
AcDbEntity
  8
0
  6
ByLayer
 62
   14
420
10485760
370
   -1
100
AcDbPolyline
 90
    2
 70
    0
 43
0
 10
62.23
 20
80.77200000000001
 10
62.23
 20
78.73999999999999
  0
LWPOLYLINE
  5
149
100
AcDbEntity
  8
0
  6
ByLayer
 62
   16
420
8912896
370
   -1
100
AcDbPolyline
 90
    2
 70
    0
 43
0
 10
62.23
 20
76.2
 10
62.23
 20
78.74000000000001
  0
LWPOLYLINE
  5
14A
100
AcDbEntity
  8
0
  6
ByLayer
 62
   16
420
8912896
370
   -1
100
AcDbPolyline
 90
    2
 70
    0
 43
0
 10
62.23
 20
86.36
 10
62.23
 20
83.81999999999999
  0
TEXT
  5
14B
100
AcDbEntity
  8
0
  6
ByLayer
 62
    5
370
   -1
100
AcDbText
 10
224.79
 20
71.12
 30
0
 40
1.778
  1
MAX3232CSE
 50
0
 41
1.1
 51
0
  7
宋体
 71
    0
 11
224.79
 21
71.12
 31
0
210
0
220
0
230
1
100
AcDbText
 73
    1
  0
TEXT
  5
14C
100
AcDbEntity
  8
0
  6
ByLayer
 62
  176
420
  128
370
   -1
100
AcDbText
 10
224.79
 20
96.52
 30
0
 40
1.778
  1
U6
 50
0
 41
1.1
 51
0
  7
宋体
 71
    0
 11
224.79
 21
96.52
 31
0
210
0
220
0
230
1
100
AcDbText
 73
    1
  0
LWPOLYLINE
  5
14D
100
AcDbEntity
  8
0
  6
ByLayer
 62
   14
420
10485760
370
   -1
100
AcDbPolyline
 90
    4
 70
    1
 43
0
 10
245.11
 20
73.66
 10
224.79
 20
73.66
 10
224.79
 20
96.52000000000001
 10
245.11
 20
96.52000000000001
  0
CIRCLE
  5
14E
100
AcDbEntity
  8
0
  6
ByLayer
 62
   14
420
10485760
370
    0
100
AcDbCircle
 10
243.84
 20
95.25
 40
0.381
  0
TEXT
  5
14F
100
AcDbEntity
  8
0
  6
ByLayer
 62
    7
370
   -1
100
AcDbText
 10
244.1702
 20
92.47759508
 30
0
 40
1.778
  1
C1+
 50
0
 41
1.1
 51
0
  7
宋体
 71
    0
 72
    2
 11
244.1702
 21
92.47759508
 31
0
210
0
220
0
230
1
100
AcDbText
 73
    1
  0
TEXT
  5
150
100
AcDbEntity
  8
0
  6
ByLayer
 62
    7
370
   -1
100
AcDbText
 10
245.237
 20
93.74759508
 30
0
 40
1.778
  1
1
 50
0
 41
1.1
 51
0
  7
宋体
 71
    0
 11
245.237
 21
93.74759508
 31
0
210
0
220
0
230
1
100
AcDbText
 73
    1
  0
LWPOLYLINE
  5
151
100
AcDbEntity
  8
0
  6
ByLayer
 62
   16
420
8912896
370
   -1
100
AcDbPolyline
 90
    2
 70
    0
 43
0
 10
247.65
 20
93.98
 10
245.11
 20
93.98
  0
TEXT
  5
152
100
AcDbEntity
  8
0
  6
ByLayer
 62
    7
370
   -1
100
AcDbText
 10
244.1702
 20
89.93759508000001
 30
0
 40
1.778
  1
V+
 50
0
 41
1.1
 51
0
  7
宋体
 71
    0
 72
    2
 11
244.1702
 21
89.93759508000001
 31
0
210
0
220
0
230
1
100
AcDbText
 73
    1
  0
TEXT
  5
153
100
AcDbEntity
  8
0
  6
ByLayer
 62
    7
370
   -1
100
AcDbText
 10
245.237
 20
91.20759508
 30
0
 40
1.778
  1
2
 50
0
 41
1.1
 51
0
  7
宋体
 71
    0
 11
245.237
 21
91.20759508
 31
0
210
0
220
0
230
1
100
AcDbText
 73
    1
  0
LWPOLYLINE
  5
154
100
AcDbEntity
  8
0
  6
ByLayer
 62
   16
420
8912896
370
   -1
100
AcDbPolyline
 90
    2
 70
    0
 43
0
 10
247.65
 20
91.44
 10
245.11
 20
91.44
  0
TEXT
  5
155
100
AcDbEntity
  8
0
  6
ByLayer
 62
    7
370
   -1
100
AcDbText
 10
244.1702
 20
87.39759508
 30
0
 40
1.778
  1
C1-
 50
0
 41
1.1
 51
0
  7
宋体
 71
    0
 72
    2
 11
244.1702
 21
87.39759508
 31
0
210
0
220
0
230
1
100
AcDbText
 73
    1
  0
TEXT
  5
156
100
AcDbEntity
  8
0
  6
ByLayer
 62
    7
370
   -1
100
AcDbText
 10
245.237
 20
88.66759508
 30
0
 40
1.778
  1
3
 50
0
 41
1.1
 51
0
  7
宋体
 71
    0
 11
245.237
 21
88.66759508
 31
0
210
0
220
0
230
1
100
AcDbText
 73
    1
  0
LWPOLYLINE
  5
157
100
AcDbEntity
  8
0
  6
ByLayer
 62
   16
420
8912896
370
   -1
100
AcDbPolyline
 90
    2
 70
    0
 43
0
 10
247.65
 20
88.90000000000001
 10
245.11
 20
88.90000000000001
  0
TEXT
  5
158
100
AcDbEntity
  8
0
  6
ByLayer
 62
    7
370
   -1
100
AcDbText
 10
244.1702
 20
84.85759508000001
 30
0
 40
1.778
  1
C2+
 50
0
 41
1.1
 51
0
  7
宋体
 71
    0
 72
    2
 11
244.1702
 21
84.85759508000001
 31
0
210
0
220
0
230
1
100
AcDbText
 73
    1
  0
TEXT
  5
159
100
AcDbEntity
  8
0
  6
ByLayer
 62
    7
370
   -1
100
AcDbText
 10
245.237
 20
86.12759508000001
 30
0
 40
1.778
  1
4
 50
0
 41
1.1
 51
0
  7
宋体
 71
    0
 11
245.237
 21
86.12759508000001
 31
0
210
0
220
0
230
1
100
AcDbText
 73
    1
  0
LWPOLYLINE
  5
15A
100
AcDbEntity
  8
0
  6
ByLayer
 62
   16
420
8912896
370
   -1
100
AcDbPolyline
 90
    2
 70
    0
 43
0
 10
247.65
 20
86.36
 10
245.11
 20
86.36
  0
TEXT
  5
15B
100
AcDbEntity
  8
0
  6
ByLayer
 62
    7
370
   -1
100
AcDbText
 10
244.1702
 20
82.31759508
 30
0
 40
1.778
  1
C2-
 50
0
 41
1.1
 51
0
  7
宋体
 71
    0
 72
    2
 11
244.1702
 21
82.31759508
 31
0
210
0
220
0
230
1
100
AcDbText
 73
    1
  0
TEXT
  5
15C
100
AcDbEntity
  8
0
  6
ByLayer
 62
    7
370
   -1
100
AcDbText
 10
245.237
 20
83.58759508
 30
0
 40
1.778
  1
5
 50
0
 41
1.1
 51
0
  7
宋体
 71
    0
 11
245.237
 21
83.58759508
 31
0
210
0
220
0
230
1
100
AcDbText
 73
    1
  0
LWPOLYLINE
  5
15D
100
AcDbEntity
  8
0
  6
ByLayer
 62
   16
420
8912896
370
   -1
100
AcDbPolyline
 90
    2
 70
    0
 43
0
 10
247.65
 20
83.82000000000001
 10
245.11
 20
83.82000000000001
  0
TEXT
  5
15E
100
AcDbEntity
  8
0
  6
ByLayer
 62
    7
370
   -1
100
AcDbText
 10
244.1702
 20
79.77759508
 30
0
 40
1.778
  1
V-
 50
0
 41
1.1
 51
0
  7
宋体
 71
    0
 72
    2
 11
244.1702
 21
79.77759508
 31
0
210
0
220
0
230
1
100
AcDbText
 73
    1
  0
TEXT
  5
15F
100
AcDbEntity
  8
0
  6
ByLayer
 62
    7
370
   -1
100
AcDbText
 10
245.237
 20
81.04759508000001
 30
0
 40
1.778
  1
6
 50
0
 41
1.1
 51
0
  7
宋体
 71
    0
 11
245.237
 21
81.04759508000001
 31
0
210
0
220
0
230
1
100
AcDbText
 73
    1
  0
LWPOLYLINE
  5
160
100
AcDbEntity
  8
0
  6
ByLayer
 62
   16
420
8912896
370
   -1
100
AcDbPolyline
 90
    2
 70
    0
 43
0
 10
247.65
 20
81.28
 10
245.11
 20
81.28
  0
TEXT
  5
161
100
AcDbEntity
  8
0
  6
ByLayer
 62
    7
370
   -1
100
AcDbText
 10
244.1702
 20
77.23759508000001
 30
0
 40
1.778
  1
DOUT2
 50
0
 41
1.1
 51
0
  7
宋体
 71
    0
 72
    2
 11
244.1702
 21
77.23759508000001
 31
0
210
0
220
0
230
1
100
AcDbText
 73
    1
  0
TEXT
  5
162
100
AcDbEntity
  8
0
  6
ByLayer
 62
    7
370
   -1
100
AcDbText
 10
245.237
 20
78.50759508
 30
0
 40
1.778
  1
7
 50
0
 41
1.1
 51
0
  7
宋体
 71
    0
 11
245.237
 21
78.50759508
 31
0
210
0
220
0
230
1
100
AcDbText
 73
    1
  0
LWPOLYLINE
  5
163
100
AcDbEntity
  8
0
  6
ByLayer
 62
   16
420
8912896
370
   -1
100
AcDbPolyline
 90
    2
 70
    0
 43
0
 10
247.65
 20
78.74000000000001
 10
245.11
 20
78.74000000000001
  0
TEXT
  5
164
100
AcDbEntity
  8
0
  6
ByLayer
 62
    7
370
   -1
100
AcDbText
 10
244.1702
 20
74.69759508
 30
0
 40
1.778
  1
RIN2
 50
0
 41
1.1
 51
0
  7
宋体
 71
    0
 72
    2
 11
244.1702
 21
74.69759508
 31
0
210
0
220
0
230
1
100
AcDbText
 73
    1
  0
TEXT
  5
165
100
AcDbEntity
  8
0
  6
ByLayer
 62
    7
370
   -1
100
AcDbText
 10
245.237
 20
75.96759508000001
 30
0
 40
1.778
  1
8
 50
0
 41
1.1
 51
0
  7
宋体
 71
    0
 11
245.237
 21
75.96759508000001
 31
0
210
0
220
0
230
1
100
AcDbText
 73
    1
  0
LWPOLYLINE
  5
166
100
AcDbEntity
  8
0
  6
ByLayer
 62
   16
420
8912896
370
   -1
100
AcDbPolyline
 90
    2
 70
    0
 43
0
 10
247.65
 20
76.2
 10
245.11
 20
76.2
  0
TEXT
  5
167
100
AcDbEntity
  8
0
  6
ByLayer
 62
    7
370
   -1
100
AcDbText
 10
225.7298
 20
74.69759508
 30
0
 40
1.778
  1
ROUT2
 50
0
 41
1.1
 51
0
  7
宋体
 71
    0
 11
225.7298
 21
74.69759508
 31
0
210
0
220
0
230
1
100
AcDbText
 73
    1
  0
TEXT
  5
168
100
AcDbEntity
  8
0
  6
ByLayer
 62
    7
370
   -1
100
AcDbText
 10
224.663
 20
75.96759508000001
 30
0
 40
1.778
  1
9
 50
0
 41
1.1
 51
0
  7
宋体
 71
    0
 72
    2
 11
224.663
 21
75.96759508000001
 31
0
210
0
220
0
230
1
100
AcDbText
 73
    1
  0
LWPOLYLINE
  5
169
100
AcDbEntity
  8
0
  6
ByLayer
 62
   16
420
8912896
370
   -1
100
AcDbPolyline
 90
    2
 70
    0
 43
0
 10
222.25
 20
76.2
 10
224.79
 20
76.2
  0
TEXT
  5
16A
100
AcDbEntity
  8
0
  6
ByLayer
 62
    7
370
   -1
100
AcDbText
 10
225.7298
 20
77.23759508000001
 30
0
 40
1.778
  1
DIN2
 50
0
 41
1.1
 51
0
  7
宋体
 71
    0
 11
225.7298
 21
77.23759508000001
 31
0
210
0
220
0
230
1
100
AcDbText
 73
    1
  0
TEXT
  5
16B
100
AcDbEntity
  8
0
  6
ByLayer
 62
    7
370
   -1
100
AcDbText
 10
224.663
 20
78.50759508
 30
0
 40
1.778
  1
10
 50
0
 41
1.1
 51
0
  7
宋体
 71
    0
 72
    2
 11
224.663
 21
78.50759508
 31
0
210
0
220
0
230
1
100
AcDbText
 73
    1
  0
LWPOLYLINE
  5
16C
100
AcDbEntity
  8
0
  6
ByLayer
 62
   16
420
8912896
370
   -1
100
AcDbPolyline
 90
    2
 70
    0
 43
0
 10
222.25
 20
78.74000000000001
 10
224.79
 20
78.74000000000001
  0
TEXT
  5
16D
100
AcDbEntity
  8
0
  6
ByLayer
 62
    7
370
   -1
100
AcDbText
 10
225.7298
 20
79.77759508
 30
0
 40
1.778
  1
DIN1
 50
0
 41
1.1
 51
0
  7
宋体
 71
    0
 11
225.7298
 21
79.77759508
 31
0
210
0
220
0
230
1
100
AcDbText
 73
    1
  0
TEXT
  5
16E
100
AcDbEntity
  8
0
  6
ByLayer
 62
    7
370
   -1
100
AcDbText
 10
224.663
 20
81.04759508000001
 30
0
 40
1.778
  1
11
 50
0
 41
1.1
 51
0
  7
宋体
 71
    0
 72
    2
 11
224.663
 21
81.04759508000001
 31
0
210
0
220
0
230
1
100
AcDbText
 73
    1
  0
LWPOLYLINE
  5
16F
100
AcDbEntity
  8
0
  6
ByLayer
 62
   16
420
8912896
370
   -1
100
AcDbPolyline
 90
    2
 70
    0
 43
0
 10
222.25
 20
81.28
 10
224.79
 20
81.28
  0
TEXT
  5
170
100
AcDbEntity
  8
0
  6
ByLayer
 62
    7
370
   -1
100
AcDbText
 10
225.7298
 20
82.31759508
 30
0
 40
1.778
  1
ROUT1
 50
0
 41
1.1
 51
0
  7
宋体
 71
    0
 11
225.7298
 21
82.31759508
 31
0
210
0
220
0
230
1
100
AcDbText
 73
    1
  0
TEXT
  5
171
100
AcDbEntity
  8
0
  6
ByLayer
 62
    7
370
   -1
100
AcDbText
 10
224.663
 20
83.58759508
 30
0
 40
1.778
  1
12
 50
0
 41
1.1
 51
0
  7
宋体
 71
    0
 72
    2
 11
224.663
 21
83.58759508
 31
0
210
0
220
0
230
1
100
AcDbText
 73
    1
  0
LWPOLYLINE
  5
172
100
AcDbEntity
  8
0
  6
ByLayer
 62
   16
420
8912896
370
   -1
100
AcDbPolyline
 90
    2
 70
    0
 43
0
 10
222.25
 20
83.82000000000001
 10
224.79
 20
83.82000000000001
  0
TEXT
  5
173
100
AcDbEntity
  8
0
  6
ByLayer
 62
    7
370
   -1
100
AcDbText
 10
225.7298
 20
84.85759508000001
 30
0
 40
1.778
  1
RIN1
 50
0
 41
1.1
 51
0
  7
宋体
 71
    0
 11
225.7298
 21
84.85759508000001
 31
0
210
0
220
0
230
1
100
AcDbText
 73
    1
  0
TEXT
  5
174
100
AcDbEntity
  8
0
  6
ByLayer
 62
    7
370
   -1
100
AcDbText
 10
224.663
 20
86.12759508000001
 30
0
 40
1.778
  1
13
 50
0
 41
1.1
 51
0
  7
宋体
 71
    0
 72
    2
 11
224.663
 21
86.12759508000001
 31
0
210
0
220
0
230
1
100
AcDbText
 73
    1
  0
LWPOLYLINE
  5
175
100
AcDbEntity
  8
0
  6
ByLayer
 62
   16
420
8912896
370
   -1
100
AcDbPolyline
 90
    2
 70
    0
 43
0
 10
222.25
 20
86.36
 10
224.79
 20
86.36
  0
TEXT
  5
176
100
AcDbEntity
  8
0
  6
ByLayer
 62
    7
370
   -1
100
AcDbText
 10
225.7298
 20
87.39759508
 30
0
 40
1.778
  1
DOUT1
 50
0
 41
1.1
 51
0
  7
宋体
 71
    0
 11
225.7298
 21
87.39759508
 31
0
210
0
220
0
230
1
100
AcDbText
 73
    1
  0
TEXT
  5
177
100
AcDbEntity
  8
0
  6
ByLayer
 62
    7
370
   -1
100
AcDbText
 10
224.663
 20
88.66759508
 30
0
 40
1.778
  1
14
 50
0
 41
1.1
 51
0
  7
宋体
 71
    0
 72
    2
 11
224.663
 21
88.66759508
 31
0
210
0
220
0
230
1
100
AcDbText
 73
    1
  0
LWPOLYLINE
  5
178
100
AcDbEntity
  8
0
  6
ByLayer
 62
   16
420
8912896
370
   -1
100
AcDbPolyline
 90
    2
 70
    0
 43
0
 10
222.25
 20
88.90000000000001
 10
224.79
 20
88.90000000000001
  0
TEXT
  5
179
100
AcDbEntity
  8
0
  6
ByLayer
 62
    7
370
   -1
100
AcDbText
 10
225.7298
 20
89.93759508000001
 30
0
 40
1.778
  1
GND
 50
0
 41
1.1
 51
0
  7
宋体
 71
    0
 11
225.7298
 21
89.93759508000001
 31
0
210
0
220
0
230
1
100
AcDbText
 73
    1
  0
TEXT
  5
17A
100
AcDbEntity
  8
0
  6
ByLayer
 62
    7
370
   -1
100
AcDbText
 10
224.663
 20
91.20759508
 30
0
 40
1.778
  1
15
 50
0
 41
1.1
 51
0
  7
宋体
 71
    0
 72
    2
 11
224.663
 21
91.20759508
 31
0
210
0
220
0
230
1
100
AcDbText
 73
    1
  0
LWPOLYLINE
  5
17B
100
AcDbEntity
  8
0
  6
ByLayer
 62
   16
420
8912896
370
   -1
100
AcDbPolyline
 90
    2
 70
    0
 43
0
 10
222.25
 20
91.44
 10
224.79
 20
91.44
  0
TEXT
  5
17C
100
AcDbEntity
  8
0
  6
ByLayer
 62
    7
370
   -1
100
AcDbText
 10
225.7298
 20
92.47759508
 30
0
 40
1.778
  1
VCC
 50
0
 41
1.1
 51
0
  7
宋体
 71
    0
 11
225.7298
 21
92.47759508
 31
0
210
0
220
0
230
1
100
AcDbText
 73
    1
  0
TEXT
  5
17D
100
AcDbEntity
  8
0
  6
ByLayer
 62
    7
370
   -1
100
AcDbText
 10
224.663
 20
93.74759508
 30
0
 40
1.778
  1
16
 50
0
 41
1.1
 51
0
  7
宋体
 71
    0
 72
    2
 11
224.663
 21
93.74759508
 31
0
210
0
220
0
230
1
100
AcDbText
 73
    1
  0
LWPOLYLINE
  5
17E
100
AcDbEntity
  8
0
  6
ByLayer
 62
   16
420
8912896
370
   -1
100
AcDbPolyline
 90
    2
 70
    0
 43
0
 10
222.25
 20
93.98
 10
224.79
 20
93.98
  0
TEXT
  5
17F
100
AcDbEntity
  8
0
  6
ByLayer
 62
    5
370
   -1
100
AcDbText
 10
236.22
 20
105.41
 30
0
 40
1.778
  1
HS96L01W4S03
 50
0
 41
1.1
 51
0
  7
宋体
 71
    0
 11
236.22
 21
105.41
 31
0
210
0
220
0
230
1
100
AcDbText
 73
    1
  0
TEXT
  5
180
100
AcDbEntity
  8
0
  6
ByLayer
 62
  176
420
  128
370
   -1
100
AcDbText
 10
236.22
 20
128.27
 30
0
 40
1.778
  1
OLED1
 50
0
 41
1.1
 51
0
  7
宋体
 71
    0
 11
236.22
 21
128.27
 31
0
210
0
220
0
230
1
100
AcDbText
 73
    1
  0
LWPOLYLINE
  5
181
100
AcDbEntity
  8
0
  6
ByLayer
 62
   14
420
10485760
370
   -1
100
AcDbPolyline
 90
    4
 70
    1
 43
0
 10
236.22
 20
128.27
 10
243.84
 20
128.27
 10
243.84
 20
107.95
 10
236.22
 20
107.95
  0
CIRCLE
  5
182
100
AcDbEntity
  8
0
  6
ByLayer
 62
   14
420
10485760
370
    0
100
AcDbCircle
 10
237.49
 20
127
 40
0.381
  0
TEXT
  5
183
100
AcDbEntity
  8
0
  6
ByLayer
 62
    7
370
   -1
100
AcDbText
 10
237.1598
 20
124.22759508
 30
0
 40
1.778
  1
GND
 50
0
 41
1.1
 51
0
  7
宋体
 71
    0
 11
237.1598
 21
124.22759508
 31
0
210
0
220
0
230
1
100
AcDbText
 73
    1
  0
TEXT
  5
184
100
AcDbEntity
  8
0
  6
ByLayer
 62
    7
370
   -1
100
AcDbText
 10
236.093
 20
125.49759508
 30
0
 40
1.778
  1
1
 50
0
 41
1.1
 51
0
  7
宋体
 71
    0
 72
    2
 11
236.093
 21
125.49759508
 31
0
210
0
220
0
230
1
100
AcDbText
 73
    1
  0
LWPOLYLINE
  5
185
100
AcDbEntity
  8
0
  6
ByLayer
 62
   16
420
8912896
370
   -1
100
AcDbPolyline
 90
    2
 70
    0
 43
0
 10
233.68
 20
125.73
 10
236.22
 20
125.73
  0
TEXT
  5
186
100
AcDbEntity
  8
0
  6
ByLayer
 62
    7
370
   -1
100
AcDbText
 10
237.1598
 20
121.68759508
 30
0
 40
1.778
  1
VCC
 50
0
 41
1.1
 51
0
  7
宋体
 71
    0
 11
237.1598
 21
121.68759508
 31
0
210
0
220
0
230
1
100
AcDbText
 73
    1
  0
TEXT
  5
187
100
AcDbEntity
  8
0
  6
ByLayer
 62
    7
370
   -1
100
AcDbText
 10
236.093
 20
122.95759508
 30
0
 40
1.778
  1
2
 50
0
 41
1.1
 51
0
  7
宋体
 71
    0
 72
    2
 11
236.093
 21
122.95759508
 31
0
210
0
220
0
230
1
100
AcDbText
 73
    1
  0
LWPOLYLINE
  5
188
100
AcDbEntity
  8
0
  6
ByLayer
 62
   16
420
8912896
370
   -1
100
AcDbPolyline
 90
    2
 70
    0
 43
0
 10
233.68
 20
123.19
 10
236.22
 20
123.19
  0
TEXT
  5
189
100
AcDbEntity
  8
0
  6
ByLayer
 62
    7
370
   -1
100
AcDbText
 10
237.1598
 20
119.14759508
 30
0
 40
1.778
  1
SCL
 50
0
 41
1.1
 51
0
  7
宋体
 71
    0
 11
237.1598
 21
119.14759508
 31
0
210
0
220
0
230
1
100
AcDbText
 73
    1
  0
TEXT
  5
18A
100
AcDbEntity
  8
0
  6
ByLayer
 62
    7
370
   -1
100
AcDbText
 10
236.093
 20
120.41759508
 30
0
 40
1.778
  1
3
 50
0
 41
1.1
 51
0
  7
宋体
 71
    0
 72
    2
 11
236.093
 21
120.41759508
 31
0
210
0
220
0
230
1
100
AcDbText
 73
    1
  0
LWPOLYLINE
  5
18B
100
AcDbEntity
  8
0
  6
ByLayer
 62
   16
420
8912896
370
   -1
100
AcDbPolyline
 90
    2
 70
    0
 43
0
 10
233.68
 20
120.65
 10
236.22
 20
120.65
  0
TEXT
  5
18C
100
AcDbEntity
  8
0
  6
ByLayer
 62
    7
370
   -1
100
AcDbText
 10
237.1598
 20
116.60759508
 30
0
 40
1.778
  1
SDA
 50
0
 41
1.1
 51
0
  7
宋体
 71
    0
 11
237.1598
 21
116.60759508
 31
0
210
0
220
0
230
1
100
AcDbText
 73
    1
  0
TEXT
  5
18D
100
AcDbEntity
  8
0
  6
ByLayer
 62
    7
370
   -1
100
AcDbText
 10
236.093
 20
117.87759508
 30
0
 40
1.778
  1
4
 50
0
 41
1.1
 51
0
  7
宋体
 71
    0
 72
    2
 11
236.093
 21
117.87759508
 31
0
210
0
220
0
230
1
100
AcDbText
 73
    1
  0
LWPOLYLINE
  5
18E
100
AcDbEntity
  8
0
  6
ByLayer
 62
   16
420
8912896
370
   -1
100
AcDbPolyline
 90
    2
 70
    0
 43
0
 10
233.68
 20
118.11
 10
236.22
 20
118.11
  0
TEXT
  5
18F
100
AcDbEntity
  8
0
  6
ByLayer
 62
    7
370
   -1
100
AcDbText
 10
237.1598
 20
114.06759508
 30
0
 40
1.778
  1
RES
 50
0
 41
1.1
 51
0
  7
宋体
 71
    0
 11
237.1598
 21
114.06759508
 31
0
210
0
220
0
230
1
100
AcDbText
 73
    1
  0
TEXT
  5
190
100
AcDbEntity
  8
0
  6
ByLayer
 62
    7
370
   -1
100
AcDbText
 10
236.093
 20
115.33759508
 30
0
 40
1.778
  1
5
 50
0
 41
1.1
 51
0
  7
宋体
 71
    0
 72
    2
 11
236.093
 21
115.33759508
 31
0
210
0
220
0
230
1
100
AcDbText
 73
    1
  0
LWPOLYLINE
  5
191
100
AcDbEntity
  8
0
  6
ByLayer
 62
   16
420
8912896
370
   -1
100
AcDbPolyline
 90
    2
 70
    0
 43
0
 10
233.68
 20
115.57
 10
236.22
 20
115.57
  0
TEXT
  5
192
100
AcDbEntity
  8
0
  6
ByLayer
 62
    7
370
   -1
100
AcDbText
 10
237.1598
 20
111.52759508
 30
0
 40
1.778
  1
DC
 50
0
 41
1.1
 51
0
  7
宋体
 71
    0
 11
237.1598
 21
111.52759508
 31
0
210
0
220
0
230
1
100
AcDbText
 73
    1
  0
TEXT
  5
193
100
AcDbEntity
  8
0
  6
ByLayer
 62
    7
370
   -1
100
AcDbText
 10
236.093
 20
112.79759508
 30
0
 40
1.778
  1
6
 50
0
 41
1.1
 51
0
  7
宋体
 71
    0
 72
    2
 11
236.093
 21
112.79759508
 31
0
210
0
220
0
230
1
100
AcDbText
 73
    1
  0
LWPOLYLINE
  5
194
100
AcDbEntity
  8
0
  6
ByLayer
 62
   16
420
8912896
370
   -1
100
AcDbPolyline
 90
    2
 70
    0
 43
0
 10
233.68
 20
113.03
 10
236.22
 20
113.03
  0
TEXT
  5
195
100
AcDbEntity
  8
0
  6
ByLayer
 62
    7
370
   -1
100
AcDbText
 10
237.1598
 20
108.98759508
 30
0
 40
1.778
  1
CS
 50
0
 41
1.1
 51
0
  7
宋体
 71
    0
 11
237.1598
 21
108.98759508
 31
0
210
0
220
0
230
1
100
AcDbText
 73
    1
  0
TEXT
  5
196
100
AcDbEntity
  8
0
  6
ByLayer
 62
    7
370
   -1
100
AcDbText
 10
236.093
 20
110.25759508
 30
0
 40
1.778
  1
7
 50
0
 41
1.1
 51
0
  7
宋体
 71
    0
 72
    2
 11
236.093
 21
110.25759508
 31
0
210
0
220
0
230
1
100
AcDbText
 73
    1
  0
LWPOLYLINE
  5
197
100
AcDbEntity
  8
0
  6
ByLayer
 62
   16
420
8912896
370
   -1
100
AcDbPolyline
 90
    2
 70
    0
 43
0
 10
233.68
 20
110.49
 10
236.22
 20
110.49
  0
TEXT
  5
198
100
AcDbEntity
  8
0
  6
ByLayer
 62
    5
370
   -1
100
AcDbText
 10
55.88
 20
74.93000000000001
 30
0
 40
1.778
  1
330
 50
0
 41
1.1
 51
0
  7
宋体
 71
    0
 11
55.88
 21
74.93000000000001
 31
0
210
0
220
0
230
1
100
AcDbText
 73
    1
  0
TEXT
  5
199
100
AcDbEntity
  8
0
  6
ByLayer
 62
    5
370
   -1
100
AcDbText
 10
55.88
 20
77.47
 30
0
 40
1.778
  1
R3
 50
0
 41
1.1
 51
0
  7
宋体
 71
    0
 11
55.88
 21
77.47
 31
0
210
0
220
0
230
1
100
AcDbText
 73
    1
  0
LWPOLYLINE
  5
19A
100
AcDbEntity
  8
0
  6
ByLayer
 62
   14
420
10485760
370
   -1
100
AcDbPolyline
 90
    4
 70
    1
 43
0
 10
52.324
 20
74.92999999999999
 10
52.324
 20
80.01000000000001
 10
54.35599999999999
 20
80.01000000000001
 10
54.35599999999999
 20
74.92999999999999
  0
LWPOLYLINE
  5
19B
100
AcDbEntity
  8
0
  6
ByLayer
 62
   16
420
8912896
370
   -1
100
AcDbPolyline
 90
    2
 70
    0
 43
0
 10
53.34
 20
82.55
 10
53.34
 20
80.00999999999999
  0
LWPOLYLINE
  5
19C
100
AcDbEntity
  8
0
  6
ByLayer
 62
   16
420
8912896
370
   -1
100
AcDbPolyline
 90
    2
 70
    0
 43
0
 10
53.34
 20
72.39
 10
53.34
 20
74.93000000000001
  0
TEXT
  5
19D
100
AcDbEntity
  8
0
  6
ByLayer
 62
    5
370
   -1
100
AcDbText
 10
232.41
 20
147.32
 30
0
 40
1.778
  1
42-21A/R6C-AX1Y1B/1T
 50
0
 41
1.1
 51
0
  7
宋体
 71
    0
 11
232.41
 21
147.32
 31
0
210
0
220
0
230
1
100
AcDbText
 73
    1
  0
TEXT
  5
19E
100
AcDbEntity
  8
0
  6
ByLayer
 62
  176
420
  128
370
   -1
100
AcDbText
 10
232.41
 20
158.75
 30
0
 40
1.778
  1
LED2
 50
0
 41
1.1
 51
0
  7
宋体
 71
    0
 11
232.41
 21
158.75
 31
0
210
0
220
0
230
1
100
AcDbText
 73
    1
  0
LWPOLYLINE
  5
19F
100
AcDbEntity
  8
0
  6
ByLayer
 62
   14
420
10485760
370
   -1
100
AcDbPolyline
 90
    2
 70
    0
 43
0
 10
234.95
 20
154.94
 10
236.728
 20
156.718
  0
LWPOLYLINE
  5
1A0
100
AcDbEntity
  8
0
  6
ByLayer
 62
   14
420
10485760
370
   -1
100
AcDbPolyline
 90
    2
 70
    0
 43
0
 10
233.934
 20
155.956
 10
235.712
 20
157.734
  0
LWPOLYLINE
  5
1A1
100
AcDbEntity
  8
0
  6
ByLayer
 62
   14
420
10485760
370
   -1
100
AcDbPolyline
 90
    3
 70
    1
 43
0
 10
236.728
 20
156.718
 10
235.712
 20
156.21
 10
236.22
 20
155.702
  0
LWPOLYLINE
  5
1A2
100
AcDbEntity
  8
0
  6
ByLayer
 62
   14
420
10485760
370
   -1
100
AcDbPolyline
 90
    3
 70
    1
 43
0
 10
235.712
 20
157.734
 10
234.696
 20
157.226
 10
235.204
 20
156.718
  0
LWPOLYLINE
  5
1A3
100
AcDbEntity
  8
0
  6
ByLayer
 62
   14
420
10485760
370
   -1
100
AcDbPolyline
 90
    3
 70
    1
 43
0
 10
232.41
 20
150.876
 10
234.95
 20
152.4
 10
232.41
 20
154.178
  0
LWPOLYLINE
  5
1A4
100
AcDbEntity
  8
0
  6
ByLayer
 62
   14
420
10485760
370
   -1
100
AcDbPolyline
 90
    2
 70
    0
 43
0
 10
234.95
 20
150.622
 10
234.95
 20
154.178
  0
LWPOLYLINE
  5
1A5
100
AcDbEntity
  8
0
  6
ByLayer
 62
   16
420
8912896
370
   -1
100
AcDbPolyline
 90
    2
 70
    0
 43
0
 10
228.6
 20
152.4
 10
232.41
 20
152.4
  0
LWPOLYLINE
  5
1A6
100
AcDbEntity
  8
0
  6
ByLayer
 62
   16
420
8912896
370
   -1
100
AcDbPolyline
 90
    2
 70
    0
 43
0
 10
238.76
 20
152.4
 10
234.95
 20
152.4
  0
TEXT
  5
1A7
100
AcDbEntity
  8
0
  6
ByLayer
 62
    5
370
   -1
100
AcDbText
 10
232.41
 20
133.35
 30
0
 40
1.778
  1
15-21SYGD/S530-E2/TR8
 50
0
 41
1.1
 51
0
  7
宋体
 71
    0
 11
232.41
 21
133.35
 31
0
210
0
220
0
230
1
100
AcDbText
 73
    1
  0
TEXT
  5
1A8
100
AcDbEntity
  8
0
  6
ByLayer
 62
  176
420
  128
370
   -1
100
AcDbText
 10
232.41
 20
143.51
 30
0
 40
1.778
  1
LED3
 50
0
 41
1.1
 51
0
  7
宋体
 71
    0
 11
232.41
 21
143.51
 31
0
210
0
220
0
230
1
100
AcDbText
 73
    1
  0
LWPOLYLINE
  5
1A9
100
AcDbEntity
  8
0
  6
ByLayer
 62
   14
420
10485760
370
   -1
100
AcDbPolyline
 90
    3
 70
    1
 43
0
 10
237.49
 20
141.732
 10
236.474
 20
141.224
 10
236.982
 20
140.716
  0
LWPOLYLINE
  5
1AA
100
AcDbEntity
  8
0
  6
ByLayer
 62
   14
420
10485760
370
   -1
100
AcDbPolyline
 90
    3
 70
    1
 43
0
 10
236.474
 20
142.748
 10
235.458
 20
142.24
 10
235.966
 20
141.732
  0
LWPOLYLINE
  5
1AB
100
AcDbEntity
  8
0
  6
ByLayer
 62
   14
420
10485760
370
   -1
100
AcDbPolyline
 90
    2
 70
    0
 43
0
 10
235.712
 20
139.954
 10
237.49
 20
141.732
  0
LWPOLYLINE
  5
1AC
100
AcDbEntity
  8
0
  6
ByLayer
 62
   14
420
10485760
370
   -1
100
AcDbPolyline
 90
    2
 70
    0
 43
0
 10
234.696
 20
140.97
 10
236.474
 20
142.748
  0
LWPOLYLINE
  5
1AD
100
AcDbEntity
  8
0
  6
ByLayer
 62
   14
420
10485760
370
   -1
100
AcDbPolyline
 90
    2
 70
    0
 43
0
 10
234.95
 20
140.462
 10
234.95
 20
136.398
  0
LWPOLYLINE
  5
1AE
100
AcDbEntity
  8
0
  6
ByLayer
 62
   14
420
10485760
370
   -1
100
AcDbPolyline
 90
    3
 70
    1
 43
0
 10
232.41
 20
136.906
 10
234.95
 20
138.43
 10
232.41
 20
140.208
  0
LWPOLYLINE
  5
1AF
100
AcDbEntity
  8
0
  6
ByLayer
 62
   16
420
8912896
370
   -1
100
AcDbPolyline
 90
    2
 70
    0
 43
0
 10
238.76
 20
138.43
 10
234.95
 20
138.43
  0
LWPOLYLINE
  5
1B0
100
AcDbEntity
  8
0
  6
ByLayer
 62
   16
420
8912896
370
   -1
100
AcDbPolyline
 90
    2
 70
    0
 43
0
 10
228.6
 20
138.43
 10
232.41
 20
138.43
  0
TEXT
  5
1B1
100
AcDbEntity
  8
0
  6
ByLayer
 62
    5
370
   -1
100
AcDbText
 10
241.3
 20
148.59
 30
0
 40
1.778
  1
330
 50
0
 41
1.1
 51
0
  7
宋体
 71
    0
 11
241.3
 21
148.59
 31
0
210
0
220
0
230
1
100
AcDbText
 73
    1
  0
TEXT
  5
1B2
100
AcDbEntity
  8
0
  6
ByLayer
 62
    5
370
   -1
100
AcDbText
 10
241.3
 20
153.67
 30
0
 40
1.778
  1
R4
 50
0
 41
1.1
 51
0
  7
宋体
 71
    0
 11
241.3
 21
153.67
 31
0
210
0
220
0
230
1
100
AcDbText
 73
    1
  0
LWPOLYLINE
  5
1B3
100
AcDbEntity
  8
0
  6
ByLayer
 62
   14
420
10485760
370
   -1
100
AcDbPolyline
 90
    4
 70
    1
 43
0
 10
241.3
 20
153.416
 10
246.38
 20
153.416
 10
246.38
 20
151.384
 10
241.3
 20
151.384
  0
LWPOLYLINE
  5
1B4
100
AcDbEntity
  8
0
  6
ByLayer
 62
   16
420
8912896
370
   -1
100
AcDbPolyline
 90
    2
 70
    0
 43
0
 10
248.92
 20
152.4
 10
246.38
 20
152.4
  0
LWPOLYLINE
  5
1B5
100
AcDbEntity
  8
0
  6
ByLayer
 62
   16
420
8912896
370
   -1
100
AcDbPolyline
 90
    2
 70
    0
 43
0
 10
238.76
 20
152.4
 10
241.3
 20
152.4
  0
TEXT
  5
1B6
100
AcDbEntity
  8
0
  6
ByLayer
 62
    5
370
   -1
100
AcDbText
 10
241.3
 20
134.62
 30
0
 40
1.778
  1
330
 50
0
 41
1.1
 51
0
  7
宋体
 71
    0
 11
241.3
 21
134.62
 31
0
210
0
220
0
230
1
100
AcDbText
 73
    1
  0
TEXT
  5
1B7
100
AcDbEntity
  8
0
  6
ByLayer
 62
    5
370
   -1
100
AcDbText
 10
241.3
 20
139.7
 30
0
 40
1.778
  1
R5
 50
0
 41
1.1
 51
0
  7
宋体
 71
    0
 11
241.3
 21
139.7
 31
0
210
0
220
0
230
1
100
AcDbText
 73
    1
  0
LWPOLYLINE
  5
1B8
100
AcDbEntity
  8
0
  6
ByLayer
 62
   14
420
10485760
370
   -1
100
AcDbPolyline
 90
    4
 70
    1
 43
0
 10
241.3
 20
139.446
 10
246.38
 20
139.446
 10
246.38
 20
137.414
 10
241.3
 20
137.414
  0
LWPOLYLINE
  5
1B9
100
AcDbEntity
  8
0
  6
ByLayer
 62
   16
420
8912896
370
   -1
100
AcDbPolyline
 90
    2
 70
    0
 43
0
 10
248.92
 20
138.43
 10
246.38
 20
138.43
  0
LWPOLYLINE
  5
1BA
100
AcDbEntity
  8
0
  6
ByLayer
 62
   16
420
8912896
370
   -1
100
AcDbPolyline
 90
    2
 70
    0
 43
0
 10
238.76
 20
138.43
 10
241.3
 20
138.43
  0
TEXT
  5
1BB
100
AcDbEntity
  8
0
  6
ByLayer
 62
    5
370
   -1
100
AcDbText
 10
266.7
 20
88.90000000000001
 30
0
 40
1.778
  1
100nF
 50
0
 41
1.1
 51
0
  7
宋体
 71
    0
 11
266.7
 21
88.90000000000001
 31
0
210
0
220
0
230
1
100
AcDbText
 73
    1
  0
TEXT
  5
1BC
100
AcDbEntity
  8
0
  6
ByLayer
 62
  176
420
  128
370
   -1
100
AcDbText
 10
266.7
 20
91.44
 30
0
 40
1.778
  1
C10
 50
0
 41
1.1
 51
0
  7
宋体
 71
    0
 11
266.7
 21
91.44
 31
0
210
0
220
0
230
1
100
AcDbText
 73
    1
  0
LWPOLYLINE
  5
1BD
100
AcDbEntity
  8
0
  6
ByLayer
 62
   14
420
10485760
370
   -1
100
AcDbPolyline
 90
    2
 70
    0
 43
0
 10
265.938
 20
93.47199999999999
 10
265.938
 20
89.408
  0
LWPOLYLINE
  5
1BE
100
AcDbEntity
  8
0
  6
ByLayer
 62
   14
420
10485760
370
   -1
100
AcDbPolyline
 90
    2
 70
    0
 43
0
 10
262.89
 20
91.44
 10
264.922
 20
91.44
  0
LWPOLYLINE
  5
1BF
100
AcDbEntity
  8
0
  6
ByLayer
 62
   14
420
10485760
370
   -1
100
AcDbPolyline
 90
    2
 70
    0
 43
0
 10
264.922
 20
89.408
 10
264.922
 20
93.47199999999999
  0
LWPOLYLINE
  5
1C0
100
AcDbEntity
  8
0
  6
ByLayer
 62
   14
420
10485760
370
   -1
100
AcDbPolyline
 90
    2
 70
    0
 43
0
 10
265.938
 20
91.44
 10
267.97
 20
91.44
  0
LWPOLYLINE
  5
1C1
100
AcDbEntity
  8
0
  6
ByLayer
 62
   16
420
8912896
370
   -1
100
AcDbPolyline
 90
    2
 70
    0
 43
0
 10
270.51
 20
91.44
 10
267.97
 20
91.44
  0
LWPOLYLINE
  5
1C2
100
AcDbEntity
  8
0
  6
ByLayer
 62
   16
420
8912896
370
   -1
100
AcDbPolyline
 90
    2
 70
    0
 43
0
 10
260.35
 20
91.44
 10
262.89
 20
91.44
  0
TEXT
  5
1C3
100
AcDbEntity
  8
0
  6
ByLayer
 62
    5
370
   -1
100
AcDbText
 10
260.35
 20
78.73999999999999
 30
0
 40
1.778
  1
100nF
 50
0
 41
1.1
 51
0
  7
宋体
 71
    0
 11
260.35
 21
78.73999999999999
 31
0
210
0
220
0
230
1
100
AcDbText
 73
    1
  0
TEXT
  5
1C4
100
AcDbEntity
  8
0
  6
ByLayer
 62
  176
420
  128
370
   -1
100
AcDbText
 10
260.35
 20
81.28
 30
0
 40
1.778
  1
C11
 50
0
 41
1.1
 51
0
  7
宋体
 71
    0
 11
260.35
 21
81.28
 31
0
210
0
220
0
230
1
100
AcDbText
 73
    1
  0
LWPOLYLINE
  5
1C5
100
AcDbEntity
  8
0
  6
ByLayer
 62
   14
420
10485760
370
   -1
100
AcDbPolyline
 90
    2
 70
    0
 43
0
 10
259.588
 20
83.312
 10
259.588
 20
79.248
  0
LWPOLYLINE
  5
1C6
100
AcDbEntity
  8
0
  6
ByLayer
 62
   14
420
10485760
370
   -1
100
AcDbPolyline
 90
    2
 70
    0
 43
0
 10
256.54
 20
81.28
 10
258.572
 20
81.28
  0
LWPOLYLINE
  5
1C7
100
AcDbEntity
  8
0
  6
ByLayer
 62
   14
420
10485760
370
   -1
100
AcDbPolyline
 90
    2
 70
    0
 43
0
 10
258.572
 20
79.248
 10
258.572
 20
83.312
  0
LWPOLYLINE
  5
1C8
100
AcDbEntity
  8
0
  6
ByLayer
 62
   14
420
10485760
370
   -1
100
AcDbPolyline
 90
    2
 70
    0
 43
0
 10
259.588
 20
81.28
 10
261.62
 20
81.28
  0
LWPOLYLINE
  5
1C9
100
AcDbEntity
  8
0
  6
ByLayer
 62
   16
420
8912896
370
   -1
100
AcDbPolyline
 90
    2
 70
    0
 43
0
 10
264.16
 20
81.28
 10
261.6199999999999
 20
81.28
  0
LWPOLYLINE
  5
1CA
100
AcDbEntity
  8
0
  6
ByLayer
 62
   16
420
8912896
370
   -1
100
AcDbPolyline
 90
    2
 70
    0
 43
0
 10
254
 20
81.28
 10
256.54
 20
81.28
  0
TEXT
  5
1CB
100
AcDbEntity
  8
0
  6
ByLayer
 62
    5
370
   -1
100
AcDbText
 10
254
 20
83.82000000000001
 30
0
 40
1.778
  1
100nF
 50
0
 41
1.1
 51
0
  7
宋体
 71
    0
 11
254
 21
83.82000000000001
 31
0
210
0
220
0
230
1
100
AcDbText
 73
    1
  0
TEXT
  5
1CC
100
AcDbEntity
  8
0
  6
ByLayer
 62
  176
420
  128
370
   -1
100
AcDbText
 10
247.65
 20
83.82000000000001
 30
0
 40
1.778
  1
C12
 50
0
 41
1.1
 51
0
  7
宋体
 71
    0
 11
247.65
 21
83.82000000000001
 31
0
210
0
220
0
230
1
100
AcDbText
 73
    1
  0
LWPOLYLINE
  5
1CD
100
AcDbEntity
  8
0
  6
ByLayer
 62
   14
420
10485760
370
   -1
100
AcDbPolyline
 90
    2
 70
    0
 43
0
 10
253.238
 20
88.392
 10
253.238
 20
84.328
  0
LWPOLYLINE
  5
1CE
100
AcDbEntity
  8
0
  6
ByLayer
 62
   14
420
10485760
370
   -1
100
AcDbPolyline
 90
    2
 70
    0
 43
0
 10
250.19
 20
86.36
 10
252.222
 20
86.36
  0
LWPOLYLINE
  5
1CF
100
AcDbEntity
  8
0
  6
ByLayer
 62
   14
420
10485760
370
   -1
100
AcDbPolyline
 90
    2
 70
    0
 43
0
 10
252.222
 20
84.328
 10
252.222
 20
88.392
  0
LWPOLYLINE
  5
1D0
100
AcDbEntity
  8
0
  6
ByLayer
 62
   14
420
10485760
370
   -1
100
AcDbPolyline
 90
    2
 70
    0
 43
0
 10
253.238
 20
86.36
 10
255.27
 20
86.36
  0
LWPOLYLINE
  5
1D1
100
AcDbEntity
  8
0
  6
ByLayer
 62
   16
420
8912896
370
   -1
100
AcDbPolyline
 90
    2
 70
    0
 43
0
 10
257.81
 20
86.36
 10
255.27
 20
86.36
  0
LWPOLYLINE
  5
1D2
100
AcDbEntity
  8
0
  6
ByLayer
 62
   16
420
8912896
370
   -1
100
AcDbPolyline
 90
    2
 70
    0
 43
0
 10
247.65
 20
86.36
 10
250.19
 20
86.36
  0
TEXT
  5
1D3
100
AcDbEntity
  8
0
  6
ByLayer
 62
    5
370
   -1
100
AcDbText
 10
250.19
 20
96.52
 30
0
 40
1.778
  1
100nF
 50
0
 41
1.1
 51
0
  7
宋体
 71
    0
 11
250.19
 21
96.52
 31
0
210
0
220
0
230
1
100
AcDbText
 73
    1
  0
TEXT
  5
1D4
100
AcDbEntity
  8
0
  6
ByLayer
 62
  176
420
  128
370
   -1
100
AcDbText
 10
254
 20
93.98
 30
0
 40
1.778
  1
C13
 50
0
 41
1.1
 51
0
  7
宋体
 71
    0
 11
254
 21
93.98
 31
0
210
0
220
0
230
1
100
AcDbText
 73
    1
  0
LWPOLYLINE
  5
1D5
100
AcDbEntity
  8
0
  6
ByLayer
 62
   14
420
10485760
370
   -1
100
AcDbPolyline
 90
    2
 70
    0
 43
0
 10
253.238
 20
96.012
 10
253.238
 20
91.94800000000001
  0
LWPOLYLINE
  5
1D6
100
AcDbEntity
  8
0
  6
ByLayer
 62
   14
420
10485760
370
   -1
100
AcDbPolyline
 90
    2
 70
    0
 43
0
 10
250.19
 20
93.98
 10
252.222
 20
93.98
  0
LWPOLYLINE
  5
1D7
100
AcDbEntity
  8
0
  6
ByLayer
 62
   14
420
10485760
370
   -1
100
AcDbPolyline
 90
    2
 70
    0
 43
0
 10
252.222
 20
91.94800000000001
 10
252.222
 20
96.012
  0
LWPOLYLINE
  5
1D8
100
AcDbEntity
  8
0
  6
ByLayer
 62
   14
420
10485760
370
   -1
100
AcDbPolyline
 90
    2
 70
    0
 43
0
 10
253.238
 20
93.98
 10
255.27
 20
93.98
  0
LWPOLYLINE
  5
1D9
100
AcDbEntity
  8
0
  6
ByLayer
 62
   16
420
8912896
370
   -1
100
AcDbPolyline
 90
    2
 70
    0
 43
0
 10
257.81
 20
93.98
 10
255.27
 20
93.98
  0
LWPOLYLINE
  5
1DA
100
AcDbEntity
  8
0
  6
ByLayer
 62
   16
420
8912896
370
   -1
100
AcDbPolyline
 90
    2
 70
    0
 43
0
 10
247.65
 20
93.98
 10
250.19
 20
93.98
  0
TEXT
  5
1DB
100
AcDbEntity
  8
0
  6
ByLayer
 62
    5
370
   -1
100
AcDbText
 10
184.15
 20
82.55
 30
0
 40
1.778
  1
1110-1x3(L11.5)PA6T
 50
0
 41
1.1
 51
0
  7
宋体
 71
    0
 11
184.15
 21
82.55
 31
0
210
0
220
0
230
1
100
AcDbText
 73
    1
  0
TEXT
  5
1DC
100
AcDbEntity
  8
0
  6
ByLayer
 62
  176
420
  128
370
   -1
100
AcDbText
 10
184.15
 20
95.25
 30
0
 40
1.778
  1
U7
 50
0
 41
1.1
 51
0
  7
宋体
 71
    0
 11
184.15
 21
95.25
 31
0
210
0
220
0
230
1
100
AcDbText
 73
    1
  0
LWPOLYLINE
  5
1DD
100
AcDbEntity
  8
0
  6
ByLayer
 62
   14
420
10485760
370
   -1
100
AcDbPolyline
 90
    4
 70
    1
 43
0
 10
189.23
 20
85.09
 10
184.15
 20
85.09
 10
184.15
 20
95.25
 10
189.23
 20
95.25
  0
CIRCLE
  5
1DE
100
AcDbEntity
  8
0
  6
ByLayer
 62
   14
420
10485760
370
    0
100
AcDbCircle
 10
187.96
 20
86.36
 40
0.381
  0
TEXT
  5
1DF
100
AcDbEntity
  8
0
  6
ByLayer
 62
    7
370
   -1
100
AcDbText
 10
188.2902
 20
89.13240492
 30
0
 40
1.778
  1
1
 50
0
 41
1.1
 51
0
  7
宋体
 71
    0
 72
    2
 11
188.2902
 21
89.13240492
 31
0
210
0
220
0
230
1
100
AcDbText
 73
    1
  0
TEXT
  5
1E0
100
AcDbEntity
  8
0
  6
ByLayer
 62
    7
370
   -1
100
AcDbText
 10
189.357
 20
87.86240492
 30
0
 40
1.778
  1
1
 50
0
 41
1.1
 51
0
  7
宋体
 71
    0
 11
189.357
 21
87.86240492
 31
0
210
0
220
0
230
1
100
AcDbText
 73
    1
  0
LWPOLYLINE
  5
1E1
100
AcDbEntity
  8
0
  6
ByLayer
 62
   16
420
8912896
370
   -1
100
AcDbPolyline
 90
    2
 70
    0
 43
0
 10
191.77
 20
87.63
 10
189.23
 20
87.63
  0
TEXT
  5
1E2
100
AcDbEntity
  8
0
  6
ByLayer
 62
    7
370
   -1
100
AcDbText
 10
188.2902
 20
91.67240492000001
 30
0
 40
1.778
  1
2
 50
0
 41
1.1
 51
0
  7
宋体
 71
    0
 72
    2
 11
188.2902
 21
91.67240492000001
 31
0
210
0
220
0
230
1
100
AcDbText
 73
    1
  0
TEXT
  5
1E3
100
AcDbEntity
  8
0
  6
ByLayer
 62
    7
370
   -1
100
AcDbText
 10
189.357
 20
90.40240492
 30
0
 40
1.778
  1
2
 50
0
 41
1.1
 51
0
  7
宋体
 71
    0
 11
189.357
 21
90.40240492
 31
0
210
0
220
0
230
1
100
AcDbText
 73
    1
  0
LWPOLYLINE
  5
1E4
100
AcDbEntity
  8
0
  6
ByLayer
 62
   16
420
8912896
370
   -1
100
AcDbPolyline
 90
    2
 70
    0
 43
0
 10
191.77
 20
90.17
 10
189.23
 20
90.17
  0
TEXT
  5
1E5
100
AcDbEntity
  8
0
  6
ByLayer
 62
    7
370
   -1
100
AcDbText
 10
188.2902
 20
94.21240492
 30
0
 40
1.778
  1
3
 50
0
 41
1.1
 51
0
  7
宋体
 71
    0
 72
    2
 11
188.2902
 21
94.21240492
 31
0
210
0
220
0
230
1
100
AcDbText
 73
    1
  0
TEXT
  5
1E6
100
AcDbEntity
  8
0
  6
ByLayer
 62
    7
370
   -1
100
AcDbText
 10
189.357
 20
92.94240492
 30
0
 40
1.778
  1
3
 50
0
 41
1.1
 51
0
  7
宋体
 71
    0
 11
189.357
 21
92.94240492
 31
0
210
0
220
0
230
1
100
AcDbText
 73
    1
  0
LWPOLYLINE
  5
1E7
100
AcDbEntity
  8
0
  6
ByLayer
 62
   16
420
8912896
370
   -1
100
AcDbPolyline
 90
    2
 70
    0
 43
0
 10
191.77
 20
92.71000000000001
 10
189.23
 20
92.71000000000001
  0
TEXT
  5
1E8
100
AcDbEntity
  8
0
  6
ByLayer
 62
    5
370
   -1
100
AcDbText
 10
91.44
 20
49.53
 30
0
 40
1.778
  1
2.54-1*6P母
 50
0
 41
1.1
 51
0
  7
宋体
 71
    0
 11
91.44
 21
49.53
 31
0
210
0
220
0
230
1
100
AcDbText
 73
    1
  0
TEXT
  5
1E9
100
AcDbEntity
  8
0
  6
ByLayer
 62
  176
420
  128
370
   -1
100
AcDbText
 10
107.95
 20
55.88
 30
0
 40
1.20015
  1
P1
 50
0
 41
1.1
 51
0
  7
宋体
 71
    0
 11
107.95
 21
55.88
 31
0
210
0
220
0
230
1
100
AcDbText
 73
    1
  0
LWPOLYLINE
  5
1EA
100
AcDbEntity
  8
0
  6
ByLayer
 62
   14
420
10485760
370
   -1
100
AcDbPolyline
 90
    4
 70
    1
 43
0
 10
106.68
 20
58.42
 10
106.68
 20
53.34000000000002
 10
88.90000000000001
 20
53.34000000000002
 10
88.90000000000001
 20
58.42
  0
CIRCLE
  5
1EB
100
AcDbEntity
  8
0
  6
ByLayer
 62
   14
420
10485760
370
    0
100
AcDbCircle
 10
105.41
 20
57.15
 40
0.381
  0
TEXT
  5
1EC
100
AcDbEntity
  8
0
  6
ByLayer
 62
    7
370
   -1
100
AcDbText
 10
102.63759508
 20
57.4802
 30
0
 40
1.778
  1
1
 50
270
 41
1.1
 51
0
  7
宋体
 71
    0
 11
102.63759508
 21
57.4802
 31
0
210
0
220
0
230
1
100
AcDbText
 73
    1
  0
TEXT
  5
1ED
100
AcDbEntity
  8
0
  6
ByLayer
 62
    7
370
   -1
100
AcDbText
 10
103.90759508
 20
58.547
 30
0
 40
1.778
  1
1
 50
270
 41
1.1
 51
0
  7
宋体
 71
    0
 72
    2
 11
103.90759508
 21
58.547
 31
0
210
0
220
0
230
1
100
AcDbText
 73
    1
  0
LWPOLYLINE
  5
1EE
100
AcDbEntity
  8
0
  6
ByLayer
 62
   16
420
8912896
370
   -1
100
AcDbPolyline
 90
    2
 70
    0
 43
0
 10
104.14
 20
60.96
 10
104.14
 20
58.42
  0
TEXT
  5
1EF
100
AcDbEntity
  8
0
  6
ByLayer
 62
    7
370
   -1
100
AcDbText
 10
100.09759508
 20
57.4802
 30
0
 40
1.778
  1
2
 50
270
 41
1.1
 51
0
  7
宋体
 71
    0
 11
100.09759508
 21
57.4802
 31
0
210
0
220
0
230
1
100
AcDbText
 73
    1
  0
TEXT
  5
1F0
100
AcDbEntity
  8
0
  6
ByLayer
 62
    7
370
   -1
100
AcDbText
 10
101.36759508
 20
58.547
 30
0
 40
1.778
  1
2
 50
270
 41
1.1
 51
0
  7
宋体
 71
    0
 72
    2
 11
101.36759508
 21
58.547
 31
0
210
0
220
0
230
1
100
AcDbText
 73
    1
  0
LWPOLYLINE
  5
1F1
100
AcDbEntity
  8
0
  6
ByLayer
 62
   16
420
8912896
370
   -1
100
AcDbPolyline
 90
    2
 70
    0
 43
0
 10
101.6
 20
60.96
 10
101.6
 20
58.42
  0
TEXT
  5
1F2
100
AcDbEntity
  8
0
  6
ByLayer
 62
    7
370
   -1
100
AcDbText
 10
97.55759508000001
 20
57.4802
 30
0
 40
1.778
  1
3
 50
270
 41
1.1
 51
0
  7
宋体
 71
    0
 11
97.55759508000001
 21
57.4802
 31
0
210
0
220
0
230
1
100
AcDbText
 73
    1
  0
TEXT
  5
1F3
100
AcDbEntity
  8
0
  6
ByLayer
 62
    7
370
   -1
100
AcDbText
 10
98.82759508000001
 20
58.547
 30
0
 40
1.778
  1
3
 50
270
 41
1.1
 51
0
  7
宋体
 71
    0
 72
    2
 11
98.82759508000001
 21
58.547
 31
0
210
0
220
0
230
1
100
AcDbText
 73
    1
  0
LWPOLYLINE
  5
1F4
100
AcDbEntity
  8
0
  6
ByLayer
 62
   16
420
8912896
370
   -1
100
AcDbPolyline
 90
    2
 70
    0
 43
0
 10
99.06
 20
60.96
 10
99.06
 20
58.42
  0
TEXT
  5
1F5
100
AcDbEntity
  8
0
  6
ByLayer
 62
    7
370
   -1
100
AcDbText
 10
95.01759508000001
 20
57.4802
 30
0
 40
1.778
  1
4
 50
270
 41
1.1
 51
0
  7
宋体
 71
    0
 11
95.01759508000001
 21
57.4802
 31
0
210
0
220
0
230
1
100
AcDbText
 73
    1
  0
TEXT
  5
1F6
100
AcDbEntity
  8
0
  6
ByLayer
 62
    7
370
   -1
100
AcDbText
 10
96.28759508
 20
58.547
 30
0
 40
1.778
  1
4
 50
270
 41
1.1
 51
0
  7
宋体
 71
    0
 72
    2
 11
96.28759508
 21
58.547
 31
0
210
0
220
0
230
1
100
AcDbText
 73
    1
  0
LWPOLYLINE
  5
1F7
100
AcDbEntity
  8
0
  6
ByLayer
 62
   16
420
8912896
370
   -1
100
AcDbPolyline
 90
    2
 70
    0
 43
0
 10
96.52000000000001
 20
60.96
 10
96.52000000000001
 20
58.42
  0
TEXT
  5
1F8
100
AcDbEntity
  8
0
  6
ByLayer
 62
    7
370
   -1
100
AcDbText
 10
92.47759508
 20
57.4802
 30
0
 40
1.778
  1
5
 50
270
 41
1.1
 51
0
  7
宋体
 71
    0
 11
92.47759508
 21
57.4802
 31
0
210
0
220
0
230
1
100
AcDbText
 73
    1
  0
TEXT
  5
1F9
100
AcDbEntity
  8
0
  6
ByLayer
 62
    7
370
   -1
100
AcDbText
 10
93.74759508000001
 20
58.547
 30
0
 40
1.778
  1
5
 50
270
 41
1.1
 51
0
  7
宋体
 71
    0
 72
    2
 11
93.74759508000001
 21
58.547
 31
0
210
0
220
0
230
1
100
AcDbText
 73
    1
  0
LWPOLYLINE
  5
1FA
100
AcDbEntity
  8
0
  6
ByLayer
 62
   16
420
8912896
370
   -1
100
AcDbPolyline
 90
    2
 70
    0
 43
0
 10
93.98
 20
60.96
 10
93.98
 20
58.42
  0
TEXT
  5
1FB
100
AcDbEntity
  8
0
  6
ByLayer
 62
    7
370
   -1
100
AcDbText
 10
89.93759508000001
 20
57.4802
 30
0
 40
1.778
  1
6
 50
270
 41
1.1
 51
0
  7
宋体
 71
    0
 11
89.93759508000001
 21
57.4802
 31
0
210
0
220
0
230
1
100
AcDbText
 73
    1
  0
TEXT
  5
1FC
100
AcDbEntity
  8
0
  6
ByLayer
 62
    7
370
   -1
100
AcDbText
 10
91.20759508
 20
58.547
 30
0
 40
1.778
  1
6
 50
270
 41
1.1
 51
0
  7
宋体
 71
    0
 72
    2
 11
91.20759508
 21
58.547
 31
0
210
0
220
0
230
1
100
AcDbText
 73
    1
  0
LWPOLYLINE
  5
1FD
100
AcDbEntity
  8
0
  6
ByLayer
 62
   16
420
8912896
370
   -1
100
AcDbPolyline
 90
    2
 70
    0
 43
0
 10
91.44000000000001
 20
60.96
 10
91.44000000000001
 20
58.42
  0
TEXT
  5
1FE
100
AcDbEntity
  8
0
  6
ByLayer
 62
    5
370
   -1
100
AcDbText
 10
182.88
 20
181.61
 30
0
 40
1.778
  1
100nF
 50
0
 41
1.1
 51
0
  7
宋体
 71
    0
 11
182.88
 21
181.61
 31
0
210
0
220
0
230
1
100
AcDbText
 73
    1
  0
TEXT
  5
1FF
100
AcDbEntity
  8
0
  6
ByLayer
 62
  176
420
  128
370
   -1
100
AcDbText
 10
182.88
 20
184.15
 30
0
 40
1.778
  1
C14
 50
0
 41
1.1
 51
0
  7
宋体
 71
    0
 11
182.88
 21
184.15
 31
0
210
0
220
0
230
1
100
AcDbText
 73
    1
  0
LWPOLYLINE
  5
200
100
AcDbEntity
  8
0
  6
ByLayer
 62
   14
420
10485760
370
   -1
100
AcDbPolyline
 90
    2
 70
    0
 43
0
 10
193.802
 20
182.372
 10
189.738
 20
182.372
  0
LWPOLYLINE
  5
201
100
AcDbEntity
  8
0
  6
ByLayer
 62
   14
420
10485760
370
   -1
100
AcDbPolyline
 90
    2
 70
    0
 43
0
 10
191.77
 20
185.42
 10
191.77
 20
183.388
  0
LWPOLYLINE
  5
202
100
AcDbEntity
  8
0
  6
ByLayer
 62
   14
420
10485760
370
   -1
100
AcDbPolyline
 90
    2
 70
    0
 43
0
 10
189.738
 20
183.388
 10
193.802
 20
183.388
  0
LWPOLYLINE
  5
203
100
AcDbEntity
  8
0
  6
ByLayer
 62
   14
420
10485760
370
   -1
100
AcDbPolyline
 90
    2
 70
    0
 43
0
 10
191.77
 20
182.372
 10
191.77
 20
180.34
  0
LWPOLYLINE
  5
204
100
AcDbEntity
  8
0
  6
ByLayer
 62
   16
420
8912896
370
   -1
100
AcDbPolyline
 90
    2
 70
    0
 43
0
 10
191.77
 20
177.8
 10
191.77
 20
180.34
  0
LWPOLYLINE
  5
205
100
AcDbEntity
  8
0
  6
ByLayer
 62
   16
420
8912896
370
   -1
100
AcDbPolyline
 90
    2
 70
    0
 43
0
 10
191.77
 20
187.96
 10
191.77
 20
185.42
  0
TEXT
  5
206
100
AcDbEntity
  8
0
  6
ByLayer
 62
  176
420
  128
370
   -1
100
AcDbText
 10
193.04
 20
148.59
 30
0
 40
1.778
  1
VCC33
 50
0
 41
1.1
 51
0
  7
宋体
 71
    0
 72
    1
 11
193.04
 21
148.59
 31
0
210
0
220
0
230
1
100
AcDbText
 73
    2
  0
LWPOLYLINE
  5
207
100
AcDbEntity
  8
0
  6
ByLayer
 62
   16
420
8912896
370
   -1
100
AcDbPolyline
 90
    2
 70
    0
 43
0
 10
191.77
 20
153.67
 10
191.77
 20
152.4
  0
LWPOLYLINE
  5
208
100
AcDbEntity
  8
0
  6
ByLayer
 62
   14
420
10485760
370
   -1
100
AcDbPolyline
 90
    2
 70
    0
 43
0
 10
193.04
 20
151.13
 10
190.5
 20
151.13
  0
LWPOLYLINE
  5
209
100
AcDbEntity
  8
0
  6
ByLayer
 62
   14
420
10485760
370
   -1
100
AcDbPolyline
 90
    2
 70
    0
 43
0
 10
191.77
 20
151.13
 10
191.77
 20
152.4
  0
TEXT
  5
20A
100
AcDbEntity
  8
0
  6
ByLayer
 62
    5
370
   -1
100
AcDbText
 10
234.95
 20
179.07
 30
0
 40
1.778
  1
TS-1088-AR02016
 50
0
 41
1.1
 51
0
  7
宋体
 71
    0
 11
234.95
 21
179.07
 31
0
210
0
220
0
230
1
100
AcDbText
 73
    1
  0
TEXT
  5
20B
100
AcDbEntity
  8
0
  6
ByLayer
 62
  176
420
  128
370
   -1
100
AcDbText
 10
236.22
 20
189.23
 30
0
 40
1.778
  1
SW8
 50
0
 41
1.1
 51
0
  7
宋体
 71
    0
 11
236.22
 21
189.23
 31
0
210
0
220
0
230
1
100
AcDbText
 73
    1
  0
TEXT
  5
20C
100
AcDbEntity
  8
0
  6
ByLayer
 62
    7
370
   -1
100
AcDbText
 10
245.11
 20
182.64759508
 30
0
 40
1.778
  1
2
 50
0
 41
1.1
 51
0
  7
宋体
 71
    0
 11
245.11
 21
182.64759508
 31
0
210
0
220
0
230
1
100
AcDbText
 73
    1
  0
LWPOLYLINE
  5
20D
100
AcDbEntity
  8
0
  6
ByLayer
 62
   16
420
8912896
370
   -1
100
AcDbPolyline
 90
    2
 70
    0
 43
0
 10
247.65
 20
182.88
 10
245.11
 20
182.88
  0
TEXT
  5
20E
100
AcDbEntity
  8
0
  6
ByLayer
 62
    7
370
   -1
100
AcDbText
 10
234.95
 20
182.64759508
 30
0
 40
1.778
  1
1
 50
0
 41
1.1
 51
0
  7
宋体
 71
    0
 72
    2
 11
234.95
 21
182.64759508
 31
0
210
0
220
0
230
1
100
AcDbText
 73
    1
  0
LWPOLYLINE
  5
20F
100
AcDbEntity
  8
0
  6
ByLayer
 62
   16
420
8912896
370
   -1
100
AcDbPolyline
 90
    2
 70
    0
 43
0
 10
232.41
 20
182.88
 10
234.95
 20
182.88
  0
LWPOLYLINE
  5
210
100
AcDbEntity
  8
0
  6
ByLayer
 62
   14
420
10485760
370
   -1
100
AcDbPolyline
 90
    2
 70
    0
 43
0
 10
237.744
 20
183.388
 10
242.062
 20
184.658
  0
LWPOLYLINE
  5
211
100
AcDbEntity
  8
0
  6
ByLayer
 62
   14
420
10485760
370
   -1
100
AcDbPolyline
 90
    2
 70
    0
 43
0
 10
245.11
 20
182.88
 10
242.57
 20
182.88
  0
LWPOLYLINE
  5
212
100
AcDbEntity
  8
0
  6
ByLayer
 62
   14
420
10485760
370
   -1
100
AcDbPolyline
 90
    2
 70
    0
 43
0
 10
234.95
 20
182.88
 10
237.49
 20
182.88
  0
ELLIPSE
  5
213
100
AcDbEntity
  8
0
  6
ByLayer
 62
    7
370
   -1
100
AcDbEllipse
 10
242.062
 20
182.88
 30
0
 11
0
 21
0.508
 31
0
 40
1
 41
0
 42
6.283185307179586
  0
ELLIPSE
  5
214
100
AcDbEntity
  8
0
  6
ByLayer
 62
    7
370
   -1
100
AcDbEllipse
 10
237.998
 20
182.88
 30
0
 11
0
 21
0.508
 31
0
 40
1
 41
0
 42
6.283185307179586
  0
LWPOLYLINE
  5
215
100
AcDbEntity
  8
0
  6
ByLayer
 62
  161
420
6724095
370
   -1
100
AcDbPolyline
 90
    2
 70
    0
 43
0
 10
87.63
 20
166.37
 10
87.63
 20
172.72
  0
LWPOLYLINE
  5
216
100
AcDbEntity
  8
0
  6
ByLayer
 62
  161
420
6724095
370
   -1
100
AcDbPolyline
 90
    2
 70
    0
 43
0
 10
96.52
 20
166.37
 10
87.63
 20
166.37
  0
LWPOLYLINE
  5
217
100
AcDbEntity
  8
0
  6
ByLayer
 62
  161
420
6724095
370
   -1
100
AcDbPolyline
 90
    2
 70
    0
 43
0
 10
96.52
 20
181.61
 10
96.52
 20
166.37
  0
LWPOLYLINE
  5
218
100
AcDbEntity
  8
0
  6
ByLayer
 62
  161
420
6724095
370
   -1
100
AcDbPolyline
 90
    2
 70
    0
 43
0
 10
96.52
 20
181.61
 10
113.03
 20
181.61
  0
LWPOLYLINE
  5
219
100
AcDbEntity
  8
0
  6
ByLayer
 62
  161
420
6724095
370
   -1
100
AcDbPolyline
 90
    2
 70
    0
 43
0
 10
113.03
 20
181.61
 10
113.03
 20
161.29
  0
LWPOLYLINE
  5
21A
100
AcDbEntity
  8
0
  6
ByLayer
 62
  161
420
6724095
370
   -1
100
AcDbPolyline
 90
    2
 70
    0
 43
0
 10
132.08
 20
181.61
 10
113.03
 20
181.61
  0
LWPOLYLINE
  5
21B
100
AcDbEntity
  8
0
  6
ByLayer
 62
   96
420
34816
370
   -1
100
AcDbPolyline
 90
    2
 70
    0
 43
0
 10
87.63
 20
184.15
 10
87.63
 20
182.88
  0
TEXT
  5
21C
100
AcDbEntity
  8
0
  6
ByLayer
 62
    5
370
   -1
100
AcDbText
 10
87.63
 20
184.15
 30
0
 40
1.778
  1
VCC33
 50
0
 41
1.1
 51
0
  7
宋体
 71
    0
 11
87.63
 21
184.15
 31
0
210
0
220
0
230
1
100
AcDbText
 73
    1
  0
LWPOLYLINE
  5
21D
100
AcDbEntity
  8
0
  6
ByLayer
 62
   96
420
34816
370
   -1
100
AcDbPolyline
 90
    2
 70
    0
 43
0
 10
111.76
 20
204.47
 10
115.57
 20
204.47
  0
LWPOLYLINE
  5
21E
100
AcDbEntity
  8
0
  6
ByLayer
 62
   96
420
34816
370
   -1
100
AcDbPolyline
 90
    2
 70
    0
 43
0
 10
111.76
 20
196.85
 10
111.76
 20
204.47
  0
LWPOLYLINE
  5
21F
100
AcDbEntity
  8
0
  6
ByLayer
 62
   96
420
34816
370
   -1
100
AcDbPolyline
 90
    2
 70
    0
 43
0
 10
114.3
 20
196.85
 10
111.76
 20
196.85
  0
LWPOLYLINE
  5
220
100
AcDbEntity
  8
0
  6
ByLayer
 62
   96
420
34816
370
   -1
100
AcDbPolyline
 90
    2
 70
    0
 43
0
 10
111.76
 20
184.15
 10
111.76
 20
196.85
  0
LWPOLYLINE
  5
221
100
AcDbEntity
  8
0
  6
ByLayer
 62
   96
420
34816
370
   -1
100
AcDbPolyline
 90
    2
 70
    0
 43
0
 10
111.76
 20
184.15
 10
119.38
 20
184.15
  0
LWPOLYLINE
  5
222
100
AcDbEntity
  8
0
  6
ByLayer
 62
   96
420
34816
370
   -1
100
AcDbPolyline
 90
    2
 70
    0
 43
0
 10
119.38
 20
184.15
 10
119.38
 20
186.69
  0
LWPOLYLINE
  5
223
100
AcDbEntity
  8
0
  6
ByLayer
 62
   96
420
34816
370
   -1
100
AcDbPolyline
 90
    2
 70
    0
 43
0
 10
132.08
 20
184.15
 10
119.38
 20
184.15
  0
TEXT
  5
224
100
AcDbEntity
  8
0
  6
ByLayer
 62
    5
370
   -1
100
AcDbText
 10
119.38
 20
186.69
 30
0
 40
1.778
  1
VCC33
 50
0
 41
1.1
 51
0
  7
宋体
 71
    0
 11
119.38
 21
186.69
 31
0
210
0
220
0
230
1
100
AcDbText
 73
    1
  0
LWPOLYLINE
  5
225
100
AcDbEntity
  8
0
  6
ByLayer
 62
   96
420
34816
370
   -1
100
AcDbPolyline
 90
    2
 70
    0
 43
0
 10
53.34
 20
82.55
 10
53.34
 20
83.82000000000001
  0
LWPOLYLINE
  5
226
100
AcDbEntity
  8
0
  6
ByLayer
 62
   96
420
34816
370
   -1
100
AcDbPolyline
 90
    2
 70
    0
 43
0
 10
222.25
 20
91.44
 10
213.36
 20
91.44
  0
LWPOLYLINE
  5
227
100
AcDbEntity
  8
0
  6
ByLayer
 62
   96
420
34816
370
   -1
100
AcDbPolyline
 90
    2
 70
    0
 43
0
 10
191.77
 20
92.71000000000001
 10
191.77
 20
91.44
  0
LWPOLYLINE
  5
228
100
AcDbEntity
  8
0
  6
ByLayer
 62
   96
420
34816
370
   -1
100
AcDbPolyline
 90
    2
 70
    0
 43
0
 10
213.36
 20
91.44
 10
191.77
 20
91.44
  0
TEXT
  5
229
100
AcDbEntity
  8
0
  6
ByLayer
 62
    5
370
   -1
100
AcDbText
 10
205.74
 20
91.44
 30
0
 40
1.778
  1
GND
 50
0
 41
1.1
 51
0
  7
宋体
 71
    0
 11
205.74
 21
91.44
 31
0
210
0
220
0
230
1
100
AcDbText
 73
    1
  0
LWPOLYLINE
  5
22A
100
AcDbEntity
  8
0
  6
ByLayer
 62
   96
420
34816
370
   -1
100
AcDbPolyline
 90
    2
 70
    0
 43
0
 10
222.25
 20
93.98
 10
220.98
 20
93.98
  0
LWPOLYLINE
  5
22B
100
AcDbEntity
  8
0
  6
ByLayer
 62
   96
420
34816
370
   -1
100
AcDbPolyline
 90
    2
 70
    0
 43
0
 10
220.98
 20
93.98
 10
220.98
 20
102.87
  0
LWPOLYLINE
  5
22C
100
AcDbEntity
  8
0
  6
ByLayer
 62
   96
420
34816
370
   -1
100
AcDbPolyline
 90
    2
 70
    0
 43
0
 10
213.36
 20
102.87
 10
220.98
 20
102.87
  0
LWPOLYLINE
  5
22D
100
AcDbEntity
  8
0
  6
ByLayer
 62
   96
420
34816
370
   -1
100
AcDbPolyline
 90
    2
 70
    0
 43
0
 10
213.36
 20
102.87
 10
213.36
 20
101.6
  0
LWPOLYLINE
  5
22E
100
AcDbEntity
  8
0
  6
ByLayer
 62
   96
420
34816
370
   -1
100
AcDbPolyline
 90
    2
 70
    0
 43
0
 10
204.47
 20
102.87
 10
213.36
 20
102.87
  0
TEXT
  5
22F
100
AcDbEntity
  8
0
  6
ByLayer
 62
    5
370
   -1
100
AcDbText
 10
204.47
 20
102.87
 30
0
 40
1.778
  1
VCC33
 50
0
 41
1.1
 51
0
  7
宋体
 71
    0
 11
204.47
 21
102.87
 31
0
210
0
220
0
230
1
100
AcDbText
 73
    1
  0
LWPOLYLINE
  5
230
100
AcDbEntity
  8
0
  6
ByLayer
 62
   96
420
34816
370
   -1
100
AcDbPolyline
 90
    2
 70
    0
 43
0
 10
162.56
 20
158.75
 10
170.18
 20
158.75
  0
TEXT
  5
231
100
AcDbEntity
  8
0
  6
ByLayer
 62
    5
370
   -1
100
AcDbText
 10
165.1
 20
158.75
 30
0
 40
1.778
  1
RXD2
 50
0
 41
1.1
 51
0
  7
宋体
 71
    0
 11
165.1
 21
158.75
 31
0
210
0
220
0
230
1
100
AcDbText
 73
    1
  0
LWPOLYLINE
  5
232
100
AcDbEntity
  8
0
  6
ByLayer
 62
   96
420
34816
370
   -1
100
AcDbPolyline
 90
    2
 70
    0
 43
0
 10
162.56
 20
163.83
 10
170.18
 20
163.83
  0
TEXT
  5
233
100
AcDbEntity
  8
0
  6
ByLayer
 62
    5
370
   -1
100
AcDbText
 10
165.1
 20
163.83
 30
0
 40
1.778
  1
SWITCH_PIN_A
 50
0
 41
1.1
 51
0
  7
宋体
 71
    0
 11
165.1
 21
163.83
 31
0
210
0
220
0
230
1
100
AcDbText
 73
    1
  0
LWPOLYLINE
  5
234
100
AcDbEntity
  8
0
  6
ByLayer
 62
   96
420
34816
370
   -1
100
AcDbPolyline
 90
    2
 70
    0
 43
0
 10
162.56
 20
156.21
 10
170.18
 20
156.21
  0
TEXT
  5
235
100
AcDbEntity
  8
0
  6
ByLayer
 62
    5
370
   -1
100
AcDbText
 10
165.1
 20
156.21
 30
0
 40
1.778
  1
SWITCH_PIN_B
 50
0
 41
1.1
 51
0
  7
宋体
 71
    0
 11
165.1
 21
156.21
 31
0
210
0
220
0
230
1
100
AcDbText
 73
    1
  0
LWPOLYLINE
  5
236
100
AcDbEntity
  8
0
  6
ByLayer
 62
   96
420
34816
370
   -1
100
AcDbPolyline
 90
    2
 70
    0
 43
0
 10
215.9
 20
175.26
 10
232.41
 20
175.26
  0
TEXT
  5
237
100
AcDbEntity
  8
0
  6
ByLayer
 62
    5
370
   -1
100
AcDbText
 10
215.9
 20
175.26
 30
0
 40
1.778
  1
SWITCH_PIN_A
 50
0
 41
1.1
 51
0
  7
宋体
 71
    0
 11
215.9
 21
175.26
 31
0
210
0
220
0
230
1
100
AcDbText
 73
    1
  0
LWPOLYLINE
  5
238
100
AcDbEntity
  8
0
  6
ByLayer
 62
   96
420
34816
370
   -1
100
AcDbPolyline
 90
    2
 70
    0
 43
0
 10
215.9
 20
165.1
 10
232.41
 20
165.1
  0
TEXT
  5
239
100
AcDbEntity
  8
0
  6
ByLayer
 62
    5
370
   -1
100
AcDbText
 10
215.9
 20
165.1
 30
0
 40
1.778
  1
SWITCH_PIN_B
 50
0
 41
1.1
 51
0
  7
宋体
 71
    0
 11
215.9
 21
165.1
 31
0
210
0
220
0
230
1
100
AcDbText
 73
    1
  0
LWPOLYLINE
  5
23A
100
AcDbEntity
  8
0
  6
ByLayer
 62
   96
420
34816
370
   -1
100
AcDbPolyline
 90
    2
 70
    0
 43
0
 10
255.27
 20
165.1
 10
247.65
 20
165.1
  0
LWPOLYLINE
  5
23B
100
AcDbEntity
  8
0
  6
ByLayer
 62
   96
420
34816
370
   -1
100
AcDbPolyline
 90
    2
 70
    0
 43
0
 10
255.27
 20
165.1
 10
255.27
 20
175.26
  0
LWPOLYLINE
  5
23C
100
AcDbEntity
  8
0
  6
ByLayer
 62
   96
420
34816
370
   -1
100
AcDbPolyline
 90
    2
 70
    0
 43
0
 10
262.89
 20
175.26
 10
255.27
 20
175.26
  0
LWPOLYLINE
  5
23D
100
AcDbEntity
  8
0
  6
ByLayer
 62
   96
420
34816
370
   -1
100
AcDbPolyline
 90
    2
 70
    0
 43
0
 10
247.65
 20
175.26
 10
255.27
 20
175.26
  0
LWPOLYLINE
  5
23E
100
AcDbEntity
  8
0
  6
ByLayer
 62
   96
420
34816
370
   -1
100
AcDbPolyline
 90
    2
 70
    0
 43
0
 10
255.27
 20
175.26
 10
255.27
 20
182.88
  0
LWPOLYLINE
  5
23F
100
AcDbEntity
  8
0
  6
ByLayer
 62
   96
420
34816
370
   -1
100
AcDbPolyline
 90
    2
 70
    0
 43
0
 10
255.27
 20
182.88
 10
247.65
 20
182.88
  0
TEXT
  5
240
100
AcDbEntity
  8
0
  6
ByLayer
 62
    5
370
   -1
100
AcDbText
 10
262.89
 20
175.26
 30
0
 40
1.778
  1
GND
 50
0
 41
1.1
 51
0
  7
宋体
 71
    0
 11
262.89
 21
175.26
 31
0
210
0
220
0
230
1
100
AcDbText
 73
    1
  0
LWPOLYLINE
  5
241
100
AcDbEntity
  8
0
  6
ByLayer
 62
   96
420
34816
370
   -1
100
AcDbPolyline
 90
    2
 70
    0
 43
0
 10
259.08
 20
146.05
 10
266.7
 20
146.05
  0
LWPOLYLINE
  5
242
100
AcDbEntity
  8
0
  6
ByLayer
 62
   96
420
34816
370
   -1
100
AcDbPolyline
 90
    2
 70
    0
 43
0
 10
259.08
 20
138.43
 10
259.08
 20
146.05
  0
LWPOLYLINE
  5
243
100
AcDbEntity
  8
0
  6
ByLayer
 62
   96
420
34816
370
   -1
100
AcDbPolyline
 90
    2
 70
    0
 43
0
 10
248.92
 20
138.43
 10
259.08
 20
138.43
  0
LWPOLYLINE
  5
244
100
AcDbEntity
  8
0
  6
ByLayer
 62
   96
420
34816
370
   -1
100
AcDbPolyline
 90
    2
 70
    0
 43
0
 10
259.08
 20
146.05
 10
259.08
 20
152.4
  0
LWPOLYLINE
  5
245
100
AcDbEntity
  8
0
  6
ByLayer
 62
   96
420
34816
370
   -1
100
AcDbPolyline
 90
    2
 70
    0
 43
0
 10
259.08
 20
152.4
 10
248.92
 20
152.4
  0
TEXT
  5
246
100
AcDbEntity
  8
0
  6
ByLayer
 62
    5
370
   -1
100
AcDbText
 10
266.7
 20
146.05
 30
0
 40
1.778
  1
GND
 50
0
 41
1.1
 51
0
  7
宋体
 71
    0
 11
266.7
 21
146.05
 31
0
210
0
220
0
230
1
100
AcDbText
 73
    1
  0
LWPOLYLINE
  5
247
100
AcDbEntity
  8
0
  6
ByLayer
 62
   96
420
34816
370
   -1
100
AcDbPolyline
 90
    2
 70
    0
 43
0
 10
228.6
 20
152.4
 10
217.17
 20
152.4
  0
TEXT
  5
248
100
AcDbEntity
  8
0
  6
ByLayer
 62
    5
370
   -1
100
AcDbText
 10
217.17
 20
152.4
 30
0
 40
1.778
  1
LED_ROUGH
 50
0
 41
1.1
 51
0
  7
宋体
 71
    0
 11
217.17
 21
152.4
 31
0
210
0
220
0
230
1
100
AcDbText
 73
    1
  0
LWPOLYLINE
  5
249
100
AcDbEntity
  8
0
  6
ByLayer
 62
   96
420
34816
370
   -1
100
AcDbPolyline
 90
    2
 70
    0
 43
0
 10
228.6
 20
138.43
 10
217.17
 20
138.43
  0
TEXT
  5
24A
100
AcDbEntity
  8
0
  6
ByLayer
 62
    5
370
   -1
100
AcDbText
 10
217.17
 20
138.43
 30
0
 40
1.778
  1
LED_VERT
 50
0
 41
1.1
 51
0
  7
宋体
 71
    0
 11
217.17
 21
138.43
 31
0
210
0
220
0
230
1
100
AcDbText
 73
    1
  0
LWPOLYLINE
  5
24B
100
AcDbEntity
  8
0
  6
ByLayer
 62
   96
420
34816
370
   -1
100
AcDbPolyline
 90
    2
 70
    0
 43
0
 10
238.76
 20
195.58
 10
238.76
 20
196.85
  0
LWPOLYLINE
  5
24C
100
AcDbEntity
  8
0
  6
ByLayer
 62
   96
420
34816
370
   -1
100
AcDbPolyline
 90
    2
 70
    0
 43
0
 10
238.76
 20
196.85
 10
227.33
 20
196.85
  0
TEXT
  5
24D
100
AcDbEntity
  8
0
  6
ByLayer
 62
    5
370
   -1
100
AcDbText
 10
227.33
 20
196.85
 30
0
 40
1.778
  1
BUZZER_PIN
 50
0
 41
1.1
 51
0
  7
宋体
 71
    0
 11
227.33
 21
196.85
 31
0
210
0
220
0
230
1
100
AcDbText
 73
    1
  0
LWPOLYLINE
  5
24E
100
AcDbEntity
  8
0
  6
ByLayer
 62
   96
420
34816
370
   -1
100
AcDbPolyline
 90
    2
 70
    0
 43
0
 10
238.76
 20
193.04
 10
238.76
 20
191.77
  0
LWPOLYLINE
  5
24F
100
AcDbEntity
  8
0
  6
ByLayer
 62
   96
420
34816
370
   -1
100
AcDbPolyline
 90
    2
 70
    0
 43
0
 10
238.76
 20
191.77
 10
227.33
 20
191.77
  0
TEXT
  5
250
100
AcDbEntity
  8
0
  6
ByLayer
 62
    5
370
   -1
100
AcDbText
 10
227.33
 20
191.77
 30
0
 40
1.778
  1
GND
 50
0
 41
1.1
 51
0
  7
宋体
 71
    0
 11
227.33
 21
191.77
 31
0
210
0
220
0
230
1
100
AcDbText
 73
    1
  0
LWPOLYLINE
  5
251
100
AcDbEntity
  8
0
  6
ByLayer
 62
   96
420
34816
370
   -1
100
AcDbPolyline
 90
    2
 70
    0
 43
0
 10
233.68
 20
125.73
 10
220.98
 20
125.73
  0
TEXT
  5
252
100
AcDbEntity
  8
0
  6
ByLayer
 62
    5
370
   -1
100
AcDbText
 10
220.98
 20
125.73
 30
0
 40
1.778
  1
GND
 50
0
 41
1.1
 51
0
  7
宋体
 71
    0
 11
220.98
 21
125.73
 31
0
210
0
220
0
230
1
100
AcDbText
 73
    1
  0
LWPOLYLINE
  5
253
100
AcDbEntity
  8
0
  6
ByLayer
 62
   96
420
34816
370
   -1
100
AcDbPolyline
 90
    2
 70
    0
 43
0
 10
233.68
 20
123.19
 10
220.98
 20
123.19
  0
TEXT
  5
254
100
AcDbEntity
  8
0
  6
ByLayer
 62
    5
370
   -1
100
AcDbText
 10
220.98
 20
123.19
 30
0
 40
1.778
  1
VCC33
 50
0
 41
1.1
 51
0
  7
宋体
 71
    0
 11
220.98
 21
123.19
 31
0
210
0
220
0
230
1
100
AcDbText
 73
    1
  0
LWPOLYLINE
  5
255
100
AcDbEntity
  8
0
  6
ByLayer
 62
   96
420
34816
370
   -1
100
AcDbPolyline
 90
    2
 70
    0
 43
0
 10
233.68
 20
120.65
 10
220.98
 20
120.65
  0
TEXT
  5
256
100
AcDbEntity
  8
0
  6
ByLayer
 62
    5
370
   -1
100
AcDbText
 10
220.98
 20
120.65
 30
0
 40
1.778
  1
OLED_SCL
 50
0
 41
1.1
 51
0
  7
宋体
 71
    0
 11
220.98
 21
120.65
 31
0
210
0
220
0
230
1
100
AcDbText
 73
    1
  0
LWPOLYLINE
  5
257
100
AcDbEntity
  8
0
  6
ByLayer
 62
   96
420
34816
370
   -1
100
AcDbPolyline
 90
    2
 70
    0
 43
0
 10
233.68
 20
118.11
 10
220.98
 20
118.11
  0
TEXT
  5
258
100
AcDbEntity
  8
0
  6
ByLayer
 62
    5
370
   -1
100
AcDbText
 10
220.98
 20
118.11
 30
0
 40
1.778
  1
OLED_SDA
 50
0
 41
1.1
 51
0
  7
宋体
 71
    0
 11
220.98
 21
118.11
 31
0
210
0
220
0
230
1
100
AcDbText
 73
    1
  0
LWPOLYLINE
  5
259
100
AcDbEntity
  8
0
  6
ByLayer
 62
   96
420
34816
370
   -1
100
AcDbPolyline
 90
    2
 70
    0
 43
0
 10
162.56
 20
181.61
 10
170.18
 20
181.61
  0
TEXT
  5
25A
100
AcDbEntity
  8
0
  6
ByLayer
 62
    5
370
   -1
100
AcDbText
 10
165.1
 20
181.61
 30
0
 40
1.778
  1
OLED_SCL
 50
0
 41
1.1
 51
0
  7
宋体
 71
    0
 11
165.1
 21
181.61
 31
0
210
0
220
0
230
1
100
AcDbText
 73
    1
  0
LWPOLYLINE
  5
25B
100
AcDbEntity
  8
0
  6
ByLayer
 62
   96
420
34816
370
   -1
100
AcDbPolyline
 90
    2
 70
    0
 43
0
 10
162.56
 20
173.99
 10
170.18
 20
173.99
  0
TEXT
  5
25C
100
AcDbEntity
  8
0
  6
ByLayer
 62
    5
370
   -1
100
AcDbText
 10
165.1
 20
173.99
 30
0
 40
1.778
  1
OLED_SDA
 50
0
 41
1.1
 51
0
  7
宋体
 71
    0
 11
165.1
 21
173.99
 31
0
210
0
220
0
230
1
100
AcDbText
 73
    1
  0
LWPOLYLINE
  5
25D
100
AcDbEntity
  8
0
  6
ByLayer
 62
   96
420
34816
370
   -1
100
AcDbPolyline
 90
    2
 70
    0
 43
0
 10
162.56
 20
161.29
 10
170.18
 20
161.29
  0
TEXT
  5
25E
100
AcDbEntity
  8
0
  6
ByLayer
 62
    5
370
   -1
100
AcDbText
 10
165.1
 20
161.29
 30
0
 40
1.778
  1
TXD2
 50
0
 41
1.1
 51
0
  7
宋体
 71
    0
 11
165.1
 21
161.29
 31
0
210
0
220
0
230
1
100
AcDbText
 73
    1
  0
LWPOLYLINE
  5
25F
100
AcDbEntity
  8
0
  6
ByLayer
 62
   96
420
34816
370
   -1
100
AcDbPolyline
 90
    2
 70
    0
 43
0
 10
222.25
 20
83.82000000000001
 10
214.63
 20
83.82000000000001
  0
TEXT
  5
260
100
AcDbEntity
  8
0
  6
ByLayer
 62
    5
370
   -1
100
AcDbText
 10
214.63
 20
83.82000000000001
 30
0
 40
1.778
  1
RXD2
 50
0
 41
1.1
 51
0
  7
宋体
 71
    0
 11
214.63
 21
83.82000000000001
 31
0
210
0
220
0
230
1
100
AcDbText
 73
    1
  0
LWPOLYLINE
  5
261
100
AcDbEntity
  8
0
  6
ByLayer
 62
   96
420
34816
370
   -1
100
AcDbPolyline
 90
    2
 70
    0
 43
0
 10
222.25
 20
81.28
 10
214.63
 20
81.28
  0
TEXT
  5
262
100
AcDbEntity
  8
0
  6
ByLayer
 62
    5
370
   -1
100
AcDbText
 10
214.63
 20
81.28
 30
0
 40
1.778
  1
TXD2
 50
0
 41
1.1
 51
0
  7
宋体
 71
    0
 11
214.63
 21
81.28
 31
0
210
0
220
0
230
1
100
AcDbText
 73
    1
  0
LWPOLYLINE
  5
263
100
AcDbEntity
  8
0
  6
ByLayer
 62
   96
420
34816
370
   -1
100
AcDbPolyline
 90
    2
 70
    0
 43
0
 10
247.65
 20
91.44
 10
260.35
 20
91.44
  0
LWPOLYLINE
  5
264
100
AcDbEntity
  8
0
  6
ByLayer
 62
   96
420
34816
370
   -1
100
AcDbPolyline
 90
    2
 70
    0
 43
0
 10
278.13
 20
91.44
 10
270.51
 20
91.44
  0
TEXT
  5
265
100
AcDbEntity
  8
0
  6
ByLayer
 62
    5
370
   -1
100
AcDbText
 10
273.05
 20
91.44
 30
0
 40
1.778
  1
GND
 50
0
 41
1.1
 51
0
  7
宋体
 71
    0
 11
273.05
 21
91.44
 31
0
210
0
220
0
230
1
100
AcDbText
 73
    1
  0
LWPOLYLINE
  5
266
100
AcDbEntity
  8
0
  6
ByLayer
 62
   96
420
34816
370
   -1
100
AcDbPolyline
 90
    2
 70
    0
 43
0
 10
254
 20
81.28
 10
247.65
 20
81.28
  0
LWPOLYLINE
  5
267
100
AcDbEntity
  8
0
  6
ByLayer
 62
   96
420
34816
370
   -1
100
AcDbPolyline
 90
    2
 70
    0
 43
0
 10
264.16
 20
81.28
 10
271.78
 20
81.28
  0
TEXT
  5
268
100
AcDbEntity
  8
0
  6
ByLayer
 62
    5
370
   -1
100
AcDbText
 10
266.7
 20
81.28
 30
0
 40
1.778
  1
GND
 50
0
 41
1.1
 51
0
  7
宋体
 71
    0
 11
266.7
 21
81.28
 31
0
210
0
220
0
230
1
100
AcDbText
 73
    1
  0
LWPOLYLINE
  5
269
100
AcDbEntity
  8
0
  6
ByLayer
 62
   96
420
34816
370
   -1
100
AcDbPolyline
 90
    2
 70
    0
 43
0
 10
247.65
 20
83.82000000000001
 10
262.89
 20
83.82000000000001
  0
LWPOLYLINE
  5
26A
100
AcDbEntity
  8
0
  6
ByLayer
 62
   96
420
34816
370
   -1
100
AcDbPolyline
 90
    2
 70
    0
 43
0
 10
262.89
 20
86.36
 10
262.89
 20
83.82000000000001
  0
LWPOLYLINE
  5
26B
100
AcDbEntity
  8
0
  6
ByLayer
 62
   96
420
34816
370
   -1
100
AcDbPolyline
 90
    2
 70
    0
 43
0
 10
262.89
 20
86.36
 10
257.81
 20
86.36
  0
LWPOLYLINE
  5
26C
100
AcDbEntity
  8
0
  6
ByLayer
 62
   96
420
34816
370
   -1
100
AcDbPolyline
 90
    2
 70
    0
 43
0
 10
247.65
 20
88.90000000000001
 10
259.08
 20
88.90000000000001
  0
LWPOLYLINE
  5
26D
100
AcDbEntity
  8
0
  6
ByLayer
 62
   96
420
34816
370
   -1
100
AcDbPolyline
 90
    2
 70
    0
 43
0
 10
259.08
 20
93.98
 10
259.08
 20
88.90000000000001
  0
LWPOLYLINE
  5
26E
100
AcDbEntity
  8
0
  6
ByLayer
 62
   96
420
34816
370
   -1
100
AcDbPolyline
 90
    2
 70
    0
 43
0
 10
259.08
 20
93.98
 10
257.81
 20
93.98
  0
LWPOLYLINE
  5
26F
100
AcDbEntity
  8
0
  6
ByLayer
 62
   96
420
34816
370
   -1
100
AcDbPolyline
 90
    2
 70
    0
 43
0
 10
191.77
 20
90.17
 10
191.77
 20
88.90000000000001
  0
LWPOLYLINE
  5
270
100
AcDbEntity
  8
0
  6
ByLayer
 62
   96
420
34816
370
   -1
100
AcDbPolyline
 90
    2
 70
    0
 43
0
 10
222.25
 20
88.90000000000001
 10
191.77
 20
88.90000000000001
  0
TEXT
  5
271
100
AcDbEntity
  8
0
  6
ByLayer
 62
    5
370
   -1
100
AcDbText
 10
204.47
 20
88.90000000000001
 30
0
 40
1.778
  1
RX_DETECTER
 50
0
 41
1.1
 51
0
  7
宋体
 71
    0
 11
204.47
 21
88.90000000000001
 31
0
210
0
220
0
230
1
100
AcDbText
 73
    1
  0
LWPOLYLINE
  5
272
100
AcDbEntity
  8
0
  6
ByLayer
 62
   96
420
34816
370
   -1
100
AcDbPolyline
 90
    2
 70
    0
 43
0
 10
191.77
 20
87.63
 10
191.77
 20
86.36
  0
LWPOLYLINE
  5
273
100
AcDbEntity
  8
0
  6
ByLayer
 62
   96
420
34816
370
   -1
100
AcDbPolyline
 90
    2
 70
    0
 43
0
 10
222.25
 20
86.36
 10
191.77
 20
86.36
  0
TEXT
  5
274
100
AcDbEntity
  8
0
  6
ByLayer
 62
    5
370
   -1
100
AcDbText
 10
204.47
 20
86.36
 30
0
 40
1.778
  1
TX_DETECTER
 50
0
 41
1.1
 51
0
  7
宋体
 71
    0
 11
204.47
 21
86.36
 31
0
210
0
220
0
230
1
100
AcDbText
 73
    1
  0
LWPOLYLINE
  5
275
100
AcDbEntity
  8
0
  6
ByLayer
 62
   96
420
34816
370
   -1
100
AcDbPolyline
 90
    2
 70
    0
 43
0
 10
69.84999999999999
 20
83.82000000000001
 10
69.84999999999999
 20
69.84999999999999
  0
LWPOLYLINE
  5
276
100
AcDbEntity
  8
0
  6
ByLayer
 62
   96
420
34816
370
   -1
100
AcDbPolyline
 90
    2
 70
    0
 43
0
 10
62.23
 20
69.84999999999999
 10
69.84999999999999
 20
69.84999999999999
  0
LWPOLYLINE
  5
277
100
AcDbEntity
  8
0
  6
ByLayer
 62
   96
420
34816
370
   -1
100
AcDbPolyline
 90
    2
 70
    0
 43
0
 10
62.23
 20
76.2
 10
62.23
 20
69.84999999999999
  0
LWPOLYLINE
  5
278
100
AcDbEntity
  8
0
  6
ByLayer
 62
   96
420
34816
370
   -1
100
AcDbPolyline
 90
    2
 70
    0
 43
0
 10
53.34
 20
69.84999999999999
 10
62.23
 20
69.84999999999999
  0
LWPOLYLINE
  5
279
100
AcDbEntity
  8
0
  6
ByLayer
 62
   96
420
34816
370
   -1
100
AcDbPolyline
 90
    2
 70
    0
 43
0
 10
53.34
 20
69.84999999999999
 10
45.72
 20
69.84999999999999
  0
LWPOLYLINE
  5
27A
100
AcDbEntity
  8
0
  6
ByLayer
 62
   96
420
34816
370
   -1
100
AcDbPolyline
 90
    2
 70
    0
 43
0
 10
53.34
 20
69.84999999999999
 10
53.34
 20
72.39
  0
TEXT
  5
27B
100
AcDbEntity
  8
0
  6
ByLayer
 62
    5
370
   -1
100
AcDbText
 10
45.72
 20
69.84999999999999
 30
0
 40
1.778
  1
VCC33
 50
0
 41
1.1
 51
0
  7
宋体
 71
    0
 11
45.72
 21
69.84999999999999
 31
0
210
0
220
0
230
1
100
AcDbText
 73
    1
  0
LWPOLYLINE
  5
27C
100
AcDbEntity
  8
0
  6
ByLayer
 62
   96
420
34816
370
   -1
100
AcDbPolyline
 90
    2
 70
    0
 43
0
 10
93.98
 20
60.96
 10
93.98
 20
68.58
  0
TEXT
  5
27D
100
AcDbEntity
  8
0
  6
ByLayer
 62
    5
370
   -1
100
AcDbText
 10
93.98
 20
68.58
 30
0
 40
1.778
  1
CTS
 50
90
 41
1.1
 51
0
  7
宋体
 71
    0
 11
93.98
 21
68.58
 31
0
210
0
220
0
230
1
100
AcDbText
 73
    1
  0
LWPOLYLINE
  5
27E
100
AcDbEntity
  8
0
  6
ByLayer
 62
   96
420
34816
370
   -1
100
AcDbPolyline
 90
    2
 70
    0
 43
0
 10
90.17
 20
83.82000000000001
 10
96.52
 20
83.82000000000001
  0
LWPOLYLINE
  5
27F
100
AcDbEntity
  8
0
  6
ByLayer
 62
   96
420
34816
370
   -1
100
AcDbPolyline
 90
    2
 70
    0
 43
0
 10
96.52
 20
60.96
 10
96.52
 20
83.82000000000001
  0
TEXT
  5
280
100
AcDbEntity
  8
0
  6
ByLayer
 62
    5
370
   -1
100
AcDbText
 10
96.52
 20
68.58
 30
0
 40
1.778
  1
VCC
 50
90
 41
1.1
 51
0
  7
宋体
 71
    0
 11
96.52
 21
68.58
 31
0
210
0
220
0
230
1
100
AcDbText
 73
    1
  0
LWPOLYLINE
  5
281
100
AcDbEntity
  8
0
  6
ByLayer
 62
   96
420
34816
370
   -1
100
AcDbPolyline
 90
    2
 70
    0
 43
0
 10
186.69
 20
102.87
 10
186.69
 20
179.07
  0
LWPOLYLINE
  5
282
100
AcDbEntity
  8
0
  6
ByLayer
 62
   96
420
34816
370
   -1
100
AcDbPolyline
 90
    2
 70
    0
 43
0
 10
186.69
 20
179.07
 10
162.56
 20
179.07
  0
LWPOLYLINE
  5
283
100
AcDbEntity
  8
0
  6
ByLayer
 62
   96
420
34816
370
   -1
100
AcDbPolyline
 90
    2
 70
    0
 43
0
 10
99.06
 20
102.87
 10
186.69
 20
102.87
  0
LWPOLYLINE
  5
284
100
AcDbEntity
  8
0
  6
ByLayer
 62
   96
420
34816
370
   -1
100
AcDbPolyline
 90
    2
 70
    0
 43
0
 10
99.06
 20
60.96
 10
99.06
 20
102.87
  0
TEXT
  5
285
100
AcDbEntity
  8
0
  6
ByLayer
 62
    5
370
   -1
100
AcDbText
 10
99.06
 20
68.58
 30
0
 40
1.778
  1
TX
 50
90
 41
1.1
 51
0
  7
宋体
 71
    0
 11
99.06
 21
68.58
 31
0
210
0
220
0
230
1
100
AcDbText
 73
    1
  0
LWPOLYLINE
  5
286
100
AcDbEntity
  8
0
  6
ByLayer
 62
   96
420
34816
370
   -1
100
AcDbPolyline
 90
    2
 70
    0
 43
0
 10
189.23
 20
176.53
 10
189.23
 20
105.41
  0
LWPOLYLINE
  5
287
100
AcDbEntity
  8
0
  6
ByLayer
 62
   96
420
34816
370
   -1
100
AcDbPolyline
 90
    2
 70
    0
 43
0
 10
189.23
 20
176.53
 10
162.56
 20
176.53
  0
LWPOLYLINE
  5
288
100
AcDbEntity
  8
0
  6
ByLayer
 62
   96
420
34816
370
   -1
100
AcDbPolyline
 90
    2
 70
    0
 43
0
 10
189.23
 20
105.41
 10
101.6
 20
105.41
  0
LWPOLYLINE
  5
289
100
AcDbEntity
  8
0
  6
ByLayer
 62
   96
420
34816
370
   -1
100
AcDbPolyline
 90
    2
 70
    0
 43
0
 10
101.6
 20
60.96
 10
101.6
 20
105.41
  0
TEXT
  5
28A
100
AcDbEntity
  8
0
  6
ByLayer
 62
    5
370
   -1
100
AcDbText
 10
101.6
 20
68.58
 30
0
 40
1.778
  1
RX
 50
90
 41
1.1
 51
0
  7
宋体
 71
    0
 11
101.6
 21
68.58
 31
0
210
0
220
0
230
1
100
AcDbText
 73
    1
  0
LWPOLYLINE
  5
28B
100
AcDbEntity
  8
0
  6
ByLayer
 62
   96
420
34816
370
   -1
100
AcDbPolyline
 90
    2
 70
    0
 43
0
 10
104.14
 20
60.96
 10
104.14
 20
68.58
  0
TEXT
  5
28C
100
AcDbEntity
  8
0
  6
ByLayer
 62
    5
370
   -1
100
AcDbText
 10
104.14
 20
68.58
 30
0
 40
1.778
  1
DTR
 50
90
 41
1.1
 51
0
  7
宋体
 71
    0
 11
104.14
 21
68.58
 31
0
210
0
220
0
230
1
100
AcDbText
 73
    1
  0
LWPOLYLINE
  5
28D
100
AcDbEntity
  8
0
  6
ByLayer
 62
   96
420
34816
370
   -1
100
AcDbPolyline
 90
    2
 70
    0
 43
0
 10
162.56
 20
189.23
 10
166.37
 20
189.23
  0
LWPOLYLINE
  5
28E
100
AcDbEntity
  8
0
  6
ByLayer
 62
   96
420
34816
370
   -1
100
AcDbPolyline
 90
    2
 70
    0
 43
0
 10
166.37
 20
189.23
 10
166.37
 20
186.69
  0
LWPOLYLINE
  5
28F
100
AcDbEntity
  8
0
  6
ByLayer
 62
   96
420
34816
370
   -1
100
AcDbPolyline
 90
    2
 70
    0
 43
0
 10
162.56
 20
186.69
 10
166.37
 20
186.69
  0
LWPOLYLINE
  5
290
100
AcDbEntity
  8
0
  6
ByLayer
 62
   96
420
34816
370
   -1
100
AcDbPolyline
 90
    2
 70
    0
 43
0
 10
166.37
 20
189.23
 10
176.53
 20
189.23
  0
LWPOLYLINE
  5
291
100
AcDbEntity
  8
0
  6
ByLayer
 62
   96
420
34816
370
   -1
100
AcDbPolyline
 90
    2
 70
    0
 43
0
 10
176.53
 20
189.23
 10
176.53
 20
129.54
  0
LWPOLYLINE
  5
292
100
AcDbEntity
  8
0
  6
ByLayer
 62
   96
420
34816
370
   -1
100
AcDbPolyline
 90
    2
 70
    0
 43
0
 10
176.53
 20
129.54
 10
114.3
 20
129.54
  0
LWPOLYLINE
  5
293
100
AcDbEntity
  8
0
  6
ByLayer
 62
   96
420
34816
370
   -1
100
AcDbPolyline
 90
    2
 70
    0
 43
0
 10
114.3
 20
151.13
 10
114.3
 20
129.54
  0
LWPOLYLINE
  5
294
100
AcDbEntity
  8
0
  6
ByLayer
 62
   96
420
34816
370
   -1
100
AcDbPolyline
 90
    2
 70
    0
 43
0
 10
132.08
 20
151.13
 10
114.3
 20
151.13
  0
LWPOLYLINE
  5
295
100
AcDbEntity
  8
0
  6
ByLayer
 62
   96
420
34816
370
   -1
100
AcDbPolyline
 90
    2
 70
    0
 43
0
 10
114.3
 20
129.54
 10
96.52
 20
129.54
  0
LWPOLYLINE
  5
296
100
AcDbEntity
  8
0
  6
ByLayer
 62
   96
420
34816
370
   -1
100
AcDbPolyline
 90
    2
 70
    0
 43
0
 10
96.52
 20
161.29
 10
96.52
 20
129.54
  0
LWPOLYLINE
  5
297
100
AcDbEntity
  8
0
  6
ByLayer
 62
   96
420
34816
370
   -1
100
AcDbPolyline
 90
    2
 70
    0
 43
0
 10
96.52
 20
161.29
 10
97.79000000000001
 20
161.29
  0
LWPOLYLINE
  5
298
100
AcDbEntity
  8
0
  6
ByLayer
 62
   96
420
34816
370
   -1
100
AcDbPolyline
 90
    2
 70
    0
 43
0
 10
74.93000000000001
 20
129.54
 10
96.52
 20
129.54
  0
LWPOLYLINE
  5
299
100
AcDbEntity
  8
0
  6
ByLayer
 62
   96
420
34816
370
   -1
100
AcDbPolyline
 90
    2
 70
    0
 43
0
 10
74.93000000000001
 20
166.37
 10
74.93000000000001
 20
129.54
  0
LWPOLYLINE
  5
29A
100
AcDbEntity
  8
0
  6
ByLayer
 62
   96
420
34816
370
   -1
100
AcDbPolyline
 90
    2
 70
    0
 43
0
 10
74.93000000000001
 20
166.37
 10
77.47
 20
166.37
  0
LWPOLYLINE
  5
29B
100
AcDbEntity
  8
0
  6
ByLayer
 62
   96
420
34816
370
   -1
100
AcDbPolyline
 90
    2
 70
    0
 43
0
 10
74.93000000000001
 20
129.54
 10
43.18
 20
129.54
  0
LWPOLYLINE
  5
29C
100
AcDbEntity
  8
0
  6
ByLayer
 62
   96
420
34816
370
   -1
100
AcDbPolyline
 90
    2
 70
    0
 43
0
 10
43.18
 20
96.52
 10
43.18
 20
129.54
  0
LWPOLYLINE
  5
29D
100
AcDbEntity
  8
0
  6
ByLayer
 62
   96
420
34816
370
   -1
100
AcDbPolyline
 90
    2
 70
    0
 43
0
 10
43.18
 20
96.52
 10
43.18
 20
68.58
  0
LWPOLYLINE
  5
29E
100
AcDbEntity
  8
0
  6
ByLayer
 62
   96
420
34816
370
   -1
100
AcDbPolyline
 90
    2
 70
    0
 43
0
 10
43.18
 20
68.58
 10
91.43999999999998
 20
68.58
  0
LWPOLYLINE
  5
29F
100
AcDbEntity
  8
0
  6
ByLayer
 62
   96
420
34816
370
   -1
100
AcDbPolyline
 90
    2
 70
    0
 43
0
 10
91.43999999999998
 20
60.96
 10
91.43999999999998
 20
68.58
  0
LWPOLYLINE
  5
2A0
100
AcDbEntity
  8
0
  6
ByLayer
 62
   96
420
34816
370
   -1
100
AcDbPolyline
 90
    2
 70
    0
 43
0
 10
53.34
 20
96.52
 10
43.18
 20
96.52
  0
LWPOLYLINE
  5
2A1
100
AcDbEntity
  8
0
  6
ByLayer
 62
   96
420
34816
370
   -1
100
AcDbPolyline
 90
    2
 70
    0
 43
0
 10
53.34
 20
96.52
 10
62.23
 20
96.52
  0
LWPOLYLINE
  5
2A2
100
AcDbEntity
  8
0
  6
ByLayer
 62
   96
420
34816
370
   -1
100
AcDbPolyline
 90
    2
 70
    0
 43
0
 10
62.23
 20
96.52
 10
62.23
 20
86.36
  0
LWPOLYLINE
  5
2A3
100
AcDbEntity
  8
0
  6
ByLayer
 62
   96
420
34816
370
   -1
100
AcDbPolyline
 90
    2
 70
    0
 43
0
 10
62.23
 20
96.52
 10
69.84999999999999
 20
96.52
  0
LWPOLYLINE
  5
2A4
100
AcDbEntity
  8
0
  6
ByLayer
 62
   96
420
34816
370
   -1
100
AcDbPolyline
 90
    2
 70
    0
 43
0
 10
69.84999999999999
 20
86.36
 10
69.84999999999999
 20
96.52
  0
LWPOLYLINE
  5
2A5
100
AcDbEntity
  8
0
  6
ByLayer
 62
   96
420
34816
370
   -1
100
AcDbPolyline
 90
    2
 70
    0
 43
0
 10
53.34
 20
96.52
 10
53.34
 20
93.98
  0
LWPOLYLINE
  5
2A6
100
AcDbEntity
  8
0
  6
ByLayer
 62
   96
420
34816
370
   -1
100
AcDbPolyline
 90
    2
 70
    0
 43
0
 10
176.53
 20
189.23
 10
176.53
 20
196.85
  0
LWPOLYLINE
  5
2A7
100
AcDbEntity
  8
0
  6
ByLayer
 62
   96
420
34816
370
   -1
100
AcDbPolyline
 90
    2
 70
    0
 43
0
 10
176.53
 20
196.85
 10
132.08
 20
196.85
  0
LWPOLYLINE
  5
2A8
100
AcDbEntity
  8
0
  6
ByLayer
 62
   96
420
34816
370
   -1
100
AcDbPolyline
 90
    2
 70
    0
 43
0
 10
132.08
 20
201.93
 10
132.08
 20
196.85
  0
LWPOLYLINE
  5
2A9
100
AcDbEntity
  8
0
  6
ByLayer
 62
   96
420
34816
370
   -1
100
AcDbPolyline
 90
    2
 70
    0
 43
0
 10
132.08
 20
201.93
 10
125.73
 20
201.93
  0
LWPOLYLINE
  5
2AA
100
AcDbEntity
  8
0
  6
ByLayer
 62
   96
420
34816
370
   -1
100
AcDbPolyline
 90
    2
 70
    0
 43
0
 10
124.46
 20
201.93
 10
125.73
 20
201.93
  0
LWPOLYLINE
  5
2AB
100
AcDbEntity
  8
0
  6
ByLayer
 62
   96
420
34816
370
   -1
100
AcDbPolyline
 90
    2
 70
    0
 43
0
 10
124.46
 20
196.85
 10
124.46
 20
201.93
  0
LWPOLYLINE
  5
2AC
100
AcDbEntity
  8
0
  6
ByLayer
 62
   96
420
34816
370
   -1
100
AcDbPolyline
 90
    2
 70
    0
 43
0
 10
125.73
 20
201.93
 10
125.73
 20
204.47
  0
LWPOLYLINE
  5
2AD
100
AcDbEntity
  8
0
  6
ByLayer
 62
   96
420
34816
370
   -1
100
AcDbPolyline
 90
    2
 70
    0
 43
0
 10
128.27
 20
196.85
 10
132.08
 20
196.85
  0
LWPOLYLINE
  5
2AE
100
AcDbEntity
  8
0
  6
ByLayer
 62
   96
420
34816
370
   -1
100
AcDbPolyline
 90
    2
 70
    0
 43
0
 10
128.27
 20
196.85
 10
128.27
 20
186.69
  0
LWPOLYLINE
  5
2AF
100
AcDbEntity
  8
0
  6
ByLayer
 62
   96
420
34816
370
   -1
100
AcDbPolyline
 90
    2
 70
    0
 43
0
 10
132.08
 20
186.69
 10
128.27
 20
186.69
  0
LWPOLYLINE
  5
2B0
100
AcDbEntity
  8
0
  6
ByLayer
 62
   96
420
34816
370
   -1
100
AcDbPolyline
 90
    2
 70
    0
 43
0
 10
191.77
 20
187.96
 10
191.77
 20
189.23
  0
LWPOLYLINE
  5
2B1
100
AcDbEntity
  8
0
  6
ByLayer
 62
   96
420
34816
370
   -1
100
AcDbPolyline
 90
    2
 70
    0
 43
0
 10
210.82
 20
189.23
 10
191.77
 20
189.23
  0
LWPOLYLINE
  5
2B2
100
AcDbEntity
  8
0
  6
ByLayer
 62
   96
420
34816
370
   -1
100
AcDbPolyline
 90
    2
 70
    0
 43
0
 10
210.82
 20
153.67
 10
210.82
 20
189.23
  0
LWPOLYLINE
  5
2B3
100
AcDbEntity
  8
0
  6
ByLayer
 62
   96
420
34816
370
   -1
100
AcDbPolyline
 90
    2
 70
    0
 43
0
 10
210.82
 20
153.67
 10
209.55
 20
153.67
  0
LWPOLYLINE
  5
2B4
100
AcDbEntity
  8
0
  6
ByLayer
 62
   96
420
34816
370
   -1
100
AcDbPolyline
 90
    2
 70
    0
 43
0
 10
176.53
 20
189.23
 10
191.77
 20
189.23
  0
TEXT
  5
2B5
100
AcDbEntity
  8
0
  6
ByLayer
 62
    5
370
   -1
100
AcDbText
 10
91.43999999999998
 20
68.58
 30
0
 40
1.778
  1
GND
 50
90
 41
1.1
 51
0
  7
宋体
 71
    0
 11
91.43999999999998
 21
68.58
 31
0
210
0
220
0
230
1
100
AcDbText
 73
    1
  0
LWPOLYLINE
  5
2B6
100
AcDbEntity
  8
0
  6
ByLayer
 62
    1
370
   -1
100
AcDbPolyline
 90
    2
 70
    0
 43
0
 10
191.77
 20
177.8
 10
191.77
 20
153.67
  0
LWPOLYLINE
  5
2B7
100
AcDbEntity
  8
0
  6
ByLayer
 62
    1
370
   -1
100
AcDbPolyline
 90
    2
 70
    0
 43
0
 10
191.77
 20
153.67
 10
194.31
 20
153.67
  0
LWPOLYLINE
  5
2B8
100
AcDbEntity
  8
0
  6
ByLayer
 62
    1
370
   -1
100
AcDbPolyline
 90
    2
 70
    0
 43
0
 10
162.56
 20
153.67
 10
191.77
 20
153.67
  0
LWPOLYLINE
  5
2B9
100
AcDbEntity
  8
0
  6
ByLayer
 62
   96
420
34816
370
   -1
100
AcDbPolyline
 90
    2
 70
    0
 43
0
 10
162.56
 20
168.91
 10
170.18
 20
168.91
  0
TEXT
  5
2BA
100
AcDbEntity
  8
0
  6
ByLayer
 62
    5
370
   -1
100
AcDbText
 10
165.1
 20
168.91
 30
0
 40
1.778
  1
SWITCH_PIN_C
 50
0
 41
1.1
 51
0
  7
宋体
 71
    0
 11
165.1
 21
168.91
 31
0
210
0
220
0
230
1
100
AcDbText
 73
    1
  0
LWPOLYLINE
  5
2BB
100
AcDbEntity
  8
0
  6
ByLayer
 62
   96
420
34816
370
   -1
100
AcDbPolyline
 90
    2
 70
    0
 43
0
 10
215.9
 20
182.88
 10
232.41
 20
182.88
  0
TEXT
  5
2BC
100
AcDbEntity
  8
0
  6
ByLayer
 62
    5
370
   -1
100
AcDbText
 10
215.9
 20
182.88
 30
0
 40
1.778
  1
SWITCH_PIN_C
 50
0
 41
1.1
 51
0
  7
宋体
 71
    0
 11
215.9
 21
182.88
 31
0
210
0
220
0
230
1
100
AcDbText
 73
    1
  0
LWPOLYLINE
  5
2BD
100
AcDbEntity
  8
0
  6
ByLayer
 62
   96
420
34816
370
   -1
100
AcDbPolyline
 90
    2
 70
    0
 43
0
 10
162.56
 20
171.45
 10
170.18
 20
171.45
  0
TEXT
  5
2BE
100
AcDbEntity
  8
0
  6
ByLayer
 62
    5
370
   -1
100
AcDbText
 10
170.18
 20
171.45
 30
0
 40
1.778
  1
BUZZER_PIN
 50
0
 41
1.1
 51
0
  7
宋体
 71
    0
 11
170.18
 21
171.45
 31
0
210
0
220
0
230
1
100
AcDbText
 73
    1
  0
LWPOLYLINE
  5
2BF
100
AcDbEntity
  8
0
  6
ByLayer
 62
   96
420
34816
370
   -1
100
AcDbPolyline
 90
    2
 70
    0
 43
0
 10
162.56
 20
148.59
 10
170.18
 20
148.59
  0
TEXT
  5
2C0
100
AcDbEntity
  8
0
  6
ByLayer
 62
    5
370
   -1
100
AcDbText
 10
170.18
 20
148.59
 30
0
 40
1.778
  1
LED_ROUGH
 50
0
 41
1.1
 51
0
  7
宋体
 71
    0
 11
170.18
 21
148.59
 31
0
210
0
220
0
230
1
100
AcDbText
 73
    1
  0
LWPOLYLINE
  5
2C1
100
AcDbEntity
  8
0
  6
ByLayer
 62
   96
420
34816
370
   -1
100
AcDbPolyline
 90
    2
 70
    0
 43
0
 10
162.56
 20
151.13
 10
170.18
 20
151.13
  0
TEXT
  5
2C2
100
AcDbEntity
  8
0
  6
ByLayer
 62
    5
370
   -1
100
AcDbText
 10
165.1
 20
151.13
 30
0
 40
1.778
  1
LED_VERT
 50
0
 41
1.1
 51
0
  7
宋体
 71
    0
 11
165.1
 21
151.13
 31
0
210
0
220
0
230
1
100
AcDbText
 73
    1
  0
ENDSEC
  0
SECTION
  2
OBJECTS
  0
DICTIONARY
  5
C
330
0
100
AcDbDictionary
281
    1
  3
ACAD_GROUP
350
D
  0
DICTIONARY
  5
D
330
C
100
AcDbDictionary
281
    1
  0
PLOTSETTINGS
  5
2C3
100
AcDbPlotSettings
  6
1x1
 40
0
 41
0
 42
0
 43
0
  0
ENDSEC
  0
EOF
